%TF.GenerationSoftware,KiCad,Pcbnew,7.0.10*%
%TF.CreationDate,2024-03-09T11:41:47+01:00*%
%TF.ProjectId,ScartPCB,53636172-7450-4434-922e-6b696361645f,0*%
%TF.SameCoordinates,PX76bb820PY7641700*%
%TF.FileFunction,Legend,Bot*%
%TF.FilePolarity,Positive*%
%FSLAX46Y46*%
G04 Gerber Fmt 4.6, Leading zero omitted, Abs format (unit mm)*
G04 Created by KiCad (PCBNEW 7.0.10) date 2024-03-09 11:41:47*
%MOMM*%
%LPD*%
G01*
G04 APERTURE LIST*
%ADD10C,0.100000*%
%ADD11C,0.150000*%
%ADD12C,0.200000*%
%ADD13C,0.010000*%
G04 APERTURE END LIST*
D10*
X26791672Y11393338D02*
X26853872Y11352269D01*
X26853872Y11352269D02*
X26903872Y11265667D01*
X26903872Y11265667D02*
X26925005Y11162397D01*
X26925005Y11162397D02*
X26900603Y11071329D01*
X26900603Y11071329D02*
X26859535Y11009128D01*
X26859535Y11009128D02*
X26760731Y10913594D01*
X26760731Y10913594D02*
X26674129Y10863594D01*
X26674129Y10863594D02*
X26541992Y10825795D01*
X26541992Y10825795D02*
X26467590Y10821329D01*
X26467590Y10821329D02*
X26376522Y10845731D01*
X26376522Y10845731D02*
X26297655Y10915667D01*
X26297655Y10915667D02*
X26264321Y10973402D01*
X26264321Y10973402D02*
X26243189Y11076671D01*
X26243189Y11076671D02*
X26255390Y11122205D01*
X26255390Y11122205D02*
X26457462Y11238872D01*
X26457462Y11238872D02*
X26524129Y11123402D01*
X26047655Y11348679D02*
X26653872Y11698679D01*
X26653872Y11698679D02*
X25847655Y11695089D01*
X25847655Y11695089D02*
X26453872Y12045089D01*
X25680988Y11983764D02*
X26287206Y12333764D01*
X26287206Y12333764D02*
X26203873Y12478102D01*
X26203873Y12478102D02*
X26125005Y12548038D01*
X26125005Y12548038D02*
X26033937Y12572439D01*
X26033937Y12572439D02*
X25959535Y12567974D01*
X25959535Y12567974D02*
X25827398Y12530174D01*
X25827398Y12530174D02*
X25740796Y12480174D01*
X25740796Y12480174D02*
X25641992Y12384640D01*
X25641992Y12384640D02*
X25600924Y12322439D01*
X25600924Y12322439D02*
X25576522Y12231371D01*
X25576522Y12231371D02*
X25597655Y12128102D01*
X25597655Y12128102D02*
X25680988Y11983764D01*
X21704015Y8273553D02*
X21631543Y8350097D01*
X21631543Y8350097D02*
X21561107Y8501148D01*
X21561107Y8501148D02*
X21563143Y8575656D01*
X21563143Y8575656D02*
X21579266Y8619953D01*
X21579266Y8619953D02*
X21625599Y8678338D01*
X21625599Y8678338D02*
X21686019Y8706513D01*
X21686019Y8706513D02*
X21760527Y8704477D01*
X21760527Y8704477D02*
X21804825Y8688354D01*
X21804825Y8688354D02*
X21863210Y8642021D01*
X21863210Y8642021D02*
X21949769Y8535267D01*
X21949769Y8535267D02*
X22008154Y8488934D01*
X22008154Y8488934D02*
X22052451Y8472811D01*
X22052451Y8472811D02*
X22126959Y8470775D01*
X22126959Y8470775D02*
X22187380Y8498949D01*
X22187380Y8498949D02*
X22233713Y8557334D01*
X22233713Y8557334D02*
X22249836Y8601632D01*
X22249836Y8601632D02*
X22251872Y8676140D01*
X22251872Y8676140D02*
X22181435Y8827191D01*
X22181435Y8827191D02*
X22108963Y8903734D01*
X21623726Y9155595D02*
X21321623Y9014723D01*
X22054650Y9099084D02*
X21623726Y9155595D01*
X21623726Y9155595D02*
X21857428Y9522027D01*
X21124401Y9437666D02*
X21758817Y9733499D01*
X21758817Y9733499D02*
X20955354Y9800189D01*
X20955354Y9800189D02*
X21589769Y10096022D01*
X20705855Y10492989D02*
X20689732Y10448692D01*
X20689732Y10448692D02*
X20701783Y10343974D01*
X20701783Y10343974D02*
X20729958Y10283553D01*
X20729958Y10283553D02*
X20802430Y10207010D01*
X20802430Y10207010D02*
X20891025Y10174764D01*
X20891025Y10174764D02*
X20965533Y10172728D01*
X20965533Y10172728D02*
X21100461Y10198867D01*
X21100461Y10198867D02*
X21191092Y10241129D01*
X21191092Y10241129D02*
X21297846Y10327688D01*
X21297846Y10327688D02*
X21344179Y10386073D01*
X21344179Y10386073D02*
X21376425Y10474668D01*
X21376425Y10474668D02*
X21364373Y10579386D01*
X21364373Y10579386D02*
X21336199Y10639806D01*
X21336199Y10639806D02*
X21263727Y10716350D01*
X21263727Y10716350D02*
X21219429Y10732473D01*
X17142194Y6410893D02*
X17001321Y6712995D01*
X16989107Y6265948D02*
X17524911Y6773253D01*
X17524911Y6773253D02*
X16791885Y6688892D01*
X17327689Y7196197D02*
X16814115Y6956713D01*
X16814115Y6956713D02*
X16739607Y6958749D01*
X16739607Y6958749D02*
X16695310Y6974872D01*
X16695310Y6974872D02*
X16636925Y7021205D01*
X16636925Y7021205D02*
X16580576Y7142046D01*
X16580576Y7142046D02*
X16582611Y7216554D01*
X16582611Y7216554D02*
X16598734Y7260851D01*
X16598734Y7260851D02*
X16645068Y7319236D01*
X16645068Y7319236D02*
X17158642Y7558720D01*
X16383354Y7564989D02*
X17017769Y7860822D01*
X17017769Y7860822D02*
X16947333Y8011873D01*
X16947333Y8011873D02*
X16874861Y8088417D01*
X16874861Y8088417D02*
X16786266Y8120663D01*
X16786266Y8120663D02*
X16711758Y8122699D01*
X16711758Y8122699D02*
X16576830Y8096560D01*
X16576830Y8096560D02*
X16486199Y8054298D01*
X16486199Y8054298D02*
X16379445Y7967739D01*
X16379445Y7967739D02*
X16333112Y7909354D01*
X16333112Y7909354D02*
X16300866Y7820759D01*
X16300866Y7820759D02*
X16312918Y7716041D01*
X16312918Y7716041D02*
X16383354Y7564989D01*
D11*
X17188907Y11713540D02*
X17079559Y11610009D01*
X17079559Y11610009D02*
X17056526Y11546726D01*
X17056526Y11546726D02*
X17053618Y11440287D01*
X17053618Y11440287D02*
X17113992Y11310814D01*
X17113992Y11310814D02*
X17197399Y11244624D01*
X17197399Y11244624D02*
X17260681Y11221591D01*
X17260681Y11221591D02*
X17367121Y11218683D01*
X17367121Y11218683D02*
X17712381Y11379680D01*
X17712381Y11379680D02*
X17289762Y12285988D01*
X17289762Y12285988D02*
X16987660Y12145115D01*
X16987660Y12145115D02*
X16921469Y12061708D01*
X16921469Y12061708D02*
X16898437Y11998426D01*
X16898437Y11998426D02*
X16895528Y11891986D01*
X16895528Y11891986D02*
X16935778Y11805671D01*
X16935778Y11805671D02*
X17019185Y11739481D01*
X17019185Y11739481D02*
X17082467Y11716448D01*
X17082467Y11716448D02*
X17188907Y11713540D01*
X17188907Y11713540D02*
X17491009Y11854413D01*
X26643290Y15202184D02*
X26744146Y15774632D01*
X27161181Y15443680D02*
X26738562Y16349988D01*
X26738562Y16349988D02*
X26393302Y16188991D01*
X26393302Y16188991D02*
X26327112Y16105584D01*
X26327112Y16105584D02*
X26304079Y16042301D01*
X26304079Y16042301D02*
X26301171Y15935862D01*
X26301171Y15935862D02*
X26361545Y15806389D01*
X26361545Y15806389D02*
X26444952Y15740199D01*
X26444952Y15740199D02*
X26508234Y15717166D01*
X26508234Y15717166D02*
X26614674Y15714258D01*
X26614674Y15714258D02*
X26959934Y15875255D01*
X21661154Y14002659D02*
X21727345Y14086066D01*
X21727345Y14086066D02*
X21856817Y14146440D01*
X21856817Y14146440D02*
X22006415Y14163656D01*
X22006415Y14163656D02*
X22132979Y14117591D01*
X22132979Y14117591D02*
X22216386Y14051400D01*
X22216386Y14051400D02*
X22340042Y13898895D01*
X22340042Y13898895D02*
X22400416Y13769422D01*
X22400416Y13769422D02*
X22437757Y13576668D01*
X22437757Y13576668D02*
X22434849Y13470228D01*
X22434849Y13470228D02*
X22388783Y13343664D01*
X22388783Y13343664D02*
X22279436Y13240132D01*
X22279436Y13240132D02*
X22193121Y13199883D01*
X22193121Y13199883D02*
X22043523Y13182666D01*
X22043523Y13182666D02*
X21980241Y13205699D01*
X21980241Y13205699D02*
X21839368Y13507802D01*
X21839368Y13507802D02*
X22011998Y13588300D01*
D10*
X4264066Y1720323D02*
X4264066Y2053656D01*
X4064066Y1653656D02*
X4764066Y1886989D01*
X4764066Y1886989D02*
X4064066Y2120323D01*
X4764066Y2353656D02*
X4197400Y2353656D01*
X4197400Y2353656D02*
X4130733Y2386989D01*
X4130733Y2386989D02*
X4097400Y2420323D01*
X4097400Y2420323D02*
X4064066Y2486989D01*
X4064066Y2486989D02*
X4064066Y2620323D01*
X4064066Y2620323D02*
X4097400Y2686989D01*
X4097400Y2686989D02*
X4130733Y2720323D01*
X4130733Y2720323D02*
X4197400Y2753656D01*
X4197400Y2753656D02*
X4764066Y2753656D01*
X4064066Y3086989D02*
X4764066Y3086989D01*
X4764066Y3086989D02*
X4764066Y3253656D01*
X4764066Y3253656D02*
X4730733Y3353656D01*
X4730733Y3353656D02*
X4664066Y3420322D01*
X4664066Y3420322D02*
X4597400Y3453656D01*
X4597400Y3453656D02*
X4464066Y3486989D01*
X4464066Y3486989D02*
X4364066Y3486989D01*
X4364066Y3486989D02*
X4230733Y3453656D01*
X4230733Y3453656D02*
X4164066Y3420322D01*
X4164066Y3420322D02*
X4097400Y3353656D01*
X4097400Y3353656D02*
X4064066Y3253656D01*
X4064066Y3253656D02*
X4064066Y3086989D01*
X4064066Y3786989D02*
X4764066Y3786989D01*
X4764066Y4253655D02*
X4764066Y4386989D01*
X4764066Y4386989D02*
X4730733Y4453655D01*
X4730733Y4453655D02*
X4664066Y4520322D01*
X4664066Y4520322D02*
X4530733Y4553655D01*
X4530733Y4553655D02*
X4297400Y4553655D01*
X4297400Y4553655D02*
X4164066Y4520322D01*
X4164066Y4520322D02*
X4097400Y4453655D01*
X4097400Y4453655D02*
X4064066Y4386989D01*
X4064066Y4386989D02*
X4064066Y4253655D01*
X4064066Y4253655D02*
X4097400Y4186989D01*
X4097400Y4186989D02*
X4164066Y4120322D01*
X4164066Y4120322D02*
X4297400Y4086989D01*
X4297400Y4086989D02*
X4530733Y4086989D01*
X4530733Y4086989D02*
X4664066Y4120322D01*
X4664066Y4120322D02*
X4730733Y4186989D01*
X4730733Y4186989D02*
X4764066Y4253655D01*
D12*
X4582800Y708400D02*
X4074800Y1064000D01*
X4582800Y1419600D01*
X4582800Y708400D01*
G36*
X4582800Y708400D02*
G01*
X4074800Y1064000D01*
X4582800Y1419600D01*
X4582800Y708400D01*
G37*
D10*
X11666600Y1872723D02*
X11633266Y1972723D01*
X11633266Y1972723D02*
X11633266Y2139389D01*
X11633266Y2139389D02*
X11666600Y2206056D01*
X11666600Y2206056D02*
X11699933Y2239389D01*
X11699933Y2239389D02*
X11766600Y2272723D01*
X11766600Y2272723D02*
X11833266Y2272723D01*
X11833266Y2272723D02*
X11899933Y2239389D01*
X11899933Y2239389D02*
X11933266Y2206056D01*
X11933266Y2206056D02*
X11966600Y2139389D01*
X11966600Y2139389D02*
X11999933Y2006056D01*
X11999933Y2006056D02*
X12033266Y1939389D01*
X12033266Y1939389D02*
X12066600Y1906056D01*
X12066600Y1906056D02*
X12133266Y1872723D01*
X12133266Y1872723D02*
X12199933Y1872723D01*
X12199933Y1872723D02*
X12266600Y1906056D01*
X12266600Y1906056D02*
X12299933Y1939389D01*
X12299933Y1939389D02*
X12333266Y2006056D01*
X12333266Y2006056D02*
X12333266Y2172723D01*
X12333266Y2172723D02*
X12299933Y2272723D01*
X11966600Y2706056D02*
X11633266Y2706056D01*
X12333266Y2472723D02*
X11966600Y2706056D01*
X11966600Y2706056D02*
X12333266Y2939390D01*
X11633266Y3172723D02*
X12333266Y3172723D01*
X12333266Y3172723D02*
X11633266Y3572723D01*
X11633266Y3572723D02*
X12333266Y3572723D01*
X11699933Y4306056D02*
X11666600Y4272723D01*
X11666600Y4272723D02*
X11633266Y4172723D01*
X11633266Y4172723D02*
X11633266Y4106056D01*
X11633266Y4106056D02*
X11666600Y4006056D01*
X11666600Y4006056D02*
X11733266Y3939389D01*
X11733266Y3939389D02*
X11799933Y3906056D01*
X11799933Y3906056D02*
X11933266Y3872723D01*
X11933266Y3872723D02*
X12033266Y3872723D01*
X12033266Y3872723D02*
X12166600Y3906056D01*
X12166600Y3906056D02*
X12233266Y3939389D01*
X12233266Y3939389D02*
X12299933Y4006056D01*
X12299933Y4006056D02*
X12333266Y4106056D01*
X12333266Y4106056D02*
X12333266Y4172723D01*
X12333266Y4172723D02*
X12299933Y4272723D01*
X12299933Y4272723D02*
X12266600Y4306056D01*
D12*
X12152000Y860800D02*
X11644000Y1216400D01*
X12152000Y1572000D01*
X12152000Y860800D01*
G36*
X12152000Y860800D02*
G01*
X11644000Y1216400D01*
X12152000Y1572000D01*
X12152000Y860800D01*
G37*
D10*
X8591533Y2171123D02*
X8624866Y2104456D01*
X8624866Y2104456D02*
X8624866Y2004456D01*
X8624866Y2004456D02*
X8591533Y1904456D01*
X8591533Y1904456D02*
X8524866Y1837789D01*
X8524866Y1837789D02*
X8458200Y1804456D01*
X8458200Y1804456D02*
X8324866Y1771123D01*
X8324866Y1771123D02*
X8224866Y1771123D01*
X8224866Y1771123D02*
X8091533Y1804456D01*
X8091533Y1804456D02*
X8024866Y1837789D01*
X8024866Y1837789D02*
X7958200Y1904456D01*
X7958200Y1904456D02*
X7924866Y2004456D01*
X7924866Y2004456D02*
X7924866Y2071123D01*
X7924866Y2071123D02*
X7958200Y2171123D01*
X7958200Y2171123D02*
X7991533Y2204456D01*
X7991533Y2204456D02*
X8224866Y2204456D01*
X8224866Y2204456D02*
X8224866Y2071123D01*
X7924866Y2504456D02*
X8624866Y2504456D01*
X8624866Y2504456D02*
X7924866Y2904456D01*
X7924866Y2904456D02*
X8624866Y2904456D01*
X7924866Y3237789D02*
X8624866Y3237789D01*
X8624866Y3237789D02*
X8624866Y3404456D01*
X8624866Y3404456D02*
X8591533Y3504456D01*
X8591533Y3504456D02*
X8524866Y3571122D01*
X8524866Y3571122D02*
X8458200Y3604456D01*
X8458200Y3604456D02*
X8324866Y3637789D01*
X8324866Y3637789D02*
X8224866Y3637789D01*
X8224866Y3637789D02*
X8091533Y3604456D01*
X8091533Y3604456D02*
X8024866Y3571122D01*
X8024866Y3571122D02*
X7958200Y3504456D01*
X7958200Y3504456D02*
X7924866Y3404456D01*
X7924866Y3404456D02*
X7924866Y3237789D01*
D12*
X8443600Y759200D02*
X7935600Y1114800D01*
X8443600Y1470400D01*
X8443600Y759200D01*
G36*
X8443600Y759200D02*
G01*
X7935600Y1114800D01*
X8443600Y1470400D01*
X8443600Y759200D01*
G37*
D10*
X35142733Y2526723D02*
X35176066Y2460056D01*
X35176066Y2460056D02*
X35176066Y2360056D01*
X35176066Y2360056D02*
X35142733Y2260056D01*
X35142733Y2260056D02*
X35076066Y2193389D01*
X35076066Y2193389D02*
X35009400Y2160056D01*
X35009400Y2160056D02*
X34876066Y2126723D01*
X34876066Y2126723D02*
X34776066Y2126723D01*
X34776066Y2126723D02*
X34642733Y2160056D01*
X34642733Y2160056D02*
X34576066Y2193389D01*
X34576066Y2193389D02*
X34509400Y2260056D01*
X34509400Y2260056D02*
X34476066Y2360056D01*
X34476066Y2360056D02*
X34476066Y2426723D01*
X34476066Y2426723D02*
X34509400Y2526723D01*
X34509400Y2526723D02*
X34542733Y2560056D01*
X34542733Y2560056D02*
X34776066Y2560056D01*
X34776066Y2560056D02*
X34776066Y2426723D01*
X34476066Y2860056D02*
X35176066Y2860056D01*
X35176066Y2860056D02*
X34476066Y3260056D01*
X34476066Y3260056D02*
X35176066Y3260056D01*
X34476066Y3593389D02*
X35176066Y3593389D01*
X35176066Y3593389D02*
X35176066Y3760056D01*
X35176066Y3760056D02*
X35142733Y3860056D01*
X35142733Y3860056D02*
X35076066Y3926722D01*
X35076066Y3926722D02*
X35009400Y3960056D01*
X35009400Y3960056D02*
X34876066Y3993389D01*
X34876066Y3993389D02*
X34776066Y3993389D01*
X34776066Y3993389D02*
X34642733Y3960056D01*
X34642733Y3960056D02*
X34576066Y3926722D01*
X34576066Y3926722D02*
X34509400Y3860056D01*
X34509400Y3860056D02*
X34476066Y3760056D01*
X34476066Y3760056D02*
X34476066Y3593389D01*
D12*
X34994800Y1114800D02*
X34486800Y1470400D01*
X34994800Y1826000D01*
X34994800Y1114800D01*
G36*
X34994800Y1114800D02*
G01*
X34486800Y1470400D01*
X34994800Y1826000D01*
X34994800Y1114800D01*
G37*
D10*
X35025265Y7305146D02*
X35429410Y7538480D01*
X35313940Y7471813D02*
X35355008Y7534014D01*
X35355008Y7534014D02*
X35367209Y7579548D01*
X35367209Y7579548D02*
X35362743Y7653950D01*
X35362743Y7653950D02*
X35329410Y7711685D01*
X34704132Y7928031D02*
X34708598Y7853629D01*
X34708598Y7853629D02*
X34775265Y7738159D01*
X34775265Y7738159D02*
X34837466Y7697090D01*
X34837466Y7697090D02*
X34911867Y7701556D01*
X34911867Y7701556D02*
X35142807Y7834890D01*
X35142807Y7834890D02*
X35183876Y7897090D01*
X35183876Y7897090D02*
X35179410Y7971492D01*
X35179410Y7971492D02*
X35112743Y8086962D01*
X35112743Y8086962D02*
X35050542Y8128031D01*
X35050542Y8128031D02*
X34976141Y8123565D01*
X34976141Y8123565D02*
X34918406Y8090231D01*
X34918406Y8090231D02*
X35027337Y7768223D01*
X34946077Y8375637D02*
X34458598Y8286642D01*
X34458598Y8286642D02*
X34779410Y8664312D01*
X34058598Y8979462D02*
X34258598Y8633051D01*
X34158598Y8806256D02*
X34764816Y9156256D01*
X34764816Y9156256D02*
X34711547Y9048521D01*
X34711547Y9048521D02*
X34687145Y8957453D01*
X34687145Y8957453D02*
X34691611Y8883051D01*
D11*
X36118532Y7414125D02*
X36975700Y7929163D01*
X36975700Y7929163D02*
X36779495Y8255703D01*
X36779495Y8255703D02*
X36689626Y8312812D01*
X36689626Y8312812D02*
X36624283Y8329104D01*
X36624283Y8329104D02*
X36518122Y8320870D01*
X36518122Y8320870D02*
X36395670Y8247293D01*
X36395670Y8247293D02*
X36338560Y8157425D01*
X36338560Y8157425D02*
X36322268Y8092082D01*
X36322268Y8092082D02*
X36330502Y7985921D01*
X36330502Y7985921D02*
X36526707Y7659381D01*
X36403552Y8696461D02*
X36419844Y8761805D01*
X36419844Y8761805D02*
X36411610Y8867965D01*
X36411610Y8867965D02*
X36288982Y9072053D01*
X36288982Y9072053D02*
X36199113Y9129162D01*
X36199113Y9129162D02*
X36133770Y9145454D01*
X36133770Y9145454D02*
X36027610Y9137220D01*
X36027610Y9137220D02*
X35945975Y9088169D01*
X35945975Y9088169D02*
X35848048Y8973774D01*
X35848048Y8973774D02*
X35652545Y8189657D01*
X35652545Y8189657D02*
X35333712Y8720284D01*
X35872046Y9765950D02*
X35822995Y9847585D01*
X35822995Y9847585D02*
X35733127Y9904694D01*
X35733127Y9904694D02*
X35667783Y9920986D01*
X35667783Y9920986D02*
X35561623Y9912752D01*
X35561623Y9912752D02*
X35373827Y9855467D01*
X35373827Y9855467D02*
X35169740Y9732839D01*
X35169740Y9732839D02*
X35030995Y9593919D01*
X35030995Y9593919D02*
X34973886Y9504051D01*
X34973886Y9504051D02*
X34957594Y9438707D01*
X34957594Y9438707D02*
X34965828Y9332547D01*
X34965828Y9332547D02*
X35014879Y9250912D01*
X35014879Y9250912D02*
X35104748Y9193803D01*
X35104748Y9193803D02*
X35170091Y9177511D01*
X35170091Y9177511D02*
X35276252Y9185744D01*
X35276252Y9185744D02*
X35464047Y9243029D01*
X35464047Y9243029D02*
X35668135Y9365658D01*
X35668135Y9365658D02*
X35806879Y9504578D01*
X35806879Y9504578D02*
X35863988Y9594446D01*
X35863988Y9594446D02*
X35880280Y9659789D01*
X35880280Y9659789D02*
X35872046Y9765950D01*
X35381534Y10582300D02*
X35332483Y10663935D01*
X35332483Y10663935D02*
X35242614Y10721044D01*
X35242614Y10721044D02*
X35177271Y10737336D01*
X35177271Y10737336D02*
X35071110Y10729102D01*
X35071110Y10729102D02*
X34883315Y10671817D01*
X34883315Y10671817D02*
X34679227Y10549189D01*
X34679227Y10549189D02*
X34540483Y10410269D01*
X34540483Y10410269D02*
X34483374Y10320400D01*
X34483374Y10320400D02*
X34467082Y10255057D01*
X34467082Y10255057D02*
X34475315Y10148897D01*
X34475315Y10148897D02*
X34524367Y10067262D01*
X34524367Y10067262D02*
X34614235Y10010152D01*
X34614235Y10010152D02*
X34679579Y9993861D01*
X34679579Y9993861D02*
X34785739Y10002094D01*
X34785739Y10002094D02*
X34973535Y10059379D01*
X34973535Y10059379D02*
X35177622Y10182007D01*
X35177622Y10182007D02*
X35316367Y10320927D01*
X35316367Y10320927D02*
X35373476Y10410796D01*
X35373476Y10410796D02*
X35389768Y10476139D01*
X35389768Y10476139D02*
X35381534Y10582300D01*
X34891022Y11398650D02*
X34841970Y11480285D01*
X34841970Y11480285D02*
X34752102Y11537394D01*
X34752102Y11537394D02*
X34686758Y11553686D01*
X34686758Y11553686D02*
X34580598Y11545452D01*
X34580598Y11545452D02*
X34392802Y11488167D01*
X34392802Y11488167D02*
X34188715Y11365539D01*
X34188715Y11365539D02*
X34049970Y11226619D01*
X34049970Y11226619D02*
X33992861Y11136750D01*
X33992861Y11136750D02*
X33976569Y11071407D01*
X33976569Y11071407D02*
X33984803Y10965247D01*
X33984803Y10965247D02*
X34033854Y10883612D01*
X34033854Y10883612D02*
X34123723Y10826502D01*
X34123723Y10826502D02*
X34189066Y10810210D01*
X34189066Y10810210D02*
X34295227Y10818444D01*
X34295227Y10818444D02*
X34483022Y10875729D01*
X34483022Y10875729D02*
X34687110Y10998357D01*
X34687110Y10998357D02*
X34825854Y11137277D01*
X34825854Y11137277D02*
X34882963Y11227146D01*
X34882963Y11227146D02*
X34899255Y11292489D01*
X34899255Y11292489D02*
X34891022Y11398650D01*
X34572188Y11929277D02*
X34277881Y12419087D01*
X33567867Y11659144D02*
X34425035Y12174182D01*
X32921967Y12826560D02*
X32807573Y12924487D01*
X32807573Y12924487D02*
X32684945Y13128574D01*
X32684945Y13128574D02*
X32676711Y13234735D01*
X32676711Y13234735D02*
X32693003Y13300078D01*
X32693003Y13300078D02*
X32750112Y13389946D01*
X32750112Y13389946D02*
X32831747Y13438998D01*
X32831747Y13438998D02*
X32937908Y13447231D01*
X32937908Y13447231D02*
X33003251Y13430940D01*
X33003251Y13430940D02*
X33093120Y13373830D01*
X33093120Y13373830D02*
X33232040Y13235086D01*
X33232040Y13235086D02*
X33321908Y13177977D01*
X33321908Y13177977D02*
X33387251Y13161685D01*
X33387251Y13161685D02*
X33493412Y13169918D01*
X33493412Y13169918D02*
X33575047Y13218970D01*
X33575047Y13218970D02*
X33632156Y13308838D01*
X33632156Y13308838D02*
X33648448Y13374182D01*
X33648448Y13374182D02*
X33640215Y13480342D01*
X33640215Y13480342D02*
X33517586Y13684430D01*
X33517586Y13684430D02*
X33403192Y13782356D01*
X32153439Y14198063D02*
X32137147Y14132719D01*
X32137147Y14132719D02*
X32169907Y13985741D01*
X32169907Y13985741D02*
X32218958Y13904106D01*
X32218958Y13904106D02*
X32333352Y13806180D01*
X32333352Y13806180D02*
X32464038Y13773596D01*
X32464038Y13773596D02*
X32570199Y13781830D01*
X32570199Y13781830D02*
X32757995Y13839115D01*
X32757995Y13839115D02*
X32880447Y13912691D01*
X32880447Y13912691D02*
X33019191Y14051611D01*
X33019191Y14051611D02*
X33076301Y14141480D01*
X33076301Y14141480D02*
X33108885Y14272166D01*
X33108885Y14272166D02*
X33076125Y14419144D01*
X33076125Y14419144D02*
X33027074Y14500779D01*
X33027074Y14500779D02*
X32912680Y14598706D01*
X32912680Y14598706D02*
X32847336Y14614998D01*
X32120504Y14622705D02*
X31875248Y15030880D01*
X31924650Y14393916D02*
X32610138Y15194677D01*
X32610138Y15194677D02*
X31581292Y14965361D01*
X31115305Y15740894D02*
X31695159Y15700427D01*
X31409612Y15251084D02*
X32266780Y15766122D01*
X32266780Y15766122D02*
X32070575Y16092662D01*
X32070575Y16092662D02*
X31980706Y16149771D01*
X31980706Y16149771D02*
X31915363Y16166063D01*
X31915363Y16166063D02*
X31809202Y16157829D01*
X31809202Y16157829D02*
X31686750Y16084252D01*
X31686750Y16084252D02*
X31629640Y15994384D01*
X31629640Y15994384D02*
X31613348Y15929040D01*
X31613348Y15929040D02*
X31621582Y15822880D01*
X31621582Y15822880D02*
X31817787Y15496340D01*
X31825318Y16500837D02*
X31531011Y16990647D01*
X30820997Y16230703D02*
X31678165Y16745742D01*
D10*
X261485Y1521125D02*
X223390Y1483029D01*
X223390Y1483029D02*
X185295Y1406839D01*
X185295Y1406839D02*
X185295Y1216363D01*
X185295Y1216363D02*
X223390Y1140172D01*
X223390Y1140172D02*
X261485Y1102077D01*
X261485Y1102077D02*
X337676Y1063982D01*
X337676Y1063982D02*
X413866Y1063982D01*
X413866Y1063982D02*
X528152Y1102077D01*
X528152Y1102077D02*
X985295Y1559220D01*
X985295Y1559220D02*
X985295Y1063982D01*
X185295Y568743D02*
X185295Y492553D01*
X185295Y492553D02*
X223390Y416362D01*
X223390Y416362D02*
X261485Y378267D01*
X261485Y378267D02*
X337676Y340172D01*
X337676Y340172D02*
X490057Y302077D01*
X490057Y302077D02*
X680533Y302077D01*
X680533Y302077D02*
X832914Y340172D01*
X832914Y340172D02*
X909104Y378267D01*
X909104Y378267D02*
X947200Y416362D01*
X947200Y416362D02*
X985295Y492553D01*
X985295Y492553D02*
X985295Y568743D01*
X985295Y568743D02*
X947200Y644934D01*
X947200Y644934D02*
X909104Y683029D01*
X909104Y683029D02*
X832914Y721124D01*
X832914Y721124D02*
X680533Y759220D01*
X680533Y759220D02*
X490057Y759220D01*
X490057Y759220D02*
X337676Y721124D01*
X337676Y721124D02*
X261485Y683029D01*
X261485Y683029D02*
X223390Y644934D01*
X223390Y644934D02*
X185295Y568743D01*
X39202971Y1016515D02*
X39164875Y1054610D01*
X39164875Y1054610D02*
X39088685Y1092705D01*
X39088685Y1092705D02*
X38898209Y1092705D01*
X38898209Y1092705D02*
X38822018Y1054610D01*
X38822018Y1054610D02*
X38783923Y1016515D01*
X38783923Y1016515D02*
X38745828Y940324D01*
X38745828Y940324D02*
X38745828Y864134D01*
X38745828Y864134D02*
X38783923Y749848D01*
X38783923Y749848D02*
X39241066Y292705D01*
X39241066Y292705D02*
X38745828Y292705D01*
%TO.C,LOGO1*%
D13*
X10297941Y6887118D02*
X10329774Y6874642D01*
X10366743Y6857798D01*
X10366743Y6371204D01*
X10320812Y6325273D01*
X10310320Y6314973D01*
X10281255Y6292080D01*
X10251943Y6284665D01*
X10208326Y6288079D01*
X10190568Y6290286D01*
X10144767Y6294955D01*
X10112743Y6296815D01*
X10103244Y6296531D01*
X10064274Y6293452D01*
X10017160Y6288079D01*
X10002085Y6286232D01*
X9964110Y6285507D01*
X9936325Y6296971D01*
X9904674Y6325273D01*
X9858743Y6371204D01*
X9858743Y6631345D01*
X9859101Y6708220D01*
X9860216Y6781514D01*
X9861952Y6839550D01*
X9864167Y6877737D01*
X9866721Y6891486D01*
X9867256Y6891449D01*
X9885808Y6884607D01*
X9917153Y6869532D01*
X9959608Y6847578D01*
X9963604Y6619160D01*
X9967600Y6390743D01*
X10054686Y6390743D01*
X10058657Y6641114D01*
X10059916Y6709173D01*
X10061718Y6781918D01*
X10063671Y6839670D01*
X10065612Y6877752D01*
X10067377Y6891486D01*
X10067885Y6891438D01*
X10085482Y6886385D01*
X10117834Y6875551D01*
X10163543Y6859617D01*
X10163765Y6639694D01*
X10163988Y6601491D01*
X10165531Y6527254D01*
X10168292Y6465255D01*
X10171977Y6421092D01*
X10176292Y6400359D01*
X10191732Y6389269D01*
X10223241Y6385844D01*
X10257886Y6390743D01*
X10261857Y6641114D01*
X10263278Y6704737D01*
X10266225Y6780044D01*
X10270079Y6839114D01*
X10274542Y6877682D01*
X10279317Y6891486D01*
X10297941Y6887118D01*
G36*
X10297941Y6887118D02*
G01*
X10329774Y6874642D01*
X10366743Y6857798D01*
X10366743Y6371204D01*
X10320812Y6325273D01*
X10310320Y6314973D01*
X10281255Y6292080D01*
X10251943Y6284665D01*
X10208326Y6288079D01*
X10190568Y6290286D01*
X10144767Y6294955D01*
X10112743Y6296815D01*
X10103244Y6296531D01*
X10064274Y6293452D01*
X10017160Y6288079D01*
X10002085Y6286232D01*
X9964110Y6285507D01*
X9936325Y6296971D01*
X9904674Y6325273D01*
X9858743Y6371204D01*
X9858743Y6631345D01*
X9859101Y6708220D01*
X9860216Y6781514D01*
X9861952Y6839550D01*
X9864167Y6877737D01*
X9866721Y6891486D01*
X9867256Y6891449D01*
X9885808Y6884607D01*
X9917153Y6869532D01*
X9959608Y6847578D01*
X9963604Y6619160D01*
X9967600Y6390743D01*
X10054686Y6390743D01*
X10058657Y6641114D01*
X10059916Y6709173D01*
X10061718Y6781918D01*
X10063671Y6839670D01*
X10065612Y6877752D01*
X10067377Y6891486D01*
X10067885Y6891438D01*
X10085482Y6886385D01*
X10117834Y6875551D01*
X10163543Y6859617D01*
X10163765Y6639694D01*
X10163988Y6601491D01*
X10165531Y6527254D01*
X10168292Y6465255D01*
X10171977Y6421092D01*
X10176292Y6400359D01*
X10191732Y6389269D01*
X10223241Y6385844D01*
X10257886Y6390743D01*
X10261857Y6641114D01*
X10263278Y6704737D01*
X10266225Y6780044D01*
X10270079Y6839114D01*
X10274542Y6877682D01*
X10279317Y6891486D01*
X10297941Y6887118D01*
G37*
X14909714Y6601200D02*
X14909701Y6585465D01*
X14908914Y6515281D01*
X14906210Y6466378D01*
X14900606Y6432222D01*
X14891119Y6406276D01*
X14876768Y6382003D01*
X14873237Y6376967D01*
X14835878Y6337257D01*
X14793311Y6307308D01*
X14771452Y6297590D01*
X14692908Y6281380D01*
X14615231Y6291865D01*
X14543645Y6327693D01*
X14483374Y6387513D01*
X14478286Y6395527D01*
X14461730Y6442058D01*
X14450573Y6506848D01*
X14445160Y6581673D01*
X14445768Y6650887D01*
X14592248Y6650887D01*
X14593402Y6555001D01*
X14593866Y6548831D01*
X14600629Y6495922D01*
X14612671Y6462371D01*
X14633005Y6439384D01*
X14667097Y6417852D01*
X14700814Y6416720D01*
X14735543Y6441543D01*
X14741584Y6448075D01*
X14753417Y6467621D01*
X14760404Y6496014D01*
X14763727Y6539970D01*
X14764571Y6606208D01*
X14763125Y6668250D01*
X14755907Y6727358D01*
X14741006Y6764714D01*
X14716636Y6784248D01*
X14681008Y6789886D01*
X14667440Y6788765D01*
X14629430Y6768206D01*
X14604312Y6722101D01*
X14592248Y6650887D01*
X14445768Y6650887D01*
X14445833Y6658304D01*
X14452937Y6728518D01*
X14466815Y6784088D01*
X14484649Y6821099D01*
X14534855Y6878667D01*
X14602885Y6914438D01*
X14686158Y6926735D01*
X14708398Y6926069D01*
X14773891Y6912453D01*
X14827687Y6878151D01*
X14877057Y6819062D01*
X14879995Y6814678D01*
X14893287Y6791101D01*
X14901932Y6764451D01*
X14906904Y6728241D01*
X14909174Y6675987D01*
X14909678Y6606208D01*
X14909714Y6601200D01*
G36*
X14909714Y6601200D02*
G01*
X14909701Y6585465D01*
X14908914Y6515281D01*
X14906210Y6466378D01*
X14900606Y6432222D01*
X14891119Y6406276D01*
X14876768Y6382003D01*
X14873237Y6376967D01*
X14835878Y6337257D01*
X14793311Y6307308D01*
X14771452Y6297590D01*
X14692908Y6281380D01*
X14615231Y6291865D01*
X14543645Y6327693D01*
X14483374Y6387513D01*
X14478286Y6395527D01*
X14461730Y6442058D01*
X14450573Y6506848D01*
X14445160Y6581673D01*
X14445768Y6650887D01*
X14592248Y6650887D01*
X14593402Y6555001D01*
X14593866Y6548831D01*
X14600629Y6495922D01*
X14612671Y6462371D01*
X14633005Y6439384D01*
X14667097Y6417852D01*
X14700814Y6416720D01*
X14735543Y6441543D01*
X14741584Y6448075D01*
X14753417Y6467621D01*
X14760404Y6496014D01*
X14763727Y6539970D01*
X14764571Y6606208D01*
X14763125Y6668250D01*
X14755907Y6727358D01*
X14741006Y6764714D01*
X14716636Y6784248D01*
X14681008Y6789886D01*
X14667440Y6788765D01*
X14629430Y6768206D01*
X14604312Y6722101D01*
X14592248Y6650887D01*
X14445768Y6650887D01*
X14445833Y6658304D01*
X14452937Y6728518D01*
X14466815Y6784088D01*
X14484649Y6821099D01*
X14534855Y6878667D01*
X14602885Y6914438D01*
X14686158Y6926735D01*
X14708398Y6926069D01*
X14773891Y6912453D01*
X14827687Y6878151D01*
X14877057Y6819062D01*
X14879995Y6814678D01*
X14893287Y6791101D01*
X14901932Y6764451D01*
X14906904Y6728241D01*
X14909174Y6675987D01*
X14909678Y6606208D01*
X14909714Y6601200D01*
G37*
X8784590Y6583778D02*
X8784307Y6545095D01*
X8780762Y6468879D01*
X8771483Y6413106D01*
X8754375Y6371787D01*
X8727344Y6338933D01*
X8688292Y6308554D01*
X8663445Y6294740D01*
X8623615Y6285435D01*
X8567665Y6286170D01*
X8536385Y6289117D01*
X8498653Y6298117D01*
X8468494Y6317680D01*
X8433408Y6354133D01*
X8428720Y6359457D01*
X8397177Y6400431D01*
X8382128Y6436117D01*
X8378286Y6478434D01*
X8378286Y6540621D01*
X8421742Y6524218D01*
X8453424Y6505044D01*
X8480962Y6460053D01*
X8486711Y6445648D01*
X8518855Y6404854D01*
X8562611Y6384319D01*
X8610254Y6386165D01*
X8654057Y6412514D01*
X8669111Y6428945D01*
X8682763Y6453733D01*
X8678493Y6476256D01*
X8653916Y6499436D01*
X8606651Y6526198D01*
X8534314Y6559466D01*
X8385543Y6624584D01*
X8381595Y6689092D01*
X8383079Y6730180D01*
X8480010Y6730180D01*
X8487368Y6704743D01*
X8520848Y6677586D01*
X8581614Y6646686D01*
X8591669Y6642210D01*
X8639751Y6621383D01*
X8675726Y6606735D01*
X8692444Y6601200D01*
X8694977Y6605274D01*
X8695993Y6630153D01*
X8692369Y6670143D01*
X8683242Y6709248D01*
X8654773Y6758516D01*
X8613678Y6786278D01*
X8564590Y6790036D01*
X8512144Y6767291D01*
X8497609Y6755919D01*
X8480010Y6730180D01*
X8383079Y6730180D01*
X8383338Y6737336D01*
X8405281Y6798304D01*
X8432979Y6831903D01*
X8490405Y6869434D01*
X8558527Y6888394D01*
X8628947Y6886893D01*
X8693267Y6863045D01*
X8707426Y6853887D01*
X8739904Y6825551D01*
X8762116Y6789705D01*
X8775804Y6741016D01*
X8782715Y6674151D01*
X8783628Y6630153D01*
X8784590Y6583778D01*
G36*
X8784590Y6583778D02*
G01*
X8784307Y6545095D01*
X8780762Y6468879D01*
X8771483Y6413106D01*
X8754375Y6371787D01*
X8727344Y6338933D01*
X8688292Y6308554D01*
X8663445Y6294740D01*
X8623615Y6285435D01*
X8567665Y6286170D01*
X8536385Y6289117D01*
X8498653Y6298117D01*
X8468494Y6317680D01*
X8433408Y6354133D01*
X8428720Y6359457D01*
X8397177Y6400431D01*
X8382128Y6436117D01*
X8378286Y6478434D01*
X8378286Y6540621D01*
X8421742Y6524218D01*
X8453424Y6505044D01*
X8480962Y6460053D01*
X8486711Y6445648D01*
X8518855Y6404854D01*
X8562611Y6384319D01*
X8610254Y6386165D01*
X8654057Y6412514D01*
X8669111Y6428945D01*
X8682763Y6453733D01*
X8678493Y6476256D01*
X8653916Y6499436D01*
X8606651Y6526198D01*
X8534314Y6559466D01*
X8385543Y6624584D01*
X8381595Y6689092D01*
X8383079Y6730180D01*
X8480010Y6730180D01*
X8487368Y6704743D01*
X8520848Y6677586D01*
X8581614Y6646686D01*
X8591669Y6642210D01*
X8639751Y6621383D01*
X8675726Y6606735D01*
X8692444Y6601200D01*
X8694977Y6605274D01*
X8695993Y6630153D01*
X8692369Y6670143D01*
X8683242Y6709248D01*
X8654773Y6758516D01*
X8613678Y6786278D01*
X8564590Y6790036D01*
X8512144Y6767291D01*
X8497609Y6755919D01*
X8480010Y6730180D01*
X8383079Y6730180D01*
X8383338Y6737336D01*
X8405281Y6798304D01*
X8432979Y6831903D01*
X8490405Y6869434D01*
X8558527Y6888394D01*
X8628947Y6886893D01*
X8693267Y6863045D01*
X8707426Y6853887D01*
X8739904Y6825551D01*
X8762116Y6789705D01*
X8775804Y6741016D01*
X8782715Y6674151D01*
X8783628Y6630153D01*
X8784590Y6583778D01*
G37*
X13075020Y6918578D02*
X13142810Y6886720D01*
X13198366Y6831630D01*
X13209881Y6814384D01*
X13219432Y6794838D01*
X13226206Y6770202D01*
X13230819Y6735689D01*
X13233888Y6686511D01*
X13236029Y6617881D01*
X13237859Y6525011D01*
X13242404Y6267393D01*
X13204225Y6281909D01*
X13169268Y6295244D01*
X13143097Y6308077D01*
X13126013Y6324620D01*
X13116086Y6349935D01*
X13111386Y6389084D01*
X13109982Y6447132D01*
X13109943Y6529139D01*
X13109744Y6594505D01*
X13108559Y6657227D01*
X13105729Y6700066D01*
X13100609Y6728180D01*
X13092553Y6746725D01*
X13080914Y6760857D01*
X13052303Y6780800D01*
X13004239Y6788317D01*
X12956688Y6769321D01*
X12953550Y6766889D01*
X12943769Y6755652D01*
X12936553Y6737630D01*
X12931299Y6708374D01*
X12927402Y6663438D01*
X12924256Y6598372D01*
X12921257Y6508730D01*
X12914000Y6268703D01*
X12852314Y6296356D01*
X12790629Y6324009D01*
X12790629Y6543154D01*
X12790884Y6602689D01*
X12793086Y6685508D01*
X12798661Y6747173D01*
X12808941Y6792652D01*
X12825258Y6826916D01*
X12848943Y6854934D01*
X12881328Y6881677D01*
X12927907Y6908620D01*
X13001287Y6926209D01*
X13075020Y6918578D01*
G36*
X13075020Y6918578D02*
G01*
X13142810Y6886720D01*
X13198366Y6831630D01*
X13209881Y6814384D01*
X13219432Y6794838D01*
X13226206Y6770202D01*
X13230819Y6735689D01*
X13233888Y6686511D01*
X13236029Y6617881D01*
X13237859Y6525011D01*
X13242404Y6267393D01*
X13204225Y6281909D01*
X13169268Y6295244D01*
X13143097Y6308077D01*
X13126013Y6324620D01*
X13116086Y6349935D01*
X13111386Y6389084D01*
X13109982Y6447132D01*
X13109943Y6529139D01*
X13109744Y6594505D01*
X13108559Y6657227D01*
X13105729Y6700066D01*
X13100609Y6728180D01*
X13092553Y6746725D01*
X13080914Y6760857D01*
X13052303Y6780800D01*
X13004239Y6788317D01*
X12956688Y6769321D01*
X12953550Y6766889D01*
X12943769Y6755652D01*
X12936553Y6737630D01*
X12931299Y6708374D01*
X12927402Y6663438D01*
X12924256Y6598372D01*
X12921257Y6508730D01*
X12914000Y6268703D01*
X12852314Y6296356D01*
X12790629Y6324009D01*
X12790629Y6543154D01*
X12790884Y6602689D01*
X12793086Y6685508D01*
X12798661Y6747173D01*
X12808941Y6792652D01*
X12825258Y6826916D01*
X12848943Y6854934D01*
X12881328Y6881677D01*
X12927907Y6908620D01*
X13001287Y6926209D01*
X13075020Y6918578D01*
G37*
X9126829Y6885303D02*
X9186753Y6863045D01*
X9211673Y6846320D01*
X9236910Y6822357D01*
X9254912Y6791874D01*
X9266858Y6750377D01*
X9273930Y6693368D01*
X9277308Y6616353D01*
X9278171Y6514835D01*
X9278002Y6462373D01*
X9277153Y6390685D01*
X9275711Y6333475D01*
X9273814Y6295591D01*
X9271597Y6281886D01*
X9257172Y6286419D01*
X9228054Y6298730D01*
X9227181Y6299128D01*
X9212060Y6307044D01*
X9201891Y6317905D01*
X9195691Y6336929D01*
X9192478Y6369331D01*
X9191270Y6420329D01*
X9191086Y6495139D01*
X9190714Y6542596D01*
X9186750Y6631785D01*
X9177673Y6697113D01*
X9162524Y6742007D01*
X9140345Y6769893D01*
X9110175Y6784197D01*
X9105990Y6785194D01*
X9049480Y6785973D01*
X9005410Y6760656D01*
X8974972Y6709898D01*
X8969544Y6695225D01*
X8957171Y6662751D01*
X8950905Y6647828D01*
X8938036Y6649884D01*
X8909933Y6661043D01*
X8883721Y6679473D01*
X8871771Y6714302D01*
X8875336Y6739249D01*
X8897235Y6789853D01*
X8932644Y6837272D01*
X8974052Y6870066D01*
X8991400Y6877648D01*
X9057089Y6890324D01*
X9126829Y6885303D01*
G36*
X9126829Y6885303D02*
G01*
X9186753Y6863045D01*
X9211673Y6846320D01*
X9236910Y6822357D01*
X9254912Y6791874D01*
X9266858Y6750377D01*
X9273930Y6693368D01*
X9277308Y6616353D01*
X9278171Y6514835D01*
X9278002Y6462373D01*
X9277153Y6390685D01*
X9275711Y6333475D01*
X9273814Y6295591D01*
X9271597Y6281886D01*
X9257172Y6286419D01*
X9228054Y6298730D01*
X9227181Y6299128D01*
X9212060Y6307044D01*
X9201891Y6317905D01*
X9195691Y6336929D01*
X9192478Y6369331D01*
X9191270Y6420329D01*
X9191086Y6495139D01*
X9190714Y6542596D01*
X9186750Y6631785D01*
X9177673Y6697113D01*
X9162524Y6742007D01*
X9140345Y6769893D01*
X9110175Y6784197D01*
X9105990Y6785194D01*
X9049480Y6785973D01*
X9005410Y6760656D01*
X8974972Y6709898D01*
X8969544Y6695225D01*
X8957171Y6662751D01*
X8950905Y6647828D01*
X8938036Y6649884D01*
X8909933Y6661043D01*
X8883721Y6679473D01*
X8871771Y6714302D01*
X8875336Y6739249D01*
X8897235Y6789853D01*
X8932644Y6837272D01*
X8974052Y6870066D01*
X8991400Y6877648D01*
X9057089Y6890324D01*
X9126829Y6885303D01*
G37*
X10874698Y6586686D02*
X10873537Y6530087D01*
X10865345Y6452938D01*
X10847519Y6395124D01*
X10817975Y6350978D01*
X10774625Y6314832D01*
X10733332Y6293937D01*
X10663987Y6282310D01*
X10594736Y6295023D01*
X10532145Y6330455D01*
X10482779Y6386982D01*
X10476818Y6397405D01*
X10468945Y6415667D01*
X10463106Y6438971D01*
X10458999Y6471315D01*
X10456325Y6516696D01*
X10454781Y6579113D01*
X10454734Y6584652D01*
X10555429Y6584652D01*
X10555772Y6531823D01*
X10557942Y6484038D01*
X10563307Y6453191D01*
X10573217Y6432465D01*
X10589021Y6415044D01*
X10592724Y6411695D01*
X10640299Y6386981D01*
X10690635Y6389510D01*
X10737517Y6419112D01*
X10751477Y6434447D01*
X10763160Y6454778D01*
X10769686Y6482886D01*
X10772524Y6525850D01*
X10773143Y6590753D01*
X10772837Y6640278D01*
X10770722Y6688618D01*
X10765390Y6719813D01*
X10755460Y6740753D01*
X10739550Y6758327D01*
X10730204Y6766241D01*
X10681776Y6787557D01*
X10631040Y6784202D01*
X10586987Y6756293D01*
X10577504Y6745227D01*
X10565939Y6724391D01*
X10559252Y6695294D01*
X10556173Y6651019D01*
X10555429Y6584652D01*
X10454734Y6584652D01*
X10454067Y6662563D01*
X10453883Y6771042D01*
X10453829Y7107799D01*
X10501000Y7088038D01*
X10513472Y7082630D01*
X10533324Y7070415D01*
X10544687Y7051918D01*
X10550933Y7019571D01*
X10555429Y6965807D01*
X10559535Y6917534D01*
X10564963Y6885843D01*
X10572739Y6874017D01*
X10584457Y6877188D01*
X10614318Y6888333D01*
X10667684Y6891096D01*
X10725093Y6880775D01*
X10774625Y6858539D01*
X10801876Y6837957D01*
X10836865Y6797800D01*
X10859274Y6746314D01*
X10871190Y6677832D01*
X10874542Y6590753D01*
X10874698Y6586686D01*
G36*
X10874698Y6586686D02*
G01*
X10873537Y6530087D01*
X10865345Y6452938D01*
X10847519Y6395124D01*
X10817975Y6350978D01*
X10774625Y6314832D01*
X10733332Y6293937D01*
X10663987Y6282310D01*
X10594736Y6295023D01*
X10532145Y6330455D01*
X10482779Y6386982D01*
X10476818Y6397405D01*
X10468945Y6415667D01*
X10463106Y6438971D01*
X10458999Y6471315D01*
X10456325Y6516696D01*
X10454781Y6579113D01*
X10454734Y6584652D01*
X10555429Y6584652D01*
X10555772Y6531823D01*
X10557942Y6484038D01*
X10563307Y6453191D01*
X10573217Y6432465D01*
X10589021Y6415044D01*
X10592724Y6411695D01*
X10640299Y6386981D01*
X10690635Y6389510D01*
X10737517Y6419112D01*
X10751477Y6434447D01*
X10763160Y6454778D01*
X10769686Y6482886D01*
X10772524Y6525850D01*
X10773143Y6590753D01*
X10772837Y6640278D01*
X10770722Y6688618D01*
X10765390Y6719813D01*
X10755460Y6740753D01*
X10739550Y6758327D01*
X10730204Y6766241D01*
X10681776Y6787557D01*
X10631040Y6784202D01*
X10586987Y6756293D01*
X10577504Y6745227D01*
X10565939Y6724391D01*
X10559252Y6695294D01*
X10556173Y6651019D01*
X10555429Y6584652D01*
X10454734Y6584652D01*
X10454067Y6662563D01*
X10453883Y6771042D01*
X10453829Y7107799D01*
X10501000Y7088038D01*
X10513472Y7082630D01*
X10533324Y7070415D01*
X10544687Y7051918D01*
X10550933Y7019571D01*
X10555429Y6965807D01*
X10559535Y6917534D01*
X10564963Y6885843D01*
X10572739Y6874017D01*
X10584457Y6877188D01*
X10614318Y6888333D01*
X10667684Y6891096D01*
X10725093Y6880775D01*
X10774625Y6858539D01*
X10801876Y6837957D01*
X10836865Y6797800D01*
X10859274Y6746314D01*
X10871190Y6677832D01*
X10874542Y6590753D01*
X10874698Y6586686D01*
G37*
X12322543Y7086956D02*
X12369714Y7067058D01*
X12369714Y6669891D01*
X12369519Y6566902D01*
X12368998Y6474259D01*
X12368199Y6395700D01*
X12367172Y6334961D01*
X12365963Y6295777D01*
X12364623Y6281886D01*
X12364099Y6281932D01*
X12346287Y6286980D01*
X12313823Y6297820D01*
X12268114Y6313754D01*
X12268114Y6518227D01*
X12267824Y6598568D01*
X12266474Y6656838D01*
X12263369Y6696491D01*
X12257812Y6722782D01*
X12249107Y6740964D01*
X12236556Y6756293D01*
X12227999Y6764445D01*
X12181728Y6787025D01*
X12130728Y6785025D01*
X12083993Y6758327D01*
X12077189Y6751702D01*
X12066293Y6737944D01*
X12058836Y6719758D01*
X12054169Y6692223D01*
X12051642Y6650419D01*
X12050602Y6589427D01*
X12050400Y6504327D01*
X12050303Y6461166D01*
X12049674Y6390176D01*
X12048556Y6333324D01*
X12047063Y6295572D01*
X12045309Y6281886D01*
X12044785Y6281932D01*
X12026973Y6286980D01*
X11994509Y6297820D01*
X11948800Y6313754D01*
X11948823Y6519163D01*
X11948857Y6537449D01*
X11950778Y6632774D01*
X11956678Y6704857D01*
X11968001Y6758587D01*
X11986187Y6798851D01*
X12012679Y6830539D01*
X12048918Y6858539D01*
X12084263Y6876067D01*
X12140773Y6889615D01*
X12196356Y6890385D01*
X12239086Y6877205D01*
X12242298Y6875385D01*
X12252205Y6875580D01*
X12258975Y6890828D01*
X12263861Y6925787D01*
X12268114Y6985111D01*
X12275371Y7106853D01*
X12322543Y7086956D01*
G36*
X12322543Y7086956D02*
G01*
X12369714Y7067058D01*
X12369714Y6669891D01*
X12369519Y6566902D01*
X12368998Y6474259D01*
X12368199Y6395700D01*
X12367172Y6334961D01*
X12365963Y6295777D01*
X12364623Y6281886D01*
X12364099Y6281932D01*
X12346287Y6286980D01*
X12313823Y6297820D01*
X12268114Y6313754D01*
X12268114Y6518227D01*
X12267824Y6598568D01*
X12266474Y6656838D01*
X12263369Y6696491D01*
X12257812Y6722782D01*
X12249107Y6740964D01*
X12236556Y6756293D01*
X12227999Y6764445D01*
X12181728Y6787025D01*
X12130728Y6785025D01*
X12083993Y6758327D01*
X12077189Y6751702D01*
X12066293Y6737944D01*
X12058836Y6719758D01*
X12054169Y6692223D01*
X12051642Y6650419D01*
X12050602Y6589427D01*
X12050400Y6504327D01*
X12050303Y6461166D01*
X12049674Y6390176D01*
X12048556Y6333324D01*
X12047063Y6295572D01*
X12045309Y6281886D01*
X12044785Y6281932D01*
X12026973Y6286980D01*
X11994509Y6297820D01*
X11948800Y6313754D01*
X11948823Y6519163D01*
X11948857Y6537449D01*
X11950778Y6632774D01*
X11956678Y6704857D01*
X11968001Y6758587D01*
X11986187Y6798851D01*
X12012679Y6830539D01*
X12048918Y6858539D01*
X12084263Y6876067D01*
X12140773Y6889615D01*
X12196356Y6890385D01*
X12239086Y6877205D01*
X12242298Y6875385D01*
X12252205Y6875580D01*
X12258975Y6890828D01*
X12263861Y6925787D01*
X12268114Y6985111D01*
X12275371Y7106853D01*
X12322543Y7086956D01*
G37*
X11733483Y6875831D02*
X11783376Y6846739D01*
X11805325Y6824073D01*
X11847504Y6756318D01*
X11861714Y6682450D01*
X11861714Y6631630D01*
X11814999Y6651272D01*
X11782692Y6671092D01*
X11757231Y6712240D01*
X11754616Y6720725D01*
X11726478Y6763949D01*
X11684067Y6787297D01*
X11635370Y6788300D01*
X11588373Y6764486D01*
X11581357Y6758344D01*
X11557893Y6731655D01*
X11554019Y6708386D01*
X11571768Y6685538D01*
X11613179Y6660113D01*
X11680286Y6629112D01*
X11684824Y6627148D01*
X11759322Y6592410D01*
X11810203Y6561637D01*
X11841525Y6530912D01*
X11857343Y6496318D01*
X11861714Y6453938D01*
X11855986Y6406954D01*
X11827062Y6346815D01*
X11776178Y6303612D01*
X11739374Y6290641D01*
X11687434Y6283544D01*
X11636999Y6285060D01*
X11600983Y6295768D01*
X11597158Y6298434D01*
X11586998Y6317063D01*
X11594048Y6349895D01*
X11606297Y6375665D01*
X11625939Y6386394D01*
X11663191Y6385861D01*
X11714908Y6388938D01*
X11748701Y6410188D01*
X11760114Y6449523D01*
X11760104Y6450653D01*
X11753187Y6473487D01*
X11729659Y6494437D01*
X11683914Y6518585D01*
X11621704Y6547659D01*
X11580499Y6563475D01*
X11556712Y6562456D01*
X11545597Y6541563D01*
X11542408Y6497759D01*
X11542400Y6428007D01*
X11542044Y6384948D01*
X11540413Y6331774D01*
X11537761Y6295378D01*
X11534422Y6281886D01*
X11533530Y6281977D01*
X11514237Y6289290D01*
X11482284Y6304722D01*
X11438124Y6327558D01*
X11443371Y6533322D01*
X11443736Y6546968D01*
X11447904Y6642749D01*
X11455268Y6714938D01*
X11467330Y6768342D01*
X11485593Y6807767D01*
X11511560Y6838020D01*
X11546733Y6863907D01*
X11547384Y6864313D01*
X11604256Y6885432D01*
X11670033Y6889000D01*
X11733483Y6875831D01*
G36*
X11733483Y6875831D02*
G01*
X11783376Y6846739D01*
X11805325Y6824073D01*
X11847504Y6756318D01*
X11861714Y6682450D01*
X11861714Y6631630D01*
X11814999Y6651272D01*
X11782692Y6671092D01*
X11757231Y6712240D01*
X11754616Y6720725D01*
X11726478Y6763949D01*
X11684067Y6787297D01*
X11635370Y6788300D01*
X11588373Y6764486D01*
X11581357Y6758344D01*
X11557893Y6731655D01*
X11554019Y6708386D01*
X11571768Y6685538D01*
X11613179Y6660113D01*
X11680286Y6629112D01*
X11684824Y6627148D01*
X11759322Y6592410D01*
X11810203Y6561637D01*
X11841525Y6530912D01*
X11857343Y6496318D01*
X11861714Y6453938D01*
X11855986Y6406954D01*
X11827062Y6346815D01*
X11776178Y6303612D01*
X11739374Y6290641D01*
X11687434Y6283544D01*
X11636999Y6285060D01*
X11600983Y6295768D01*
X11597158Y6298434D01*
X11586998Y6317063D01*
X11594048Y6349895D01*
X11606297Y6375665D01*
X11625939Y6386394D01*
X11663191Y6385861D01*
X11714908Y6388938D01*
X11748701Y6410188D01*
X11760114Y6449523D01*
X11760104Y6450653D01*
X11753187Y6473487D01*
X11729659Y6494437D01*
X11683914Y6518585D01*
X11621704Y6547659D01*
X11580499Y6563475D01*
X11556712Y6562456D01*
X11545597Y6541563D01*
X11542408Y6497759D01*
X11542400Y6428007D01*
X11542044Y6384948D01*
X11540413Y6331774D01*
X11537761Y6295378D01*
X11534422Y6281886D01*
X11533530Y6281977D01*
X11514237Y6289290D01*
X11482284Y6304722D01*
X11438124Y6327558D01*
X11443371Y6533322D01*
X11443736Y6546968D01*
X11447904Y6642749D01*
X11455268Y6714938D01*
X11467330Y6768342D01*
X11485593Y6807767D01*
X11511560Y6838020D01*
X11546733Y6863907D01*
X11547384Y6864313D01*
X11604256Y6885432D01*
X11670033Y6889000D01*
X11733483Y6875831D01*
G37*
X11757933Y11594029D02*
X11833856Y11593535D01*
X11888491Y11592265D01*
X11925500Y11589853D01*
X11948547Y11585933D01*
X11961296Y11580138D01*
X11967411Y11572101D01*
X11970556Y11561457D01*
X11970646Y11561075D01*
X11975814Y11536053D01*
X11985209Y11487719D01*
X11997867Y11421140D01*
X12012825Y11341386D01*
X12029119Y11253525D01*
X12030448Y11246336D01*
X12046691Y11161060D01*
X12061805Y11086158D01*
X12074808Y11026181D01*
X12084715Y10985683D01*
X12090544Y10969216D01*
X12090575Y10969190D01*
X12108943Y10960080D01*
X12146640Y10944943D01*
X12195543Y10927042D01*
X12198297Y10926070D01*
X12260817Y10902441D01*
X12333543Y10872805D01*
X12401294Y10843338D01*
X12512703Y10792774D01*
X12759399Y10961240D01*
X12776775Y10973089D01*
X12851202Y11023453D01*
X12917614Y11067788D01*
X12972039Y11103484D01*
X13010506Y11127929D01*
X13029042Y11138511D01*
X13041743Y11136085D01*
X13070579Y11117290D01*
X13115143Y11080070D01*
X13176670Y11023380D01*
X13256398Y10946173D01*
X13263532Y10939145D01*
X13326796Y10876178D01*
X13382990Y10819132D01*
X13428677Y10771583D01*
X13460414Y10737103D01*
X13474764Y10719269D01*
X13474810Y10719183D01*
X13476633Y10705605D01*
X13469910Y10683580D01*
X13452946Y10650096D01*
X13424044Y10602139D01*
X13381508Y10536696D01*
X13323644Y10450755D01*
X13313783Y10436249D01*
X13263913Y10362765D01*
X13219905Y10297713D01*
X13184380Y10244983D01*
X13159959Y10208464D01*
X13149264Y10192044D01*
X13148458Y10188566D01*
X13153518Y10162615D01*
X13168677Y10120241D01*
X13191463Y10068672D01*
X13222429Y10001230D01*
X13257004Y9921205D01*
X13286366Y9848771D01*
X13293645Y9830023D01*
X13312710Y9782154D01*
X13326715Y9748804D01*
X13333041Y9736286D01*
X13340025Y9735350D01*
X13371413Y9729939D01*
X13422787Y9720594D01*
X13488802Y9708331D01*
X13564113Y9694168D01*
X13643375Y9679120D01*
X13721243Y9664205D01*
X13792370Y9650439D01*
X13851412Y9638838D01*
X13893022Y9630420D01*
X13911857Y9626201D01*
X13914980Y9625011D01*
X13922591Y9618595D01*
X13928254Y9604935D01*
X13932251Y9580401D01*
X13934866Y9541362D01*
X13936384Y9484187D01*
X13937086Y9405246D01*
X13937257Y9300908D01*
X13937257Y8983601D01*
X13861057Y8968561D01*
X13851840Y8966758D01*
X13802891Y8957420D01*
X13735205Y8944731D01*
X13656478Y8930127D01*
X13574400Y8915045D01*
X13542078Y8908978D01*
X13469855Y8894219D01*
X13409666Y8880263D01*
X13367040Y8868448D01*
X13347510Y8860113D01*
X13338660Y8846495D01*
X13322548Y8810462D01*
X13306065Y8763828D01*
X13300263Y8746366D01*
X13278906Y8689042D01*
X13251359Y8621199D01*
X13222107Y8554045D01*
X13206463Y8518970D01*
X13184174Y8466578D01*
X13168857Y8427342D01*
X13163162Y8407837D01*
X13163478Y8406364D01*
X13174281Y8385671D01*
X13198638Y8345735D01*
X13234081Y8290428D01*
X13278136Y8223619D01*
X13328332Y8149180D01*
X13493501Y7906777D01*
X13276503Y7689417D01*
X13255516Y7668501D01*
X13191342Y7605895D01*
X13133990Y7551905D01*
X13086820Y7509574D01*
X13053192Y7481943D01*
X13036467Y7472057D01*
X13018303Y7479579D01*
X12980265Y7501173D01*
X12926726Y7534249D01*
X12861884Y7576209D01*
X12789940Y7624457D01*
X12719275Y7672109D01*
X12655526Y7714072D01*
X12603513Y7747235D01*
X12567279Y7769022D01*
X12550867Y7776857D01*
X12549905Y7776786D01*
X12528103Y7769062D01*
X12489440Y7751077D01*
X12441612Y7726387D01*
X12441110Y7726116D01*
X12377587Y7694301D01*
X12334060Y7678758D01*
X12307052Y7678715D01*
X12293090Y7693400D01*
X12287180Y7707856D01*
X12271229Y7746569D01*
X12246660Y7806084D01*
X12214779Y7883235D01*
X12176893Y7974859D01*
X12134310Y8077793D01*
X12088337Y8188874D01*
X12046667Y8289928D01*
X12004268Y8393620D01*
X11966756Y8486281D01*
X11935388Y8564758D01*
X11911425Y8625900D01*
X11896123Y8666557D01*
X11890743Y8683575D01*
X11901018Y8699181D01*
X11929563Y8725238D01*
X11969971Y8755513D01*
X12066979Y8834716D01*
X12153793Y8935925D01*
X12217322Y9047284D01*
X12257177Y9165507D01*
X12272965Y9287305D01*
X12264296Y9409390D01*
X12230778Y9528475D01*
X12172021Y9641271D01*
X12087632Y9744489D01*
X12043631Y9784687D01*
X11938211Y9855762D01*
X11825410Y9902099D01*
X11708525Y9924801D01*
X11590853Y9924972D01*
X11475690Y9903713D01*
X11366335Y9862130D01*
X11266083Y9801324D01*
X11178233Y9722399D01*
X11106080Y9626459D01*
X11052922Y9514605D01*
X11022057Y9387943D01*
X11016392Y9326893D01*
X11024185Y9194624D01*
X11059284Y9069134D01*
X11120649Y8952641D01*
X11207243Y8847361D01*
X11318029Y8755513D01*
X11356931Y8726470D01*
X11386104Y8700128D01*
X11397257Y8683600D01*
X11392810Y8669191D01*
X11378378Y8630585D01*
X11355173Y8571199D01*
X11324452Y8494185D01*
X11287474Y8402697D01*
X11245496Y8299884D01*
X11199778Y8188898D01*
X11158178Y8088328D01*
X11115222Y7984453D01*
X11076829Y7891581D01*
X11044305Y7812875D01*
X11018958Y7751501D01*
X11002095Y7710621D01*
X10995025Y7693400D01*
X10994943Y7693196D01*
X10980798Y7678655D01*
X10953659Y7678821D01*
X10910023Y7694473D01*
X10846388Y7726387D01*
X10841379Y7729074D01*
X10794125Y7753250D01*
X10756811Y7770363D01*
X10737133Y7776857D01*
X10721005Y7769182D01*
X10684959Y7747529D01*
X10633092Y7714472D01*
X10569445Y7672590D01*
X10498060Y7624457D01*
X10427724Y7577269D01*
X10362670Y7535133D01*
X10308820Y7501822D01*
X10270374Y7479931D01*
X10251534Y7472057D01*
X10248325Y7473057D01*
X10225954Y7488816D01*
X10187733Y7521367D01*
X10137021Y7567667D01*
X10077181Y7624674D01*
X10011571Y7689342D01*
X9794648Y7906628D01*
X9963601Y8155147D01*
X10132553Y8403667D01*
X10081183Y8514805D01*
X10081031Y8515134D01*
X10050183Y8585982D01*
X10018661Y8664877D01*
X9993266Y8734800D01*
X9989423Y8746078D01*
X9970047Y8798433D01*
X9952574Y8839117D01*
X9940388Y8860113D01*
X9935426Y8863078D01*
X9905634Y8873025D01*
X9855047Y8885895D01*
X9789194Y8900347D01*
X9713600Y8915045D01*
X9690957Y8919190D01*
X9609038Y8934284D01*
X9532600Y8948501D01*
X9469337Y8960405D01*
X9426943Y8968561D01*
X9350743Y8983601D01*
X9350743Y9300908D01*
X9350760Y9339924D01*
X9351082Y9435108D01*
X9352033Y9506145D01*
X9353896Y9556666D01*
X9356955Y9590302D01*
X9361494Y9610682D01*
X9367795Y9621438D01*
X9376143Y9626201D01*
X9384224Y9628130D01*
X9417172Y9634955D01*
X9469736Y9645378D01*
X9536569Y9658382D01*
X9612328Y9672951D01*
X9691665Y9688067D01*
X9769237Y9702715D01*
X9839698Y9715877D01*
X9897702Y9726537D01*
X9937904Y9733679D01*
X9954959Y9736286D01*
X9956112Y9737859D01*
X9965385Y9758281D01*
X9981432Y9797355D01*
X10001635Y9848771D01*
X10029672Y9918047D01*
X10064186Y9998110D01*
X10096538Y10068672D01*
X10103952Y10084511D01*
X10124755Y10134107D01*
X10137219Y10172362D01*
X10138863Y10192044D01*
X10138015Y10193438D01*
X10124548Y10213980D01*
X10097850Y10253884D01*
X10060539Y10309260D01*
X10015234Y10376223D01*
X9964552Y10450883D01*
X9907445Y10535708D01*
X9864607Y10601600D01*
X9835460Y10649922D01*
X9818317Y10683667D01*
X9811495Y10705828D01*
X9813306Y10719398D01*
X9813915Y10720416D01*
X9830297Y10740190D01*
X9863695Y10776225D01*
X9910671Y10824949D01*
X9967786Y10882788D01*
X10031603Y10946173D01*
X10097802Y11010495D01*
X10162648Y11070953D01*
X10210299Y11111745D01*
X10241990Y11133916D01*
X10258958Y11138511D01*
X10261175Y11137479D01*
X10284524Y11123563D01*
X10326912Y11096370D01*
X10384369Y11058511D01*
X10452923Y11012597D01*
X10528601Y10961240D01*
X10775298Y10792774D01*
X10886706Y10843338D01*
X10889943Y10844803D01*
X10958343Y10874435D01*
X11030907Y10903907D01*
X11092457Y10927042D01*
X11092729Y10927138D01*
X11141595Y10945033D01*
X11179212Y10960147D01*
X11197457Y10969216D01*
X11197752Y10969545D01*
X11203946Y10988118D01*
X11214139Y11030355D01*
X11227348Y11091704D01*
X11242590Y11167611D01*
X11258881Y11253525D01*
X11259449Y11256604D01*
X11275713Y11344272D01*
X11290608Y11423659D01*
X11303171Y11489699D01*
X11312438Y11537321D01*
X11317444Y11561457D01*
X11317764Y11562795D01*
X11321060Y11573127D01*
X11327738Y11580894D01*
X11341462Y11586460D01*
X11365895Y11590193D01*
X11404702Y11592458D01*
X11461546Y11593622D01*
X11540090Y11594052D01*
X11644000Y11594114D01*
X11657056Y11594114D01*
X11757933Y11594029D01*
G36*
X11757933Y11594029D02*
G01*
X11833856Y11593535D01*
X11888491Y11592265D01*
X11925500Y11589853D01*
X11948547Y11585933D01*
X11961296Y11580138D01*
X11967411Y11572101D01*
X11970556Y11561457D01*
X11970646Y11561075D01*
X11975814Y11536053D01*
X11985209Y11487719D01*
X11997867Y11421140D01*
X12012825Y11341386D01*
X12029119Y11253525D01*
X12030448Y11246336D01*
X12046691Y11161060D01*
X12061805Y11086158D01*
X12074808Y11026181D01*
X12084715Y10985683D01*
X12090544Y10969216D01*
X12090575Y10969190D01*
X12108943Y10960080D01*
X12146640Y10944943D01*
X12195543Y10927042D01*
X12198297Y10926070D01*
X12260817Y10902441D01*
X12333543Y10872805D01*
X12401294Y10843338D01*
X12512703Y10792774D01*
X12759399Y10961240D01*
X12776775Y10973089D01*
X12851202Y11023453D01*
X12917614Y11067788D01*
X12972039Y11103484D01*
X13010506Y11127929D01*
X13029042Y11138511D01*
X13041743Y11136085D01*
X13070579Y11117290D01*
X13115143Y11080070D01*
X13176670Y11023380D01*
X13256398Y10946173D01*
X13263532Y10939145D01*
X13326796Y10876178D01*
X13382990Y10819132D01*
X13428677Y10771583D01*
X13460414Y10737103D01*
X13474764Y10719269D01*
X13474810Y10719183D01*
X13476633Y10705605D01*
X13469910Y10683580D01*
X13452946Y10650096D01*
X13424044Y10602139D01*
X13381508Y10536696D01*
X13323644Y10450755D01*
X13313783Y10436249D01*
X13263913Y10362765D01*
X13219905Y10297713D01*
X13184380Y10244983D01*
X13159959Y10208464D01*
X13149264Y10192044D01*
X13148458Y10188566D01*
X13153518Y10162615D01*
X13168677Y10120241D01*
X13191463Y10068672D01*
X13222429Y10001230D01*
X13257004Y9921205D01*
X13286366Y9848771D01*
X13293645Y9830023D01*
X13312710Y9782154D01*
X13326715Y9748804D01*
X13333041Y9736286D01*
X13340025Y9735350D01*
X13371413Y9729939D01*
X13422787Y9720594D01*
X13488802Y9708331D01*
X13564113Y9694168D01*
X13643375Y9679120D01*
X13721243Y9664205D01*
X13792370Y9650439D01*
X13851412Y9638838D01*
X13893022Y9630420D01*
X13911857Y9626201D01*
X13914980Y9625011D01*
X13922591Y9618595D01*
X13928254Y9604935D01*
X13932251Y9580401D01*
X13934866Y9541362D01*
X13936384Y9484187D01*
X13937086Y9405246D01*
X13937257Y9300908D01*
X13937257Y8983601D01*
X13861057Y8968561D01*
X13851840Y8966758D01*
X13802891Y8957420D01*
X13735205Y8944731D01*
X13656478Y8930127D01*
X13574400Y8915045D01*
X13542078Y8908978D01*
X13469855Y8894219D01*
X13409666Y8880263D01*
X13367040Y8868448D01*
X13347510Y8860113D01*
X13338660Y8846495D01*
X13322548Y8810462D01*
X13306065Y8763828D01*
X13300263Y8746366D01*
X13278906Y8689042D01*
X13251359Y8621199D01*
X13222107Y8554045D01*
X13206463Y8518970D01*
X13184174Y8466578D01*
X13168857Y8427342D01*
X13163162Y8407837D01*
X13163478Y8406364D01*
X13174281Y8385671D01*
X13198638Y8345735D01*
X13234081Y8290428D01*
X13278136Y8223619D01*
X13328332Y8149180D01*
X13493501Y7906777D01*
X13276503Y7689417D01*
X13255516Y7668501D01*
X13191342Y7605895D01*
X13133990Y7551905D01*
X13086820Y7509574D01*
X13053192Y7481943D01*
X13036467Y7472057D01*
X13018303Y7479579D01*
X12980265Y7501173D01*
X12926726Y7534249D01*
X12861884Y7576209D01*
X12789940Y7624457D01*
X12719275Y7672109D01*
X12655526Y7714072D01*
X12603513Y7747235D01*
X12567279Y7769022D01*
X12550867Y7776857D01*
X12549905Y7776786D01*
X12528103Y7769062D01*
X12489440Y7751077D01*
X12441612Y7726387D01*
X12441110Y7726116D01*
X12377587Y7694301D01*
X12334060Y7678758D01*
X12307052Y7678715D01*
X12293090Y7693400D01*
X12287180Y7707856D01*
X12271229Y7746569D01*
X12246660Y7806084D01*
X12214779Y7883235D01*
X12176893Y7974859D01*
X12134310Y8077793D01*
X12088337Y8188874D01*
X12046667Y8289928D01*
X12004268Y8393620D01*
X11966756Y8486281D01*
X11935388Y8564758D01*
X11911425Y8625900D01*
X11896123Y8666557D01*
X11890743Y8683575D01*
X11901018Y8699181D01*
X11929563Y8725238D01*
X11969971Y8755513D01*
X12066979Y8834716D01*
X12153793Y8935925D01*
X12217322Y9047284D01*
X12257177Y9165507D01*
X12272965Y9287305D01*
X12264296Y9409390D01*
X12230778Y9528475D01*
X12172021Y9641271D01*
X12087632Y9744489D01*
X12043631Y9784687D01*
X11938211Y9855762D01*
X11825410Y9902099D01*
X11708525Y9924801D01*
X11590853Y9924972D01*
X11475690Y9903713D01*
X11366335Y9862130D01*
X11266083Y9801324D01*
X11178233Y9722399D01*
X11106080Y9626459D01*
X11052922Y9514605D01*
X11022057Y9387943D01*
X11016392Y9326893D01*
X11024185Y9194624D01*
X11059284Y9069134D01*
X11120649Y8952641D01*
X11207243Y8847361D01*
X11318029Y8755513D01*
X11356931Y8726470D01*
X11386104Y8700128D01*
X11397257Y8683600D01*
X11392810Y8669191D01*
X11378378Y8630585D01*
X11355173Y8571199D01*
X11324452Y8494185D01*
X11287474Y8402697D01*
X11245496Y8299884D01*
X11199778Y8188898D01*
X11158178Y8088328D01*
X11115222Y7984453D01*
X11076829Y7891581D01*
X11044305Y7812875D01*
X11018958Y7751501D01*
X11002095Y7710621D01*
X10995025Y7693400D01*
X10994943Y7693196D01*
X10980798Y7678655D01*
X10953659Y7678821D01*
X10910023Y7694473D01*
X10846388Y7726387D01*
X10841379Y7729074D01*
X10794125Y7753250D01*
X10756811Y7770363D01*
X10737133Y7776857D01*
X10721005Y7769182D01*
X10684959Y7747529D01*
X10633092Y7714472D01*
X10569445Y7672590D01*
X10498060Y7624457D01*
X10427724Y7577269D01*
X10362670Y7535133D01*
X10308820Y7501822D01*
X10270374Y7479931D01*
X10251534Y7472057D01*
X10248325Y7473057D01*
X10225954Y7488816D01*
X10187733Y7521367D01*
X10137021Y7567667D01*
X10077181Y7624674D01*
X10011571Y7689342D01*
X9794648Y7906628D01*
X9963601Y8155147D01*
X10132553Y8403667D01*
X10081183Y8514805D01*
X10081031Y8515134D01*
X10050183Y8585982D01*
X10018661Y8664877D01*
X9993266Y8734800D01*
X9989423Y8746078D01*
X9970047Y8798433D01*
X9952574Y8839117D01*
X9940388Y8860113D01*
X9935426Y8863078D01*
X9905634Y8873025D01*
X9855047Y8885895D01*
X9789194Y8900347D01*
X9713600Y8915045D01*
X9690957Y8919190D01*
X9609038Y8934284D01*
X9532600Y8948501D01*
X9469337Y8960405D01*
X9426943Y8968561D01*
X9350743Y8983601D01*
X9350743Y9300908D01*
X9350760Y9339924D01*
X9351082Y9435108D01*
X9352033Y9506145D01*
X9353896Y9556666D01*
X9356955Y9590302D01*
X9361494Y9610682D01*
X9367795Y9621438D01*
X9376143Y9626201D01*
X9384224Y9628130D01*
X9417172Y9634955D01*
X9469736Y9645378D01*
X9536569Y9658382D01*
X9612328Y9672951D01*
X9691665Y9688067D01*
X9769237Y9702715D01*
X9839698Y9715877D01*
X9897702Y9726537D01*
X9937904Y9733679D01*
X9954959Y9736286D01*
X9956112Y9737859D01*
X9965385Y9758281D01*
X9981432Y9797355D01*
X10001635Y9848771D01*
X10029672Y9918047D01*
X10064186Y9998110D01*
X10096538Y10068672D01*
X10103952Y10084511D01*
X10124755Y10134107D01*
X10137219Y10172362D01*
X10138863Y10192044D01*
X10138015Y10193438D01*
X10124548Y10213980D01*
X10097850Y10253884D01*
X10060539Y10309260D01*
X10015234Y10376223D01*
X9964552Y10450883D01*
X9907445Y10535708D01*
X9864607Y10601600D01*
X9835460Y10649922D01*
X9818317Y10683667D01*
X9811495Y10705828D01*
X9813306Y10719398D01*
X9813915Y10720416D01*
X9830297Y10740190D01*
X9863695Y10776225D01*
X9910671Y10824949D01*
X9967786Y10882788D01*
X10031603Y10946173D01*
X10097802Y11010495D01*
X10162648Y11070953D01*
X10210299Y11111745D01*
X10241990Y11133916D01*
X10258958Y11138511D01*
X10261175Y11137479D01*
X10284524Y11123563D01*
X10326912Y11096370D01*
X10384369Y11058511D01*
X10452923Y11012597D01*
X10528601Y10961240D01*
X10775298Y10792774D01*
X10886706Y10843338D01*
X10889943Y10844803D01*
X10958343Y10874435D01*
X11030907Y10903907D01*
X11092457Y10927042D01*
X11092729Y10927138D01*
X11141595Y10945033D01*
X11179212Y10960147D01*
X11197457Y10969216D01*
X11197752Y10969545D01*
X11203946Y10988118D01*
X11214139Y11030355D01*
X11227348Y11091704D01*
X11242590Y11167611D01*
X11258881Y11253525D01*
X11259449Y11256604D01*
X11275713Y11344272D01*
X11290608Y11423659D01*
X11303171Y11489699D01*
X11312438Y11537321D01*
X11317444Y11561457D01*
X11317764Y11562795D01*
X11321060Y11573127D01*
X11327738Y11580894D01*
X11341462Y11586460D01*
X11365895Y11590193D01*
X11404702Y11592458D01*
X11461546Y11593622D01*
X11540090Y11594052D01*
X11644000Y11594114D01*
X11657056Y11594114D01*
X11757933Y11594029D01*
G37*
X9611495Y6890180D02*
X9642599Y6882279D01*
X9671559Y6862583D01*
X9708831Y6825916D01*
X9732801Y6800022D01*
X9757770Y6766403D01*
X9769031Y6734894D01*
X9771657Y6694915D01*
X9771657Y6629483D01*
X9727035Y6652558D01*
X9691673Y6680676D01*
X9667451Y6718552D01*
X9663291Y6728849D01*
X9631594Y6768763D01*
X9587554Y6788776D01*
X9539531Y6786828D01*
X9495886Y6760857D01*
X9477420Y6739765D01*
X9466663Y6712781D01*
X9478178Y6688766D01*
X9513981Y6664609D01*
X9576090Y6637201D01*
X9585515Y6633415D01*
X9642058Y6608641D01*
X9690580Y6584211D01*
X9721451Y6564914D01*
X9752371Y6530447D01*
X9772927Y6475443D01*
X9770744Y6416417D01*
X9746424Y6360555D01*
X9700568Y6315045D01*
X9663438Y6295673D01*
X9591711Y6282108D01*
X9551852Y6283938D01*
X9514953Y6293832D01*
X9500797Y6314594D01*
X9506091Y6348787D01*
X9507631Y6353308D01*
X9519842Y6377284D01*
X9540174Y6386358D01*
X9578908Y6385751D01*
X9606257Y6384926D01*
X9638257Y6392008D01*
X9660182Y6413181D01*
X9672670Y6439248D01*
X9674062Y6466555D01*
X9673998Y6466715D01*
X9657807Y6481470D01*
X9623155Y6502943D01*
X9578321Y6526942D01*
X9531582Y6549275D01*
X9491217Y6565748D01*
X9465504Y6572171D01*
X9461679Y6565882D01*
X9456864Y6536285D01*
X9453566Y6487953D01*
X9452343Y6427028D01*
X9452058Y6384858D01*
X9450718Y6331747D01*
X9448528Y6295375D01*
X9445769Y6281886D01*
X9431344Y6286419D01*
X9402226Y6298730D01*
X9365257Y6315574D01*
X9365257Y6531679D01*
X9365493Y6587073D01*
X9367729Y6671193D01*
X9373423Y6733600D01*
X9383903Y6779042D01*
X9400497Y6812267D01*
X9424531Y6838022D01*
X9457333Y6861056D01*
X9499124Y6880065D01*
X9576287Y6891486D01*
X9611495Y6890180D01*
G36*
X9611495Y6890180D02*
G01*
X9642599Y6882279D01*
X9671559Y6862583D01*
X9708831Y6825916D01*
X9732801Y6800022D01*
X9757770Y6766403D01*
X9769031Y6734894D01*
X9771657Y6694915D01*
X9771657Y6629483D01*
X9727035Y6652558D01*
X9691673Y6680676D01*
X9667451Y6718552D01*
X9663291Y6728849D01*
X9631594Y6768763D01*
X9587554Y6788776D01*
X9539531Y6786828D01*
X9495886Y6760857D01*
X9477420Y6739765D01*
X9466663Y6712781D01*
X9478178Y6688766D01*
X9513981Y6664609D01*
X9576090Y6637201D01*
X9585515Y6633415D01*
X9642058Y6608641D01*
X9690580Y6584211D01*
X9721451Y6564914D01*
X9752371Y6530447D01*
X9772927Y6475443D01*
X9770744Y6416417D01*
X9746424Y6360555D01*
X9700568Y6315045D01*
X9663438Y6295673D01*
X9591711Y6282108D01*
X9551852Y6283938D01*
X9514953Y6293832D01*
X9500797Y6314594D01*
X9506091Y6348787D01*
X9507631Y6353308D01*
X9519842Y6377284D01*
X9540174Y6386358D01*
X9578908Y6385751D01*
X9606257Y6384926D01*
X9638257Y6392008D01*
X9660182Y6413181D01*
X9672670Y6439248D01*
X9674062Y6466555D01*
X9673998Y6466715D01*
X9657807Y6481470D01*
X9623155Y6502943D01*
X9578321Y6526942D01*
X9531582Y6549275D01*
X9491217Y6565748D01*
X9465504Y6572171D01*
X9461679Y6565882D01*
X9456864Y6536285D01*
X9453566Y6487953D01*
X9452343Y6427028D01*
X9452058Y6384858D01*
X9450718Y6331747D01*
X9448528Y6295375D01*
X9445769Y6281886D01*
X9431344Y6286419D01*
X9402226Y6298730D01*
X9365257Y6315574D01*
X9365257Y6531679D01*
X9365493Y6587073D01*
X9367729Y6671193D01*
X9373423Y6733600D01*
X9383903Y6779042D01*
X9400497Y6812267D01*
X9424531Y6838022D01*
X9457333Y6861056D01*
X9499124Y6880065D01*
X9576287Y6891486D01*
X9611495Y6890180D01*
G37*
X13806299Y6642345D02*
X13801684Y6532322D01*
X13799078Y6509013D01*
X13779660Y6426048D01*
X13744573Y6362952D01*
X13691212Y6314592D01*
X13688196Y6312596D01*
X13620362Y6284215D01*
X13549535Y6281689D01*
X13481289Y6303303D01*
X13421196Y6347338D01*
X13374829Y6412078D01*
X13374050Y6413639D01*
X13358643Y6453842D01*
X13347357Y6499534D01*
X13341370Y6542428D01*
X13341861Y6574240D01*
X13350007Y6586686D01*
X13357244Y6585929D01*
X13391851Y6572165D01*
X13431078Y6546854D01*
X13464448Y6517555D01*
X13481483Y6491828D01*
X13499192Y6456929D01*
X13535485Y6425188D01*
X13577630Y6412514D01*
X13593077Y6416179D01*
X13623569Y6434626D01*
X13650128Y6460234D01*
X13661486Y6483466D01*
X13661482Y6483552D01*
X13648596Y6494221D01*
X13614241Y6513467D01*
X13563593Y6538587D01*
X13501829Y6566876D01*
X13501489Y6567026D01*
X13434388Y6596902D01*
X13389411Y6618427D01*
X13362145Y6634963D01*
X13348178Y6649869D01*
X13343097Y6666507D01*
X13342490Y6688238D01*
X13346712Y6729387D01*
X13490000Y6729387D01*
X13504791Y6716451D01*
X13541644Y6697067D01*
X13542725Y6696519D01*
X13586205Y6675813D01*
X13625102Y6659295D01*
X13649778Y6652307D01*
X13659676Y6661647D01*
X13661486Y6693652D01*
X13653966Y6733485D01*
X13627897Y6769683D01*
X13590154Y6788450D01*
X13548077Y6786555D01*
X13509005Y6760768D01*
X13493647Y6742949D01*
X13490000Y6729387D01*
X13346712Y6729387D01*
X13347833Y6740314D01*
X13374251Y6811065D01*
X13418473Y6866665D01*
X13475697Y6905161D01*
X13541120Y6924603D01*
X13609937Y6923041D01*
X13677347Y6898522D01*
X13738544Y6849098D01*
X13772450Y6800188D01*
X13796806Y6730373D01*
X13800767Y6693652D01*
X13806299Y6642345D01*
G36*
X13806299Y6642345D02*
G01*
X13801684Y6532322D01*
X13799078Y6509013D01*
X13779660Y6426048D01*
X13744573Y6362952D01*
X13691212Y6314592D01*
X13688196Y6312596D01*
X13620362Y6284215D01*
X13549535Y6281689D01*
X13481289Y6303303D01*
X13421196Y6347338D01*
X13374829Y6412078D01*
X13374050Y6413639D01*
X13358643Y6453842D01*
X13347357Y6499534D01*
X13341370Y6542428D01*
X13341861Y6574240D01*
X13350007Y6586686D01*
X13357244Y6585929D01*
X13391851Y6572165D01*
X13431078Y6546854D01*
X13464448Y6517555D01*
X13481483Y6491828D01*
X13499192Y6456929D01*
X13535485Y6425188D01*
X13577630Y6412514D01*
X13593077Y6416179D01*
X13623569Y6434626D01*
X13650128Y6460234D01*
X13661486Y6483466D01*
X13661482Y6483552D01*
X13648596Y6494221D01*
X13614241Y6513467D01*
X13563593Y6538587D01*
X13501829Y6566876D01*
X13501489Y6567026D01*
X13434388Y6596902D01*
X13389411Y6618427D01*
X13362145Y6634963D01*
X13348178Y6649869D01*
X13343097Y6666507D01*
X13342490Y6688238D01*
X13346712Y6729387D01*
X13490000Y6729387D01*
X13504791Y6716451D01*
X13541644Y6697067D01*
X13542725Y6696519D01*
X13586205Y6675813D01*
X13625102Y6659295D01*
X13649778Y6652307D01*
X13659676Y6661647D01*
X13661486Y6693652D01*
X13653966Y6733485D01*
X13627897Y6769683D01*
X13590154Y6788450D01*
X13548077Y6786555D01*
X13509005Y6760768D01*
X13493647Y6742949D01*
X13490000Y6729387D01*
X13346712Y6729387D01*
X13347833Y6740314D01*
X13374251Y6811065D01*
X13418473Y6866665D01*
X13475697Y6905161D01*
X13541120Y6924603D01*
X13609937Y6923041D01*
X13677347Y6898522D01*
X13738544Y6849098D01*
X13772450Y6800188D01*
X13796806Y6730373D01*
X13800767Y6693652D01*
X13806299Y6642345D01*
G37*
X11251691Y6869933D02*
X11256273Y6867397D01*
X11293704Y6838343D01*
X11327170Y6800990D01*
X11333007Y6792548D01*
X11344165Y6772847D01*
X11352136Y6749465D01*
X11357618Y6717333D01*
X11361307Y6671381D01*
X11363899Y6606541D01*
X11366092Y6517743D01*
X11366402Y6502731D01*
X11367400Y6405401D01*
X11365994Y6336466D01*
X11362164Y6295452D01*
X11355889Y6281886D01*
X11336898Y6285948D01*
X11304638Y6298256D01*
X11297041Y6301855D01*
X11285176Y6310002D01*
X11276994Y6323396D01*
X11271643Y6346792D01*
X11268269Y6384945D01*
X11266019Y6442610D01*
X11264040Y6524543D01*
X11263498Y6548493D01*
X11261403Y6624134D01*
X11258683Y6677072D01*
X11254515Y6712325D01*
X11248079Y6734913D01*
X11238550Y6749856D01*
X11225106Y6762173D01*
X11185305Y6783766D01*
X11136341Y6787924D01*
X11092529Y6771401D01*
X11061008Y6737190D01*
X11048914Y6688286D01*
X11048578Y6674993D01*
X11041972Y6650928D01*
X11022470Y6647256D01*
X10984283Y6661587D01*
X10975438Y6666183D01*
X10951534Y6693214D01*
X10951061Y6733406D01*
X10973836Y6788991D01*
X10994727Y6819283D01*
X11048142Y6862316D01*
X11114074Y6886645D01*
X11184574Y6889957D01*
X11251691Y6869933D01*
G36*
X11251691Y6869933D02*
G01*
X11256273Y6867397D01*
X11293704Y6838343D01*
X11327170Y6800990D01*
X11333007Y6792548D01*
X11344165Y6772847D01*
X11352136Y6749465D01*
X11357618Y6717333D01*
X11361307Y6671381D01*
X11363899Y6606541D01*
X11366092Y6517743D01*
X11366402Y6502731D01*
X11367400Y6405401D01*
X11365994Y6336466D01*
X11362164Y6295452D01*
X11355889Y6281886D01*
X11336898Y6285948D01*
X11304638Y6298256D01*
X11297041Y6301855D01*
X11285176Y6310002D01*
X11276994Y6323396D01*
X11271643Y6346792D01*
X11268269Y6384945D01*
X11266019Y6442610D01*
X11264040Y6524543D01*
X11263498Y6548493D01*
X11261403Y6624134D01*
X11258683Y6677072D01*
X11254515Y6712325D01*
X11248079Y6734913D01*
X11238550Y6749856D01*
X11225106Y6762173D01*
X11185305Y6783766D01*
X11136341Y6787924D01*
X11092529Y6771401D01*
X11061008Y6737190D01*
X11048914Y6688286D01*
X11048578Y6674993D01*
X11041972Y6650928D01*
X11022470Y6647256D01*
X10984283Y6661587D01*
X10975438Y6666183D01*
X10951534Y6693214D01*
X10951061Y6733406D01*
X10973836Y6788991D01*
X10994727Y6819283D01*
X11048142Y6862316D01*
X11114074Y6886645D01*
X11184574Y6889957D01*
X11251691Y6869933D01*
G37*
X14353815Y6534876D02*
X14355252Y6423400D01*
X14355651Y6391061D01*
X14356929Y6282945D01*
X14357185Y6200214D01*
X14355634Y6139974D01*
X14351490Y6099327D01*
X14343964Y6075377D01*
X14332271Y6065229D01*
X14315624Y6065986D01*
X14293236Y6074752D01*
X14264321Y6088631D01*
X14258142Y6091592D01*
X14232413Y6106089D01*
X14218976Y6123335D01*
X14213834Y6152092D01*
X14212990Y6201117D01*
X14212952Y6289143D01*
X14122276Y6289143D01*
X14066498Y6291585D01*
X14022640Y6301492D01*
X13986218Y6321514D01*
X13983503Y6323471D01*
X13946546Y6356531D01*
X13920826Y6396469D01*
X13904606Y6448743D01*
X13896148Y6518812D01*
X13894083Y6597970D01*
X14038857Y6597970D01*
X14038882Y6584703D01*
X14040261Y6524816D01*
X14044687Y6485668D01*
X14053461Y6460247D01*
X14067886Y6441543D01*
X14068784Y6440650D01*
X14104237Y6416448D01*
X14138596Y6418833D01*
X14177403Y6448140D01*
X14186895Y6458156D01*
X14200876Y6478692D01*
X14208760Y6505403D01*
X14212245Y6545901D01*
X14213029Y6607797D01*
X14212350Y6645270D01*
X14204983Y6713420D01*
X14188168Y6758070D01*
X14160234Y6782474D01*
X14119509Y6789886D01*
X14102350Y6788306D01*
X14072660Y6772634D01*
X14053031Y6737709D01*
X14042188Y6680499D01*
X14038857Y6597970D01*
X13894083Y6597970D01*
X13893714Y6612133D01*
X13894253Y6680231D01*
X13896707Y6731813D01*
X13902158Y6767584D01*
X13911686Y6794385D01*
X13926371Y6819062D01*
X13939852Y6837920D01*
X13988799Y6888832D01*
X14044256Y6916482D01*
X14113928Y6925235D01*
X14193664Y6916510D01*
X14262595Y6885215D01*
X14317113Y6830019D01*
X14321223Y6824176D01*
X14330808Y6808647D01*
X14338151Y6790902D01*
X14343612Y6767110D01*
X14347550Y6733442D01*
X14350323Y6686067D01*
X14352292Y6621155D01*
X14352528Y6607797D01*
X14353815Y6534876D01*
G36*
X14353815Y6534876D02*
G01*
X14355252Y6423400D01*
X14355651Y6391061D01*
X14356929Y6282945D01*
X14357185Y6200214D01*
X14355634Y6139974D01*
X14351490Y6099327D01*
X14343964Y6075377D01*
X14332271Y6065229D01*
X14315624Y6065986D01*
X14293236Y6074752D01*
X14264321Y6088631D01*
X14258142Y6091592D01*
X14232413Y6106089D01*
X14218976Y6123335D01*
X14213834Y6152092D01*
X14212990Y6201117D01*
X14212952Y6289143D01*
X14122276Y6289143D01*
X14066498Y6291585D01*
X14022640Y6301492D01*
X13986218Y6321514D01*
X13983503Y6323471D01*
X13946546Y6356531D01*
X13920826Y6396469D01*
X13904606Y6448743D01*
X13896148Y6518812D01*
X13894083Y6597970D01*
X14038857Y6597970D01*
X14038882Y6584703D01*
X14040261Y6524816D01*
X14044687Y6485668D01*
X14053461Y6460247D01*
X14067886Y6441543D01*
X14068784Y6440650D01*
X14104237Y6416448D01*
X14138596Y6418833D01*
X14177403Y6448140D01*
X14186895Y6458156D01*
X14200876Y6478692D01*
X14208760Y6505403D01*
X14212245Y6545901D01*
X14213029Y6607797D01*
X14212350Y6645270D01*
X14204983Y6713420D01*
X14188168Y6758070D01*
X14160234Y6782474D01*
X14119509Y6789886D01*
X14102350Y6788306D01*
X14072660Y6772634D01*
X14053031Y6737709D01*
X14042188Y6680499D01*
X14038857Y6597970D01*
X13894083Y6597970D01*
X13893714Y6612133D01*
X13894253Y6680231D01*
X13896707Y6731813D01*
X13902158Y6767584D01*
X13911686Y6794385D01*
X13926371Y6819062D01*
X13939852Y6837920D01*
X13988799Y6888832D01*
X14044256Y6916482D01*
X14113928Y6925235D01*
X14193664Y6916510D01*
X14262595Y6885215D01*
X14317113Y6830019D01*
X14321223Y6824176D01*
X14330808Y6808647D01*
X14338151Y6790902D01*
X14343612Y6767110D01*
X14347550Y6733442D01*
X14350323Y6686067D01*
X14352292Y6621155D01*
X14352528Y6607797D01*
X14353815Y6534876D01*
G37*
%TD*%
M02*
