%TF.GenerationSoftware,KiCad,Pcbnew,7.0.10*%
%TF.CreationDate,2024-03-09T11:41:47+01:00*%
%TF.ProjectId,ScartPCB,53636172-7450-4434-922e-6b696361645f,0*%
%TF.SameCoordinates,PX76bb820PY7641700*%
%TF.FileFunction,Copper,L1,Top*%
%TF.FilePolarity,Positive*%
%FSLAX46Y46*%
G04 Gerber Fmt 4.6, Leading zero omitted, Abs format (unit mm)*
G04 Created by KiCad (PCBNEW 7.0.10) date 2024-03-09 11:41:47*
%MOMM*%
%LPD*%
G01*
G04 APERTURE LIST*
G04 Aperture macros list*
%AMRoundRect*
0 Rectangle with rounded corners*
0 $1 Rounding radius*
0 $2 $3 $4 $5 $6 $7 $8 $9 X,Y pos of 4 corners*
0 Add a 4 corners polygon primitive as box body*
4,1,4,$2,$3,$4,$5,$6,$7,$8,$9,$2,$3,0*
0 Add four circle primitives for the rounded corners*
1,1,$1+$1,$2,$3*
1,1,$1+$1,$4,$5*
1,1,$1+$1,$6,$7*
1,1,$1+$1,$8,$9*
0 Add four rect primitives between the rounded corners*
20,1,$1+$1,$2,$3,$4,$5,0*
20,1,$1+$1,$4,$5,$6,$7,0*
20,1,$1+$1,$6,$7,$8,$9,0*
20,1,$1+$1,$8,$9,$2,$3,0*%
G04 Aperture macros list end*
%TA.AperFunction,SMDPad,CuDef*%
%ADD10RoundRect,0.250000X0.545189X-0.104372X0.270488X0.484728X-0.545189X0.104372X-0.270488X-0.484728X0*%
%TD*%
%TA.AperFunction,SMDPad,CuDef*%
%ADD11RoundRect,0.250000X-0.325000X-0.450000X0.325000X-0.450000X0.325000X0.450000X-0.325000X0.450000X0*%
%TD*%
%TA.AperFunction,ComponentPad*%
%ADD12RoundRect,0.250002X1.993386X-0.725533X0.725533X1.993386X-1.993386X0.725533X-0.725533X-1.993386X0*%
%TD*%
%TA.AperFunction,SMDPad,CuDef*%
%ADD13RoundRect,0.250000X0.450000X-0.325000X0.450000X0.325000X-0.450000X0.325000X-0.450000X-0.325000X0*%
%TD*%
%TA.AperFunction,SMDPad,CuDef*%
%ADD14RoundRect,0.571500X-0.571500X-1.562000X0.571500X-1.562000X0.571500X1.562000X-0.571500X1.562000X0*%
%TD*%
%TA.AperFunction,ViaPad*%
%ADD15C,0.800000*%
%TD*%
%TA.AperFunction,Conductor*%
%ADD16C,0.250000*%
%TD*%
%TA.AperFunction,Conductor*%
%ADD17C,0.350000*%
%TD*%
G04 APERTURE END LIST*
D10*
%TO.P,R3,1*%
%TO.N,BLUE*%
X14057000Y9192000D03*
%TO.P,R3,2*%
%TO.N,Net-(J4-Pin_1)*%
X13190632Y11049930D03*
%TD*%
D11*
%TO.P,R4,1*%
%TO.N,Net-(J1-Pin_20)*%
X5149000Y7541000D03*
%TO.P,R4,2*%
%TO.N,SYNC*%
X7199000Y7541000D03*
%TD*%
D12*
%TO.P,J7,1,Pin_1*%
%TO.N,GND*%
X28535000Y12748000D03*
%TD*%
D10*
%TO.P,R1,1*%
%TO.N,RED*%
X9993000Y7287000D03*
%TO.P,R1,2*%
%TO.N,Net-(J2-Pin_1)*%
X9126632Y9144930D03*
%TD*%
D12*
%TO.P,J4,1,Pin_1*%
%TO.N,Net-(J4-Pin_1)*%
X19137000Y13510000D03*
%TD*%
%TO.P,J6,1,Pin_1*%
%TO.N,AUDIO*%
X19137000Y8303000D03*
%TD*%
D10*
%TO.P,R2,1*%
%TO.N,GREEN*%
X12047632Y8255930D03*
%TO.P,R2,2*%
%TO.N,Net-(J3-Pin_1)*%
X11181264Y10113860D03*
%TD*%
D12*
%TO.P,J2,1,Pin_1*%
%TO.N,Net-(J2-Pin_1)*%
X28408000Y17955000D03*
%TD*%
%TO.P,J3,1,Pin_1*%
%TO.N,Net-(J3-Pin_1)*%
X23836000Y15796000D03*
%TD*%
D13*
%TO.P,R5,1*%
%TO.N,Net-(J1-Pin_6)*%
X30313000Y6525000D03*
%TO.P,R5,2*%
%TO.N,AUDIO*%
X30313000Y8575000D03*
%TD*%
D12*
%TO.P,J5,1,Pin_1*%
%TO.N,SYNC*%
X23836000Y10589000D03*
%TD*%
D14*
%TO.P,J1,1,Pin_1*%
%TO.N,unconnected-(J1-Pin_1-Pad1)*%
X37247500Y2642500D03*
%TO.P,J1,3,Pin_3*%
%TO.N,unconnected-(J1-Pin_3-Pad3)*%
X33437500Y2642500D03*
%TO.P,J1,5,Pin_5*%
%TO.N,GND*%
X29627500Y2642500D03*
%TO.P,J1,7,Pin_7*%
%TO.N,BLUE*%
X25817500Y2642500D03*
%TO.P,J1,9,Pin_9*%
%TO.N,GND*%
X22007500Y2642500D03*
%TO.P,J1,11,Pin_11*%
%TO.N,GREEN*%
X18197500Y2642500D03*
%TO.P,J1,13,Pin_13*%
%TO.N,GND*%
X14387500Y2642500D03*
%TO.P,J1,15,Pin_15*%
%TO.N,RED*%
X10577500Y2642500D03*
%TO.P,J1,17,Pin_17*%
%TO.N,GND*%
X6767500Y2642500D03*
%TO.P,J1,19,Pin_19*%
%TO.N,unconnected-(J1-Pin_19-Pad19)*%
X2957500Y2642500D03*
%TD*%
D13*
%TO.P,R6,1*%
%TO.N,Net-(J1-Pin_2)*%
X32472000Y6525000D03*
%TO.P,R6,2*%
%TO.N,AUDIO*%
X32472000Y8575000D03*
%TD*%
D15*
%TO.N,BLUE*%
X25741000Y5636000D03*
X15708000Y7287000D03*
%TO.N,Net-(J1-Pin_20)*%
X2881000Y6652000D03*
%TO.N,GND*%
X4405000Y5509000D03*
X27011000Y6261147D03*
X12382005Y4911695D03*
%TO.N,SYNC*%
X8088000Y5636000D03*
%TO.N,Net-(J1-Pin_6)*%
X28535000Y6144000D03*
%TO.N,Net-(J1-Pin_2)*%
X36790000Y5890000D03*
%TO.N,Net-(J2-Pin_1)*%
X7326000Y9827000D03*
%TO.N,Net-(J3-Pin_1)*%
X14438000Y12748000D03*
%TD*%
D16*
%TO.N,BLUE*%
X15708000Y7541000D02*
X15708000Y7287000D01*
X14057000Y9192000D02*
X15708000Y7541000D01*
X25817500Y5559500D02*
X25817500Y2642500D01*
X25741000Y5636000D02*
X25817500Y5559500D01*
%TO.N,GREEN*%
X12584070Y8255930D02*
X18197500Y2642500D01*
X12047632Y8255930D02*
X12584070Y8255930D01*
%TO.N,RED*%
X9993000Y7287000D02*
X9993000Y5890000D01*
X10577500Y5305500D02*
X10577500Y2642500D01*
X9993000Y5890000D02*
X10577500Y5305500D01*
%TO.N,Net-(J1-Pin_20)*%
X5149000Y7541000D02*
X3770000Y7541000D01*
X3770000Y7541000D02*
X2881000Y6652000D01*
D17*
%TO.N,GND*%
X26062016Y6411000D02*
X26211869Y6261147D01*
X22007500Y4775999D02*
X23642501Y6411000D01*
X22007500Y2642500D02*
X22007500Y4775999D01*
X23642501Y6411000D02*
X26062016Y6411000D01*
X29627500Y2845516D02*
X29627500Y2642500D01*
X14387500Y2642500D02*
X14387500Y2906200D01*
X26211869Y6261147D02*
X27011000Y6261147D01*
X26062016Y6411000D02*
X29627500Y2845516D01*
X14387500Y2906200D02*
X12382005Y4911695D01*
X4405000Y5005000D02*
X6767500Y2642500D01*
X4405000Y5509000D02*
X4405000Y5005000D01*
D16*
%TO.N,SYNC*%
X7199000Y7541000D02*
X7199000Y6525000D01*
X7199000Y6525000D02*
X8088000Y5636000D01*
%TO.N,Net-(J1-Pin_6)*%
X28916000Y6525000D02*
X28535000Y6144000D01*
X30313000Y6525000D02*
X28916000Y6525000D01*
%TO.N,Net-(J1-Pin_2)*%
X36155000Y6525000D02*
X36790000Y5890000D01*
X32472000Y6525000D02*
X36155000Y6525000D01*
%TO.N,Net-(J2-Pin_1)*%
X9126632Y9144930D02*
X8008070Y9144930D01*
X8008070Y9144930D02*
X7326000Y9827000D01*
%TO.N,Net-(J3-Pin_1)*%
X11181264Y10748302D02*
X13180962Y12748000D01*
X13180962Y12748000D02*
X14438000Y12748000D01*
X11181264Y10113860D02*
X11181264Y10748302D01*
%TO.N,Net-(J4-Pin_1)*%
X13190632Y11049930D02*
X15152930Y11049930D01*
X17613000Y13510000D02*
X19137000Y13510000D01*
X15152930Y11049930D02*
X17613000Y13510000D01*
%TO.N,AUDIO*%
X19137000Y8303000D02*
X20453853Y6986147D01*
X30313000Y8575000D02*
X32472000Y8575000D01*
X27472147Y6986147D02*
X29061000Y8575000D01*
X29061000Y8575000D02*
X30313000Y8575000D01*
X20453853Y6986147D02*
X27472147Y6986147D01*
%TD*%
%TA.AperFunction,Conductor*%
%TO.N,GND*%
G36*
X6368682Y9940341D02*
G01*
X6407940Y9881186D01*
X6412890Y9830752D01*
X6412496Y9827000D01*
X6413009Y9822122D01*
X6432457Y9637073D01*
X6450144Y9582639D01*
X6491473Y9455444D01*
X6491476Y9455439D01*
X6586958Y9290059D01*
X6586965Y9290049D01*
X6714744Y9148136D01*
X6733441Y9134552D01*
X6869248Y9035882D01*
X6970940Y8990606D01*
X7025035Y8944627D01*
X7045685Y8876700D01*
X7026333Y8808392D01*
X6973123Y8761390D01*
X6919692Y8749500D01*
X6823456Y8749500D01*
X6719574Y8738888D01*
X6551261Y8683115D01*
X6400347Y8590030D01*
X6400341Y8590025D01*
X6274972Y8464656D01*
X6272834Y8461951D01*
X6270895Y8460579D01*
X6269780Y8459463D01*
X6269589Y8459654D01*
X6214892Y8420924D01*
X6143967Y8417736D01*
X6082577Y8453398D01*
X6075166Y8461951D01*
X6073027Y8464656D01*
X5947658Y8590025D01*
X5947652Y8590030D01*
X5909262Y8613709D01*
X5796738Y8683115D01*
X5696135Y8716451D01*
X5628427Y8738887D01*
X5628420Y8738888D01*
X5524553Y8749500D01*
X4773455Y8749500D01*
X4669574Y8738888D01*
X4501261Y8683115D01*
X4350347Y8590030D01*
X4350341Y8590025D01*
X4224975Y8464659D01*
X4224970Y8464653D01*
X4131883Y8313735D01*
X4114365Y8260867D01*
X4073951Y8202496D01*
X4008395Y8175240D01*
X3994761Y8174500D01*
X3853853Y8174500D01*
X3838011Y8176250D01*
X3837984Y8175956D01*
X3830091Y8176703D01*
X3762001Y8174562D01*
X3758043Y8174500D01*
X3730144Y8174500D01*
X3730138Y8174500D01*
X3730132Y8174499D01*
X3726133Y8173994D01*
X3714313Y8173064D01*
X3670114Y8171675D01*
X3670107Y8171673D01*
X3650649Y8166021D01*
X3631304Y8162015D01*
X3611206Y8159475D01*
X3611198Y8159473D01*
X3570090Y8143198D01*
X3558866Y8139355D01*
X3516409Y8127019D01*
X3498964Y8116703D01*
X3481218Y8108010D01*
X3462382Y8100552D01*
X3426610Y8074563D01*
X3416694Y8068049D01*
X3378637Y8045542D01*
X3364311Y8031216D01*
X3349285Y8018383D01*
X3332895Y8006475D01*
X3332893Y8006473D01*
X3304705Y7972401D01*
X3296719Y7963625D01*
X2930501Y7597405D01*
X2868189Y7563380D01*
X2841405Y7560500D01*
X2785513Y7560500D01*
X2598711Y7520794D01*
X2424247Y7443118D01*
X2269744Y7330865D01*
X2141965Y7188952D01*
X2141958Y7188942D01*
X2049109Y7028122D01*
X2046473Y7023556D01*
X2034963Y6988133D01*
X1987457Y6841928D01*
X1967496Y6652000D01*
X1987457Y6462073D01*
X2007989Y6398885D01*
X2046473Y6280444D01*
X2046476Y6280439D01*
X2141958Y6115059D01*
X2141965Y6115049D01*
X2269744Y5973136D01*
X2290599Y5957984D01*
X2424248Y5860882D01*
X2598712Y5783206D01*
X2785513Y5743500D01*
X2976487Y5743500D01*
X3163288Y5783206D01*
X3337752Y5860882D01*
X3492253Y5973134D01*
X3563015Y6051723D01*
X3620034Y6115049D01*
X3620035Y6115051D01*
X3620040Y6115056D01*
X3715527Y6280444D01*
X3774542Y6462072D01*
X3791907Y6627295D01*
X3818919Y6692948D01*
X3828111Y6703207D01*
X3928729Y6803825D01*
X3991040Y6837849D01*
X4061856Y6832783D01*
X4118692Y6790236D01*
X4130603Y6770340D01*
X4224970Y6617348D01*
X4224975Y6617342D01*
X4350341Y6491976D01*
X4350347Y6491971D01*
X4350348Y6491970D01*
X4501262Y6398885D01*
X4669574Y6343113D01*
X4773455Y6332500D01*
X5524544Y6332501D01*
X5628426Y6343113D01*
X5796738Y6398885D01*
X5947652Y6491970D01*
X6073030Y6617348D01*
X6073031Y6617351D01*
X6075162Y6620044D01*
X6077098Y6621416D01*
X6078220Y6622537D01*
X6078411Y6622346D01*
X6133101Y6661075D01*
X6204026Y6664267D01*
X6265418Y6628608D01*
X6272838Y6620044D01*
X6274971Y6617346D01*
X6400341Y6491976D01*
X6400347Y6491971D01*
X6400348Y6491970D01*
X6537255Y6407525D01*
X6584733Y6354739D01*
X6588259Y6346669D01*
X6596799Y6325100D01*
X6600644Y6313871D01*
X6612982Y6271407D01*
X6623294Y6253969D01*
X6631988Y6236221D01*
X6639444Y6217391D01*
X6639450Y6217380D01*
X6665432Y6181619D01*
X6671949Y6171699D01*
X6694458Y6133638D01*
X6694459Y6133637D01*
X6694461Y6133634D01*
X6708779Y6119316D01*
X6721617Y6104286D01*
X6733526Y6087896D01*
X6733530Y6087891D01*
X6767592Y6059713D01*
X6776373Y6051723D01*
X7140878Y5687217D01*
X7174903Y5624905D01*
X7177092Y5611293D01*
X7194458Y5446069D01*
X7195830Y5439615D01*
X7193804Y5439185D01*
X7195555Y5377971D01*
X7158894Y5317172D01*
X7095182Y5285846D01*
X7073694Y5284000D01*
X7021500Y5284000D01*
X7021500Y2896500D01*
X8418500Y2896500D01*
X8418500Y4286907D01*
X8418499Y4286927D01*
X8415740Y4333239D01*
X8371917Y4534694D01*
X8336929Y4616398D01*
X8328499Y4686893D01*
X8359520Y4750753D01*
X8401505Y4781105D01*
X8544752Y4844882D01*
X8699253Y4957134D01*
X8746828Y5009971D01*
X8827034Y5099049D01*
X8827035Y5099051D01*
X8827040Y5099056D01*
X8922527Y5264444D01*
X8981542Y5446072D01*
X9001504Y5636000D01*
X8981542Y5825928D01*
X8922527Y6007556D01*
X8827040Y6172944D01*
X8827038Y6172946D01*
X8827034Y6172952D01*
X8699255Y6314865D01*
X8544752Y6427118D01*
X8370284Y6504796D01*
X8265240Y6527124D01*
X8202767Y6560852D01*
X8168446Y6623002D01*
X8173174Y6693841D01*
X8184194Y6716512D01*
X8216115Y6768262D01*
X8271887Y6936574D01*
X8282500Y7040455D01*
X8282499Y7895960D01*
X8302501Y7964080D01*
X8356157Y8010573D01*
X8426431Y8020677D01*
X8477737Y8001230D01*
X8513409Y7977768D01*
X8513415Y7977765D01*
X8551015Y7964080D01*
X8680031Y7917122D01*
X8680044Y7917121D01*
X8683372Y7916331D01*
X8685432Y7915156D01*
X8686927Y7914612D01*
X8686834Y7914357D01*
X8745046Y7881161D01*
X8777914Y7818231D01*
X8771542Y7747521D01*
X8766924Y7737190D01*
X8765376Y7734108D01*
X8704731Y7567487D01*
X8704730Y7567485D01*
X8690885Y7449030D01*
X8684146Y7391371D01*
X8699045Y7263910D01*
X8704732Y7215259D01*
X8739012Y7116632D01*
X8739014Y7116628D01*
X8739015Y7116625D01*
X9056440Y6435908D01*
X9109960Y6346244D01*
X9231638Y6217271D01*
X9291631Y6177813D01*
X9302738Y6170508D01*
X9348661Y6116363D01*
X9359500Y6065236D01*
X9359500Y5973854D01*
X9357751Y5958012D01*
X9358044Y5957984D01*
X9357298Y5950093D01*
X9359438Y5882016D01*
X9359500Y5878057D01*
X9359500Y5850149D01*
X9359501Y5850131D01*
X9360007Y5846123D01*
X9360937Y5834304D01*
X9362326Y5790112D01*
X9362327Y5790107D01*
X9367977Y5770661D01*
X9371986Y5751303D01*
X9374525Y5731207D01*
X9374526Y5731200D01*
X9390800Y5690097D01*
X9394644Y5678871D01*
X9406982Y5636407D01*
X9417294Y5618969D01*
X9425988Y5601221D01*
X9433444Y5582391D01*
X9433450Y5582380D01*
X9459432Y5546619D01*
X9465949Y5536699D01*
X9488458Y5498638D01*
X9488459Y5498637D01*
X9488461Y5498634D01*
X9502779Y5484316D01*
X9515617Y5469286D01*
X9527526Y5452896D01*
X9527530Y5452891D01*
X9561592Y5424713D01*
X9570372Y5416723D01*
X9595510Y5391585D01*
X9629536Y5329273D01*
X9624471Y5258458D01*
X9581924Y5201622D01*
X9556015Y5186663D01*
X9486060Y5156707D01*
X9486057Y5156705D01*
X9315246Y5041098D01*
X9315240Y5041093D01*
X9169407Y4895260D01*
X9169402Y4895254D01*
X9053795Y4724443D01*
X9053793Y4724440D01*
X8972601Y4534840D01*
X8928759Y4333299D01*
X8926000Y4286974D01*
X8926000Y998027D01*
X8928759Y951702D01*
X8972601Y750161D01*
X8972602Y750159D01*
X9053795Y560557D01*
X9169184Y390069D01*
X9169402Y389747D01*
X9169407Y389741D01*
X9315240Y243908D01*
X9315246Y243903D01*
X9315247Y243902D01*
X9334536Y230847D01*
X9379739Y176100D01*
X9388167Y105605D01*
X9357146Y41745D01*
X9296523Y4793D01*
X9263912Y500D01*
X8080195Y500D01*
X8012074Y20502D01*
X7965581Y74158D01*
X7955477Y144432D01*
X7984971Y209012D01*
X8009572Y230848D01*
X8029433Y244291D01*
X8029437Y244294D01*
X8175206Y390063D01*
X8175211Y390069D01*
X8290763Y560799D01*
X8290765Y560802D01*
X8371918Y750310D01*
X8415740Y951762D01*
X8418499Y998074D01*
X8418500Y998094D01*
X8418500Y2388500D01*
X5116500Y2388500D01*
X5116500Y998074D01*
X5119259Y951762D01*
X5163081Y750310D01*
X5244234Y560802D01*
X5244236Y560799D01*
X5359788Y390069D01*
X5359793Y390063D01*
X5505562Y244294D01*
X5505566Y244291D01*
X5525428Y230848D01*
X5570631Y176101D01*
X5579061Y105607D01*
X5548040Y41746D01*
X5487418Y4794D01*
X5454805Y500D01*
X4271088Y500D01*
X4202967Y20502D01*
X4156474Y74158D01*
X4146370Y144432D01*
X4175864Y209012D01*
X4200464Y230847D01*
X4219753Y243902D01*
X4365598Y389747D01*
X4481205Y560557D01*
X4562398Y750159D01*
X4606240Y951700D01*
X4609000Y998030D01*
X4609000Y2896500D01*
X5116500Y2896500D01*
X6513500Y2896500D01*
X6513500Y5284000D01*
X6113573Y5284000D01*
X6067261Y5281241D01*
X5865809Y5237419D01*
X5676301Y5156266D01*
X5676298Y5156264D01*
X5505568Y5040712D01*
X5505562Y5040707D01*
X5359793Y4894938D01*
X5359788Y4894932D01*
X5244236Y4724202D01*
X5244234Y4724199D01*
X5163081Y4534691D01*
X5119259Y4333239D01*
X5116500Y4286927D01*
X5116500Y2896500D01*
X4609000Y2896500D01*
X4609000Y4286970D01*
X4606240Y4333300D01*
X4562398Y4534841D01*
X4481205Y4724443D01*
X4365598Y4895253D01*
X4365597Y4895254D01*
X4365592Y4895260D01*
X4219759Y5041093D01*
X4219753Y5041098D01*
X4134130Y5099049D01*
X4048943Y5156705D01*
X4048940Y5156707D01*
X4048939Y5156707D01*
X3859339Y5237899D01*
X3657798Y5281741D01*
X3611473Y5284500D01*
X3611470Y5284500D01*
X2303530Y5284500D01*
X2303526Y5284500D01*
X2257201Y5281741D01*
X2055660Y5237899D01*
X1866060Y5156707D01*
X1866057Y5156705D01*
X1695246Y5041098D01*
X1695240Y5041093D01*
X1549407Y4895260D01*
X1549402Y4895254D01*
X1433795Y4724443D01*
X1433793Y4724440D01*
X1352601Y4534840D01*
X1308759Y4333299D01*
X1306000Y4286974D01*
X1306000Y998027D01*
X1308759Y951702D01*
X1352601Y750161D01*
X1352602Y750159D01*
X1433795Y560557D01*
X1549184Y390069D01*
X1549402Y389747D01*
X1549407Y389741D01*
X1695240Y243908D01*
X1695246Y243903D01*
X1695247Y243902D01*
X1714536Y230847D01*
X1759739Y176100D01*
X1768167Y105605D01*
X1737146Y41745D01*
X1676523Y4793D01*
X1643912Y500D01*
X126500Y500D01*
X58379Y20502D01*
X11886Y74158D01*
X500Y126500D01*
X500Y6920012D01*
X20502Y6988133D01*
X72475Y7033842D01*
X6233559Y9957747D01*
X6303675Y9968882D01*
X6368682Y9940341D01*
G37*
%TD.AperFunction*%
%TA.AperFunction,Conductor*%
G36*
X12672845Y7270691D02*
G01*
X12680186Y7263910D01*
X14604595Y5339501D01*
X14638621Y5277189D01*
X14641500Y5250406D01*
X14641500Y2896500D01*
X16038500Y2896500D01*
X16038500Y3601406D01*
X16058502Y3669527D01*
X16112158Y3716020D01*
X16182432Y3726124D01*
X16247012Y3696630D01*
X16253595Y3690501D01*
X16509095Y3435001D01*
X16543121Y3372689D01*
X16546000Y3345906D01*
X16546000Y998027D01*
X16548759Y951702D01*
X16592601Y750161D01*
X16592602Y750159D01*
X16673795Y560557D01*
X16789184Y390069D01*
X16789402Y389747D01*
X16789407Y389741D01*
X16935240Y243908D01*
X16935246Y243903D01*
X16935247Y243902D01*
X16954536Y230847D01*
X16999739Y176100D01*
X17008167Y105605D01*
X16977146Y41745D01*
X16916523Y4793D01*
X16883912Y500D01*
X15700195Y500D01*
X15632074Y20502D01*
X15585581Y74158D01*
X15575477Y144432D01*
X15604971Y209012D01*
X15629572Y230848D01*
X15649433Y244291D01*
X15649437Y244294D01*
X15795206Y390063D01*
X15795211Y390069D01*
X15910763Y560799D01*
X15910765Y560802D01*
X15991918Y750310D01*
X16035740Y951762D01*
X16038499Y998074D01*
X16038500Y998094D01*
X16038500Y2388500D01*
X12736500Y2388500D01*
X12736500Y998074D01*
X12739259Y951762D01*
X12783081Y750310D01*
X12864234Y560802D01*
X12864236Y560799D01*
X12979788Y390069D01*
X12979793Y390063D01*
X13125562Y244294D01*
X13125566Y244291D01*
X13145428Y230848D01*
X13190631Y176101D01*
X13199061Y105607D01*
X13168040Y41746D01*
X13107418Y4794D01*
X13074805Y500D01*
X11891088Y500D01*
X11822967Y20502D01*
X11776474Y74158D01*
X11766370Y144432D01*
X11795864Y209012D01*
X11820464Y230847D01*
X11839753Y243902D01*
X11985598Y389747D01*
X12101205Y560557D01*
X12182398Y750159D01*
X12226240Y951700D01*
X12229000Y998030D01*
X12229000Y2896500D01*
X12736500Y2896500D01*
X14133500Y2896500D01*
X14133500Y5284000D01*
X13733573Y5284000D01*
X13687261Y5281241D01*
X13485809Y5237419D01*
X13296301Y5156266D01*
X13296298Y5156264D01*
X13125568Y5040712D01*
X13125562Y5040707D01*
X12979793Y4894938D01*
X12979788Y4894932D01*
X12864236Y4724202D01*
X12864234Y4724199D01*
X12783081Y4534691D01*
X12739259Y4333239D01*
X12736500Y4286927D01*
X12736500Y2896500D01*
X12229000Y2896500D01*
X12229000Y4286970D01*
X12226240Y4333300D01*
X12182398Y4534841D01*
X12101205Y4724443D01*
X11985598Y4895253D01*
X11985597Y4895254D01*
X11985592Y4895260D01*
X11839759Y5041093D01*
X11839753Y5041098D01*
X11754130Y5099049D01*
X11668943Y5156705D01*
X11668940Y5156707D01*
X11668939Y5156707D01*
X11531925Y5215380D01*
X11479341Y5237898D01*
X11479338Y5237899D01*
X11479333Y5237901D01*
X11479335Y5237901D01*
X11307673Y5275243D01*
X11245361Y5309268D01*
X11211335Y5371580D01*
X11208519Y5394405D01*
X11208174Y5405389D01*
X11202517Y5424858D01*
X11198512Y5444202D01*
X11195974Y5464297D01*
X11179696Y5505408D01*
X11175856Y5516623D01*
X11163518Y5559093D01*
X11153206Y5576530D01*
X11144510Y5594279D01*
X11137052Y5613117D01*
X11111052Y5648902D01*
X11104559Y5658786D01*
X11082042Y5696862D01*
X11067714Y5711190D01*
X11054884Y5726211D01*
X11042972Y5742607D01*
X11042969Y5742609D01*
X11042969Y5742610D01*
X11008900Y5770795D01*
X11000121Y5778783D01*
X10663404Y6115501D01*
X10629379Y6177813D01*
X10626500Y6204596D01*
X10626500Y6306626D01*
X10646502Y6374747D01*
X10699250Y6420821D01*
X10904553Y6516555D01*
X10994218Y6570076D01*
X11123190Y6691754D01*
X11220625Y6839897D01*
X11281269Y7006515D01*
X11281269Y7006523D01*
X11282522Y7009963D01*
X11324617Y7067135D01*
X11390938Y7092473D01*
X11444017Y7085271D01*
X11585310Y7033844D01*
X11601031Y7028122D01*
X11777144Y7007538D01*
X11777145Y7007538D01*
X11953258Y7028123D01*
X12051891Y7062406D01*
X12537844Y7289011D01*
X12608032Y7299671D01*
X12672845Y7270691D01*
G37*
%TD.AperFunction*%
%TA.AperFunction,Conductor*%
G36*
X17243648Y12140580D02*
G01*
X17300484Y12098033D01*
X17313811Y12075774D01*
X17487434Y11703439D01*
X17745392Y11150247D01*
X17798913Y11060584D01*
X17920592Y10931612D01*
X18068734Y10834176D01*
X18068735Y10834176D01*
X18068736Y10834175D01*
X18118653Y10816007D01*
X18235353Y10773532D01*
X18411467Y10752948D01*
X18483863Y10761410D01*
X18553843Y10749452D01*
X18606251Y10701557D01*
X18624445Y10632931D01*
X18602649Y10565363D01*
X18551739Y10522067D01*
X16777247Y9694608D01*
X16687582Y9641086D01*
X16558612Y9519408D01*
X16461175Y9371265D01*
X16461174Y9371264D01*
X16400532Y9204648D01*
X16379948Y9028534D01*
X16400532Y8852418D01*
X16400533Y8852416D01*
X16434814Y8753791D01*
X16591519Y8417736D01*
X17745392Y5943247D01*
X17798913Y5853584D01*
X17920592Y5724612D01*
X18068734Y5627176D01*
X18068735Y5627176D01*
X18068736Y5627175D01*
X18107361Y5613117D01*
X18235353Y5566532D01*
X18411467Y5545948D01*
X18587580Y5566532D01*
X18686213Y5600816D01*
X20284372Y6346051D01*
X20354563Y6356711D01*
X20368956Y6353896D01*
X20373815Y6352649D01*
X20373823Y6352647D01*
X20394084Y6352647D01*
X20413792Y6351097D01*
X20433796Y6347928D01*
X20477807Y6352089D01*
X20489664Y6352647D01*
X24887473Y6352647D01*
X24955594Y6332645D01*
X25002087Y6278989D01*
X25012191Y6208715D01*
X24996592Y6163647D01*
X24931973Y6051723D01*
X24906473Y6007556D01*
X24895289Y5973136D01*
X24847457Y5825928D01*
X24827496Y5636000D01*
X24847457Y5446072D01*
X24879601Y5347145D01*
X24881629Y5276178D01*
X24844966Y5215380D01*
X24809369Y5192383D01*
X24726065Y5156710D01*
X24726057Y5156705D01*
X24555246Y5041098D01*
X24555240Y5041093D01*
X24409407Y4895260D01*
X24409402Y4895254D01*
X24293795Y4724443D01*
X24293793Y4724440D01*
X24212601Y4534840D01*
X24168759Y4333299D01*
X24166000Y4286974D01*
X24166000Y998027D01*
X24168759Y951702D01*
X24212601Y750161D01*
X24212602Y750159D01*
X24293795Y560557D01*
X24409184Y390069D01*
X24409402Y389747D01*
X24409407Y389741D01*
X24555240Y243908D01*
X24555246Y243903D01*
X24555247Y243902D01*
X24574536Y230847D01*
X24619739Y176100D01*
X24628167Y105605D01*
X24597146Y41745D01*
X24536523Y4793D01*
X24503912Y500D01*
X23320195Y500D01*
X23252074Y20502D01*
X23205581Y74158D01*
X23195477Y144432D01*
X23224971Y209012D01*
X23249572Y230848D01*
X23269433Y244291D01*
X23269437Y244294D01*
X23415206Y390063D01*
X23415211Y390069D01*
X23530763Y560799D01*
X23530765Y560802D01*
X23611918Y750310D01*
X23655740Y951762D01*
X23658499Y998074D01*
X23658500Y998094D01*
X23658500Y2388500D01*
X20356500Y2388500D01*
X20356500Y998074D01*
X20359259Y951762D01*
X20403081Y750310D01*
X20484234Y560802D01*
X20484236Y560799D01*
X20599788Y390069D01*
X20599793Y390063D01*
X20745562Y244294D01*
X20745566Y244291D01*
X20765428Y230848D01*
X20810631Y176101D01*
X20819061Y105607D01*
X20788040Y41746D01*
X20727418Y4794D01*
X20694805Y500D01*
X19511088Y500D01*
X19442967Y20502D01*
X19396474Y74158D01*
X19386370Y144432D01*
X19415864Y209012D01*
X19440464Y230847D01*
X19459753Y243902D01*
X19605598Y389747D01*
X19721205Y560557D01*
X19802398Y750159D01*
X19846240Y951700D01*
X19849000Y998030D01*
X19849000Y2896500D01*
X20356500Y2896500D01*
X21753500Y2896500D01*
X21753500Y5284000D01*
X22261500Y5284000D01*
X22261500Y2896500D01*
X23658500Y2896500D01*
X23658500Y4286907D01*
X23658499Y4286927D01*
X23655740Y4333239D01*
X23611918Y4534691D01*
X23530765Y4724199D01*
X23530763Y4724202D01*
X23415211Y4894932D01*
X23415206Y4894938D01*
X23269437Y5040707D01*
X23269431Y5040712D01*
X23098701Y5156264D01*
X23098698Y5156266D01*
X22909190Y5237419D01*
X22707738Y5281241D01*
X22661426Y5284000D01*
X22261500Y5284000D01*
X21753500Y5284000D01*
X21353573Y5284000D01*
X21307261Y5281241D01*
X21105809Y5237419D01*
X20916301Y5156266D01*
X20916298Y5156264D01*
X20745568Y5040712D01*
X20745562Y5040707D01*
X20599793Y4894938D01*
X20599788Y4894932D01*
X20484236Y4724202D01*
X20484234Y4724199D01*
X20403081Y4534691D01*
X20359259Y4333239D01*
X20356500Y4286927D01*
X20356500Y2896500D01*
X19849000Y2896500D01*
X19849000Y4286970D01*
X19846240Y4333300D01*
X19802398Y4534841D01*
X19721205Y4724443D01*
X19605598Y4895253D01*
X19605597Y4895254D01*
X19605592Y4895260D01*
X19459759Y5041093D01*
X19459753Y5041098D01*
X19374130Y5099049D01*
X19288943Y5156705D01*
X19288940Y5156707D01*
X19288939Y5156707D01*
X19099339Y5237899D01*
X18897798Y5281741D01*
X18851473Y5284500D01*
X18851470Y5284500D01*
X17543530Y5284500D01*
X17543526Y5284500D01*
X17497201Y5281741D01*
X17295660Y5237899D01*
X17106060Y5156707D01*
X17106057Y5156705D01*
X16935246Y5041098D01*
X16935245Y5041097D01*
X16904118Y5009971D01*
X16841805Y4975948D01*
X16770989Y4981015D01*
X16725930Y5009974D01*
X15572499Y6163405D01*
X15538473Y6225717D01*
X15543538Y6296532D01*
X15586085Y6353368D01*
X15652605Y6378179D01*
X15661594Y6378500D01*
X15803487Y6378500D01*
X15990288Y6418206D01*
X16164752Y6495882D01*
X16319253Y6608134D01*
X16327548Y6617346D01*
X16447034Y6750049D01*
X16447035Y6750051D01*
X16447040Y6750056D01*
X16542527Y6915444D01*
X16601542Y7097072D01*
X16621504Y7287000D01*
X16601542Y7476928D01*
X16542527Y7658556D01*
X16447040Y7823944D01*
X16447038Y7823946D01*
X16447034Y7823952D01*
X16319255Y7965865D01*
X16231827Y8029385D01*
X16164752Y8078118D01*
X16009498Y8147241D01*
X15971653Y8173252D01*
X15372174Y8772731D01*
X15338148Y8835043D01*
X15342870Y8904927D01*
X15345269Y8911515D01*
X15365854Y9087629D01*
X15345268Y9263741D01*
X15310985Y9362375D01*
X14993560Y10043092D01*
X14940040Y10132756D01*
X14872858Y10203966D01*
X14840661Y10267240D01*
X14847784Y10337879D01*
X14891967Y10393452D01*
X14959181Y10416317D01*
X14964509Y10416430D01*
X15069077Y10416430D01*
X15084918Y10414681D01*
X15084946Y10414974D01*
X15092832Y10414230D01*
X15092839Y10414228D01*
X15160916Y10416368D01*
X15164875Y10416430D01*
X15192781Y10416430D01*
X15192786Y10416430D01*
X15196797Y10416938D01*
X15208629Y10417869D01*
X15252819Y10419257D01*
X15272277Y10424911D01*
X15291624Y10428917D01*
X15311727Y10431456D01*
X15352840Y10447735D01*
X15364060Y10451577D01*
X15388843Y10458776D01*
X15406521Y10463911D01*
X15406525Y10463913D01*
X15423956Y10474222D01*
X15441710Y10482921D01*
X15460547Y10490378D01*
X15496322Y10516372D01*
X15506228Y10522879D01*
X15544292Y10545388D01*
X15558615Y10559712D01*
X15573654Y10572556D01*
X15590037Y10584458D01*
X15618233Y10618544D01*
X15626202Y10627300D01*
X17110523Y12111621D01*
X17172833Y12145645D01*
X17243648Y12140580D01*
G37*
%TD.AperFunction*%
%TA.AperFunction,Conductor*%
G36*
X27404135Y6350898D02*
G01*
X27404163Y6351191D01*
X27412049Y6350447D01*
X27412056Y6350445D01*
X27480133Y6352585D01*
X27484092Y6352647D01*
X27503488Y6352647D01*
X27571609Y6332645D01*
X27618102Y6278989D01*
X27628798Y6213477D01*
X27622379Y6152405D01*
X27621496Y6144000D01*
X27622634Y6133175D01*
X27641457Y5954073D01*
X27665512Y5880043D01*
X27700473Y5772444D01*
X27707000Y5761139D01*
X27795958Y5607059D01*
X27795965Y5607049D01*
X27923744Y5465136D01*
X27983805Y5421499D01*
X28078248Y5352882D01*
X28252712Y5275206D01*
X28313064Y5262378D01*
X28375538Y5228650D01*
X28409859Y5166501D01*
X28405132Y5095662D01*
X28369460Y5045306D01*
X28369811Y5044955D01*
X28367756Y5042901D01*
X28367105Y5041981D01*
X28365565Y5040710D01*
X28219793Y4894938D01*
X28219788Y4894932D01*
X28104236Y4724202D01*
X28104234Y4724199D01*
X28023081Y4534691D01*
X27979259Y4333239D01*
X27976500Y4286927D01*
X27976500Y2896500D01*
X31278500Y2896500D01*
X31278500Y4286907D01*
X31278499Y4286927D01*
X31275740Y4333239D01*
X31231918Y4534691D01*
X31150765Y4724199D01*
X31150763Y4724202D01*
X31035211Y4894932D01*
X31035206Y4894938D01*
X30889437Y5040707D01*
X30889431Y5040712D01*
X30718701Y5156264D01*
X30718698Y5156266D01*
X30617331Y5199674D01*
X30562584Y5244877D01*
X30540967Y5312503D01*
X30559342Y5381080D01*
X30611876Y5428837D01*
X30666930Y5441501D01*
X30813544Y5441501D01*
X30917426Y5452113D01*
X31085738Y5507885D01*
X31236652Y5600970D01*
X31262858Y5627176D01*
X31303405Y5667722D01*
X31365717Y5701748D01*
X31436532Y5696683D01*
X31481595Y5667722D01*
X31548341Y5600976D01*
X31548347Y5600971D01*
X31548348Y5600970D01*
X31699262Y5507885D01*
X31867574Y5452113D01*
X31971455Y5441500D01*
X32396798Y5441501D01*
X32464917Y5421499D01*
X32511411Y5367844D01*
X32521515Y5297570D01*
X32492022Y5232989D01*
X32446398Y5199675D01*
X32346065Y5156710D01*
X32346057Y5156705D01*
X32175246Y5041098D01*
X32175240Y5041093D01*
X32029407Y4895260D01*
X32029402Y4895254D01*
X31913795Y4724443D01*
X31913793Y4724440D01*
X31832601Y4534840D01*
X31788759Y4333299D01*
X31786000Y4286974D01*
X31786000Y998027D01*
X31788759Y951702D01*
X31832601Y750161D01*
X31832602Y750159D01*
X31913795Y560557D01*
X32029184Y390069D01*
X32029402Y389747D01*
X32029407Y389741D01*
X32175240Y243908D01*
X32175246Y243903D01*
X32175247Y243902D01*
X32194536Y230847D01*
X32239739Y176100D01*
X32248167Y105605D01*
X32217146Y41745D01*
X32156523Y4793D01*
X32123912Y500D01*
X30940195Y500D01*
X30872074Y20502D01*
X30825581Y74158D01*
X30815477Y144432D01*
X30844971Y209012D01*
X30869572Y230848D01*
X30889433Y244291D01*
X30889437Y244294D01*
X31035206Y390063D01*
X31035211Y390069D01*
X31150763Y560799D01*
X31150765Y560802D01*
X31231918Y750310D01*
X31275740Y951762D01*
X31278499Y998074D01*
X31278500Y998094D01*
X31278500Y2388500D01*
X27976500Y2388500D01*
X27976500Y998074D01*
X27979259Y951762D01*
X28023081Y750310D01*
X28104234Y560802D01*
X28104236Y560799D01*
X28219788Y390069D01*
X28219793Y390063D01*
X28365562Y244294D01*
X28365566Y244291D01*
X28385428Y230848D01*
X28430631Y176101D01*
X28439061Y105607D01*
X28408040Y41746D01*
X28347418Y4794D01*
X28314805Y500D01*
X27131088Y500D01*
X27062967Y20502D01*
X27016474Y74158D01*
X27006370Y144432D01*
X27035864Y209012D01*
X27060464Y230847D01*
X27079753Y243902D01*
X27225598Y389747D01*
X27341205Y560557D01*
X27422398Y750159D01*
X27466240Y951700D01*
X27469000Y998030D01*
X27469000Y4286970D01*
X27466240Y4333300D01*
X27422398Y4534841D01*
X27341205Y4724443D01*
X27225598Y4895253D01*
X27225597Y4895254D01*
X27225592Y4895260D01*
X27079759Y5041093D01*
X27079753Y5041098D01*
X26994130Y5099049D01*
X26908943Y5156705D01*
X26908940Y5156707D01*
X26908939Y5156707D01*
X26838985Y5186663D01*
X26719341Y5237898D01*
X26719338Y5237899D01*
X26719335Y5237900D01*
X26713051Y5239267D01*
X26650739Y5273292D01*
X26616714Y5335604D01*
X26620003Y5401325D01*
X26634540Y5446064D01*
X26634542Y5446074D01*
X26635177Y5452114D01*
X26654504Y5636000D01*
X26634542Y5825928D01*
X26575527Y6007556D01*
X26502736Y6133634D01*
X26485408Y6163647D01*
X26468670Y6232642D01*
X26491890Y6299734D01*
X26547698Y6343621D01*
X26594527Y6352647D01*
X27388294Y6352647D01*
X27404135Y6350898D01*
G37*
%TD.AperFunction*%
%TA.AperFunction,Conductor*%
G36*
X25672574Y19101510D02*
G01*
X25711832Y19042355D01*
X25712876Y18971366D01*
X25709873Y18961990D01*
X25671531Y18856646D01*
X25650948Y18680534D01*
X25671532Y18504418D01*
X25671533Y18504416D01*
X25705814Y18405791D01*
X25780597Y18245418D01*
X27016392Y15595247D01*
X27069913Y15505584D01*
X27191592Y15376612D01*
X27339734Y15279176D01*
X27339735Y15279176D01*
X27339736Y15279175D01*
X27389653Y15261007D01*
X27506353Y15218532D01*
X27682467Y15197948D01*
X27858580Y15218532D01*
X27957213Y15252816D01*
X30767753Y16563392D01*
X30857416Y16616913D01*
X30986388Y16738592D01*
X31083824Y16886734D01*
X31144468Y17053353D01*
X31165052Y17229467D01*
X31144468Y17405580D01*
X31110184Y17504213D01*
X30434851Y18952469D01*
X30424191Y19022658D01*
X30453171Y19087470D01*
X30512591Y19126327D01*
X30583585Y19126890D01*
X30643614Y19088981D01*
X30657091Y19070542D01*
X36994850Y8507609D01*
X36998157Y8501068D01*
X36999723Y8499511D01*
X36999868Y8499475D01*
X36999869Y8499474D01*
X36999870Y8499475D01*
X37002016Y8498937D01*
X37009512Y8499500D01*
X39373500Y8499500D01*
X39441621Y8479498D01*
X39488114Y8425842D01*
X39499500Y8373500D01*
X39499500Y126500D01*
X39479498Y58379D01*
X39425842Y11886D01*
X39373500Y500D01*
X38561088Y500D01*
X38492967Y20502D01*
X38446474Y74158D01*
X38436370Y144432D01*
X38465864Y209012D01*
X38490464Y230847D01*
X38509753Y243902D01*
X38655598Y389747D01*
X38771205Y560557D01*
X38852398Y750159D01*
X38896240Y951700D01*
X38899000Y998030D01*
X38899000Y4286970D01*
X38896240Y4333300D01*
X38852398Y4534841D01*
X38771205Y4724443D01*
X38655598Y4895253D01*
X38655597Y4895254D01*
X38655592Y4895260D01*
X38509759Y5041093D01*
X38509753Y5041098D01*
X38424130Y5099049D01*
X38338943Y5156705D01*
X38338940Y5156707D01*
X38338939Y5156707D01*
X38149339Y5237899D01*
X37947798Y5281741D01*
X37901473Y5284500D01*
X37901470Y5284500D01*
X37707698Y5284500D01*
X37639577Y5304502D01*
X37593084Y5358158D01*
X37582980Y5428432D01*
X37598579Y5473500D01*
X37610593Y5494310D01*
X37624527Y5518444D01*
X37683542Y5700072D01*
X37703504Y5890000D01*
X37683542Y6079928D01*
X37624527Y6261556D01*
X37529040Y6426944D01*
X37529038Y6426946D01*
X37529034Y6426952D01*
X37401255Y6568865D01*
X37246752Y6681118D01*
X37072288Y6758794D01*
X36885487Y6798500D01*
X36829595Y6798500D01*
X36761474Y6818502D01*
X36740500Y6835405D01*
X36662244Y6913661D01*
X36652280Y6926098D01*
X36652053Y6925910D01*
X36647000Y6932018D01*
X36597348Y6978644D01*
X36594504Y6981401D01*
X36574777Y7001129D01*
X36574771Y7001134D01*
X36571567Y7003620D01*
X36562556Y7011317D01*
X36530325Y7041583D01*
X36530319Y7041587D01*
X36512563Y7051349D01*
X36496047Y7062198D01*
X36480041Y7074614D01*
X36439464Y7092173D01*
X36428807Y7097395D01*
X36390063Y7118694D01*
X36390060Y7118695D01*
X36370436Y7123734D01*
X36351736Y7130136D01*
X36333145Y7138181D01*
X36333143Y7138182D01*
X36333141Y7138182D01*
X36289474Y7145099D01*
X36277855Y7147505D01*
X36235030Y7158500D01*
X36214776Y7158500D01*
X36195066Y7160051D01*
X36175057Y7163220D01*
X36140518Y7159955D01*
X36131039Y7159059D01*
X36119181Y7158500D01*
X33693220Y7158500D01*
X33625099Y7178502D01*
X33585979Y7218353D01*
X33557879Y7263910D01*
X33521030Y7323652D01*
X33521029Y7323653D01*
X33521024Y7323659D01*
X33395654Y7449029D01*
X33392956Y7451162D01*
X33391584Y7453099D01*
X33390463Y7454220D01*
X33390654Y7454412D01*
X33351925Y7509101D01*
X33348733Y7580026D01*
X33384392Y7641418D01*
X33392956Y7648838D01*
X33395649Y7650969D01*
X33395652Y7650970D01*
X33521030Y7776348D01*
X33614115Y7927262D01*
X33669887Y8095574D01*
X33680500Y8199455D01*
X33680499Y8950544D01*
X33669887Y9054426D01*
X33614115Y9222738D01*
X33521030Y9373652D01*
X33521029Y9373653D01*
X33521024Y9373659D01*
X33395658Y9499025D01*
X33395652Y9499030D01*
X33360461Y9520736D01*
X33244738Y9592115D01*
X33160582Y9620001D01*
X33076427Y9647887D01*
X33076420Y9647888D01*
X32972553Y9658500D01*
X31971455Y9658500D01*
X31867574Y9647888D01*
X31699261Y9592115D01*
X31548347Y9499030D01*
X31548341Y9499025D01*
X31481595Y9432278D01*
X31419283Y9398252D01*
X31348468Y9403317D01*
X31303405Y9432278D01*
X31236658Y9499025D01*
X31236652Y9499030D01*
X31201461Y9520736D01*
X31085738Y9592115D01*
X31001582Y9620001D01*
X30917427Y9647887D01*
X30917420Y9647888D01*
X30813553Y9658500D01*
X29812455Y9658500D01*
X29708574Y9647888D01*
X29540261Y9592115D01*
X29389347Y9499030D01*
X29389341Y9499025D01*
X29263975Y9373659D01*
X29263970Y9373653D01*
X29199865Y9269722D01*
X29147079Y9222244D01*
X29096583Y9209931D01*
X29058923Y9208748D01*
X29053031Y9208562D01*
X29049075Y9208500D01*
X29021144Y9208500D01*
X29018957Y9208224D01*
X29017111Y9207991D01*
X29005304Y9207063D01*
X28961110Y9205674D01*
X28961105Y9205673D01*
X28941660Y9200023D01*
X28922302Y9196014D01*
X28902207Y9193476D01*
X28902205Y9193475D01*
X28861083Y9177195D01*
X28849859Y9173353D01*
X28807410Y9161020D01*
X28807404Y9161018D01*
X28789966Y9150705D01*
X28772220Y9142011D01*
X28753381Y9134552D01*
X28717614Y9108566D01*
X28707698Y9102052D01*
X28669636Y9079542D01*
X28655307Y9065213D01*
X28640281Y9052380D01*
X28623895Y9040475D01*
X28595711Y9006407D01*
X28587723Y8997630D01*
X27246645Y7656551D01*
X27184335Y7622527D01*
X27157552Y7619647D01*
X23362847Y7619647D01*
X23294726Y7639649D01*
X23248233Y7693305D01*
X23238129Y7763579D01*
X23267623Y7828159D01*
X23321478Y7864662D01*
X23346410Y7873329D01*
X23385213Y7886816D01*
X26195753Y9197392D01*
X26285416Y9250913D01*
X26414388Y9372592D01*
X26511824Y9520734D01*
X26572468Y9687353D01*
X26593052Y9863467D01*
X26572468Y10039580D01*
X26538184Y10138213D01*
X25227608Y12948753D01*
X25174087Y13038416D01*
X25052408Y13167388D01*
X24904266Y13264824D01*
X24904264Y13264825D01*
X24904263Y13264826D01*
X24737647Y13325468D01*
X24561534Y13346052D01*
X24561531Y13346052D01*
X24489136Y13337591D01*
X24419154Y13349550D01*
X24366747Y13397446D01*
X24348554Y13466072D01*
X24370351Y13533640D01*
X24421256Y13576931D01*
X25938795Y14284571D01*
X26008983Y14295231D01*
X26073795Y14266251D01*
X26112652Y14206831D01*
X26113215Y14135837D01*
X26078508Y14078727D01*
X25957001Y13964090D01*
X25956997Y13964085D01*
X25859628Y13816044D01*
X25859625Y13816038D01*
X25799023Y13649533D01*
X25799022Y13649531D01*
X25778451Y13473534D01*
X25799022Y13297535D01*
X25799023Y13297532D01*
X25833280Y13198976D01*
X25833284Y13198966D01*
X26381210Y12023932D01*
X27764025Y12668750D01*
X27774650Y12574455D01*
X27832331Y12409612D01*
X27925246Y12261738D01*
X27978664Y12208320D01*
X26595901Y11563526D01*
X27143829Y10388492D01*
X27143834Y10388484D01*
X27197313Y10298887D01*
X27197315Y10298885D01*
X27318915Y10169998D01*
X27466956Y10072629D01*
X27466962Y10072626D01*
X27633467Y10012024D01*
X27633469Y10012023D01*
X27809466Y9991452D01*
X27985465Y10012023D01*
X27985468Y10012024D01*
X28084024Y10046281D01*
X28084034Y10046285D01*
X29259069Y10594213D01*
X28614252Y11977026D01*
X28708545Y11987650D01*
X28873388Y12045331D01*
X29021262Y12138246D01*
X29074680Y12191665D01*
X29719473Y10808904D01*
X30894508Y11356830D01*
X30894516Y11356835D01*
X30984113Y11410314D01*
X30984115Y11410316D01*
X31113002Y11531916D01*
X31210371Y11679957D01*
X31210374Y11679963D01*
X31270976Y11846468D01*
X31270977Y11846470D01*
X31291549Y12022467D01*
X31270977Y12198466D01*
X31270976Y12198469D01*
X31236719Y12297025D01*
X31236715Y12297035D01*
X30688787Y13472071D01*
X29305974Y12827255D01*
X29295350Y12921545D01*
X29237669Y13086388D01*
X29144754Y13234262D01*
X29091333Y13287683D01*
X30474097Y13932476D01*
X29926170Y15107509D01*
X29926165Y15107517D01*
X29872686Y15197114D01*
X29872684Y15197116D01*
X29751084Y15326003D01*
X29603043Y15423372D01*
X29603037Y15423375D01*
X29436532Y15483977D01*
X29436530Y15483978D01*
X29260533Y15504549D01*
X29084534Y15483978D01*
X29084531Y15483977D01*
X28985975Y15449720D01*
X28985965Y15449716D01*
X27810929Y14901789D01*
X28455746Y13518975D01*
X28361455Y13508350D01*
X28196612Y13450669D01*
X28048738Y13357754D01*
X27995318Y13304335D01*
X27350524Y14687099D01*
X26432491Y14259012D01*
X26362299Y14248351D01*
X26297487Y14277331D01*
X26258630Y14336751D01*
X26258067Y14407745D01*
X26292775Y14464856D01*
X26414388Y14579592D01*
X26511824Y14727734D01*
X26572468Y14894353D01*
X26593052Y15070467D01*
X26572468Y15246580D01*
X26538184Y15345213D01*
X25227608Y18155753D01*
X25174087Y18245416D01*
X25052408Y18374388D01*
X24954971Y18438475D01*
X24904265Y18471825D01*
X24774066Y18519213D01*
X24716895Y18561307D01*
X24691557Y18627629D01*
X24706098Y18697120D01*
X24755900Y18747719D01*
X24763116Y18751435D01*
X25537451Y19118916D01*
X25607567Y19130051D01*
X25672574Y19101510D01*
G37*
%TD.AperFunction*%
%TD*%
M02*
