%TF.GenerationSoftware,KiCad,Pcbnew,7.0.10*%
%TF.CreationDate,2024-02-23T21:50:14+01:00*%
%TF.ProjectId,ScartPCB,53636172-7450-4434-922e-6b696361645f,0*%
%TF.SameCoordinates,PX76bb820PY7641700*%
%TF.FileFunction,Copper,L4,Bot*%
%TF.FilePolarity,Positive*%
%FSLAX46Y46*%
G04 Gerber Fmt 4.6, Leading zero omitted, Abs format (unit mm)*
G04 Created by KiCad (PCBNEW 7.0.10) date 2024-02-23 21:50:14*
%MOMM*%
%LPD*%
G01*
G04 APERTURE LIST*
G04 Aperture macros list*
%AMRoundRect*
0 Rectangle with rounded corners*
0 $1 Rounding radius*
0 $2 $3 $4 $5 $6 $7 $8 $9 X,Y pos of 4 corners*
0 Add a 4 corners polygon primitive as box body*
4,1,4,$2,$3,$4,$5,$6,$7,$8,$9,$2,$3,0*
0 Add four circle primitives for the rounded corners*
1,1,$1+$1,$2,$3*
1,1,$1+$1,$4,$5*
1,1,$1+$1,$6,$7*
1,1,$1+$1,$8,$9*
0 Add four rect primitives between the rounded corners*
20,1,$1+$1,$2,$3,$4,$5,0*
20,1,$1+$1,$4,$5,$6,$7,0*
20,1,$1+$1,$6,$7,$8,$9,0*
20,1,$1+$1,$8,$9,$2,$3,0*%
G04 Aperture macros list end*
%TA.AperFunction,ComponentPad*%
%ADD10RoundRect,0.250002X1.993386X-0.725533X0.725533X1.993386X-1.993386X0.725533X-0.725533X-1.993386X0*%
%TD*%
%TA.AperFunction,SMDPad,CuDef*%
%ADD11RoundRect,0.571500X-0.571500X-1.562000X0.571500X-1.562000X0.571500X1.562000X-0.571500X1.562000X0*%
%TD*%
%TA.AperFunction,ViaPad*%
%ADD12C,0.800000*%
%TD*%
%TA.AperFunction,Conductor*%
%ADD13C,0.350000*%
%TD*%
%TA.AperFunction,Conductor*%
%ADD14C,0.250000*%
%TD*%
G04 APERTURE END LIST*
D10*
%TO.P,J2,1,Pin_1*%
%TO.N,Net-(J2-Pin_1)*%
X28408000Y17955000D03*
%TD*%
D11*
%TO.P,J1,2,Pin_2*%
%TO.N,Net-(J1-Pin_2)*%
X36747500Y2642500D03*
%TO.P,J1,4,Pin_4*%
%TO.N,GND*%
X32937500Y2642500D03*
%TO.P,J1,6,Pin_6*%
%TO.N,Net-(J1-Pin_6)*%
X29127500Y2642500D03*
%TO.P,J1,8,Pin_8*%
%TO.N,unconnected-(J1-Pin_8-Pad8)*%
X25317500Y2642500D03*
%TO.P,J1,10,Pin_10*%
%TO.N,unconnected-(J1-Pin_10-Pad10)*%
X21507500Y2642500D03*
%TO.P,J1,12,Pin_12*%
%TO.N,unconnected-(J1-Pin_12-Pad12)*%
X17697500Y2642500D03*
%TO.P,J1,14,Pin_14*%
%TO.N,unconnected-(J1-Pin_14-Pad14)*%
X13887500Y2642500D03*
%TO.P,J1,16,Pin_16*%
%TO.N,SYNC*%
X10077500Y2642500D03*
%TO.P,J1,18,Pin_18*%
%TO.N,GND*%
X6267500Y2642500D03*
%TO.P,J1,20,Pin_20*%
%TO.N,Net-(J1-Pin_20)*%
X2457500Y2642500D03*
%TD*%
D10*
%TO.P,J5,1,Pin_1*%
%TO.N,SYNC*%
X23836000Y10589000D03*
%TD*%
%TO.P,J3,1,Pin_1*%
%TO.N,Net-(J3-Pin_1)*%
X23836000Y15796000D03*
%TD*%
%TO.P,J6,1,Pin_1*%
%TO.N,AUDIO*%
X19137000Y8303000D03*
%TD*%
%TO.P,J4,1,Pin_1*%
%TO.N,Net-(J4-Pin_1)*%
X19137000Y13510000D03*
%TD*%
%TO.P,J7,1,Pin_1*%
%TO.N,GND*%
X28535000Y12748000D03*
%TD*%
D12*
%TO.N,GND*%
X27011000Y6261147D03*
X12382005Y4911695D03*
%TO.N,BLUE*%
X25741000Y5636000D03*
X15708000Y7287000D03*
%TO.N,Net-(J1-Pin_20)*%
X2881000Y6652000D03*
%TO.N,GND*%
X4405000Y5509000D03*
%TO.N,SYNC*%
X8088000Y5636000D03*
%TO.N,Net-(J1-Pin_6)*%
X28535000Y6144000D03*
%TO.N,Net-(J1-Pin_2)*%
X36790000Y5890000D03*
%TO.N,Net-(J2-Pin_1)*%
X7326000Y9827000D03*
%TO.N,Net-(J3-Pin_1)*%
X14438000Y12748000D03*
%TD*%
D13*
%TO.N,GND*%
X26353147Y6919000D02*
X25360000Y6919000D01*
X27011000Y6261147D02*
X26353147Y6919000D01*
X25360000Y6919000D02*
X24636912Y6919000D01*
X30794499Y6919000D02*
X25360000Y6919000D01*
X32937500Y4775999D02*
X30794499Y6919000D01*
X32937500Y2642500D02*
X32937500Y4775999D01*
X24636912Y6919000D02*
X23397868Y5679956D01*
X6267500Y4911516D02*
X6267500Y2642500D01*
X10882700Y6411000D02*
X7766984Y6411000D01*
X7766984Y6411000D02*
X6267500Y4911516D01*
X12382005Y4911695D02*
X10882700Y6411000D01*
D14*
%TO.N,Net-(J1-Pin_20)*%
X2457500Y6228500D02*
X2457500Y2642500D01*
X2881000Y6652000D02*
X2457500Y6228500D01*
D13*
%TO.N,GND*%
X10021150Y5679956D02*
X9290107Y6411000D01*
X9290107Y6411000D02*
X5307000Y6411000D01*
X28535000Y10817088D02*
X23397868Y5679956D01*
X28535000Y12748000D02*
X28535000Y10817088D01*
X5307000Y6411000D02*
X4405000Y5509000D01*
X23397868Y5679956D02*
X10021150Y5679956D01*
D14*
%TO.N,SYNC*%
X8088000Y5636000D02*
X9358000Y5636000D01*
X9358000Y5636000D02*
X10077500Y4916500D01*
X10077500Y4916500D02*
X10077500Y2642500D01*
%TO.N,Net-(J1-Pin_6)*%
X29127500Y5551500D02*
X29127500Y2642500D01*
X28535000Y6144000D02*
X29127500Y5551500D01*
%TO.N,Net-(J1-Pin_2)*%
X36790000Y5890000D02*
X36747500Y5847500D01*
X36747500Y5847500D02*
X36747500Y2642500D01*
%TD*%
%TA.AperFunction,Conductor*%
%TO.N,GND*%
G36*
X25672574Y19101510D02*
G01*
X25711832Y19042355D01*
X25712876Y18971366D01*
X25709873Y18961990D01*
X25671531Y18856646D01*
X25650948Y18680534D01*
X25671532Y18504418D01*
X25671533Y18504416D01*
X25705814Y18405791D01*
X25780597Y18245418D01*
X27016392Y15595247D01*
X27069913Y15505584D01*
X27191592Y15376612D01*
X27339734Y15279176D01*
X27339735Y15279176D01*
X27339736Y15279175D01*
X27389653Y15261007D01*
X27506353Y15218532D01*
X27682467Y15197948D01*
X27858580Y15218532D01*
X27957213Y15252816D01*
X30767753Y16563392D01*
X30857416Y16616913D01*
X30986388Y16738592D01*
X31083824Y16886734D01*
X31144468Y17053353D01*
X31165052Y17229467D01*
X31144468Y17405580D01*
X31110184Y17504213D01*
X30434851Y18952469D01*
X30424191Y19022658D01*
X30453171Y19087470D01*
X30512591Y19126327D01*
X30583585Y19126890D01*
X30643614Y19088981D01*
X30657091Y19070542D01*
X31596888Y17504213D01*
X36170704Y9881186D01*
X36175080Y9873894D01*
X36192976Y9805190D01*
X36170887Y9737718D01*
X36115826Y9692898D01*
X36049105Y9684350D01*
X35989650Y9692898D01*
X35902000Y9705500D01*
X34122000Y9705500D01*
X34121990Y9705500D01*
X34033267Y9695961D01*
X34012851Y9693766D01*
X34012848Y9693766D01*
X34012844Y9693765D01*
X34012840Y9693765D01*
X33960519Y9682383D01*
X33960498Y9682377D01*
X33856345Y9647712D01*
X33733385Y9568690D01*
X33682299Y9524424D01*
X33680080Y9522605D01*
X33584019Y9411742D01*
X33584017Y9411739D01*
X33523301Y9278790D01*
X33503302Y9210678D01*
X33503300Y9210671D01*
X33482500Y9065997D01*
X33482500Y7793991D01*
X33494235Y7684845D01*
X33494235Y7684841D01*
X33505617Y7632520D01*
X33505623Y7632499D01*
X33540288Y7528346D01*
X33540290Y7528343D01*
X33619308Y7405388D01*
X33619311Y7405385D01*
X33619315Y7405379D01*
X33663575Y7354300D01*
X33665396Y7352080D01*
X33776258Y7256020D01*
X33776261Y7256018D01*
X33909210Y7195302D01*
X33977331Y7175300D01*
X34122000Y7154500D01*
X34372500Y7154500D01*
X34440621Y7134498D01*
X34487114Y7080842D01*
X34498500Y7028500D01*
X34498500Y6777991D01*
X34510235Y6668845D01*
X34510235Y6668841D01*
X34521617Y6616520D01*
X34521623Y6616499D01*
X34556288Y6512346D01*
X34556290Y6512343D01*
X34635308Y6389388D01*
X34635311Y6389385D01*
X34635315Y6389379D01*
X34679575Y6338300D01*
X34681396Y6336080D01*
X34792258Y6240020D01*
X34792261Y6240018D01*
X34925210Y6179302D01*
X34993331Y6159300D01*
X35138000Y6138500D01*
X35138004Y6138500D01*
X35762677Y6138500D01*
X35830798Y6118498D01*
X35877291Y6064842D01*
X35887987Y5999330D01*
X35876496Y5890000D01*
X35896457Y5700073D01*
X35920144Y5627175D01*
X35955473Y5518444D01*
X35955476Y5518439D01*
X36000840Y5439866D01*
X36017578Y5370871D01*
X35994358Y5303779D01*
X35938551Y5259892D01*
X35918505Y5253746D01*
X35845664Y5237900D01*
X35845659Y5237899D01*
X35845659Y5237898D01*
X35814417Y5224520D01*
X35656060Y5156707D01*
X35656057Y5156705D01*
X35485246Y5041098D01*
X35485240Y5041093D01*
X35339407Y4895260D01*
X35339402Y4895254D01*
X35223795Y4724443D01*
X35223793Y4724440D01*
X35142601Y4534840D01*
X35098759Y4333299D01*
X35096000Y4286974D01*
X35096000Y998027D01*
X35098759Y951702D01*
X35142601Y750161D01*
X35142602Y750159D01*
X35223795Y560557D01*
X35339184Y390069D01*
X35339402Y389747D01*
X35339407Y389741D01*
X35485240Y243908D01*
X35485246Y243903D01*
X35485247Y243902D01*
X35504536Y230847D01*
X35549739Y176100D01*
X35558167Y105605D01*
X35527146Y41745D01*
X35466523Y4793D01*
X35433912Y500D01*
X34250195Y500D01*
X34182074Y20502D01*
X34135581Y74158D01*
X34125477Y144432D01*
X34154971Y209012D01*
X34179572Y230848D01*
X34199433Y244291D01*
X34199437Y244294D01*
X34345206Y390063D01*
X34345211Y390069D01*
X34460763Y560799D01*
X34460765Y560802D01*
X34541918Y750310D01*
X34585740Y951762D01*
X34588499Y998074D01*
X34588500Y998094D01*
X34588500Y2388500D01*
X31286500Y2388500D01*
X31286500Y998074D01*
X31289259Y951762D01*
X31333081Y750310D01*
X31414234Y560802D01*
X31414236Y560799D01*
X31529788Y390069D01*
X31529793Y390063D01*
X31675562Y244294D01*
X31675566Y244291D01*
X31695428Y230848D01*
X31740631Y176101D01*
X31749061Y105607D01*
X31718040Y41746D01*
X31657418Y4794D01*
X31624805Y500D01*
X30441088Y500D01*
X30372967Y20502D01*
X30326474Y74158D01*
X30316370Y144432D01*
X30345864Y209012D01*
X30370464Y230847D01*
X30389753Y243902D01*
X30535598Y389747D01*
X30651205Y560557D01*
X30732398Y750159D01*
X30776240Y951700D01*
X30779000Y998030D01*
X30779000Y2896500D01*
X31286500Y2896500D01*
X32683500Y2896500D01*
X32683500Y5284000D01*
X33191500Y5284000D01*
X33191500Y2896500D01*
X34588500Y2896500D01*
X34588500Y4286907D01*
X34588499Y4286927D01*
X34585740Y4333239D01*
X34541918Y4534691D01*
X34460765Y4724199D01*
X34460763Y4724202D01*
X34345211Y4894932D01*
X34345206Y4894938D01*
X34199437Y5040707D01*
X34199431Y5040712D01*
X34028701Y5156264D01*
X34028698Y5156266D01*
X33839190Y5237419D01*
X33637738Y5281241D01*
X33591426Y5284000D01*
X33191500Y5284000D01*
X32683500Y5284000D01*
X32283573Y5284000D01*
X32237261Y5281241D01*
X32035809Y5237419D01*
X31846301Y5156266D01*
X31846298Y5156264D01*
X31675568Y5040712D01*
X31675562Y5040707D01*
X31529793Y4894938D01*
X31529788Y4894932D01*
X31414236Y4724202D01*
X31414234Y4724199D01*
X31333081Y4534691D01*
X31289259Y4333239D01*
X31286500Y4286927D01*
X31286500Y2896500D01*
X30779000Y2896500D01*
X30779000Y4286970D01*
X30776240Y4333300D01*
X30732398Y4534841D01*
X30651205Y4724443D01*
X30535598Y4895253D01*
X30535597Y4895254D01*
X30535592Y4895260D01*
X30389759Y5041093D01*
X30389753Y5041098D01*
X30310257Y5094902D01*
X30218943Y5156705D01*
X30218940Y5156707D01*
X30218939Y5156707D01*
X30029339Y5237899D01*
X29875599Y5271342D01*
X29860216Y5274689D01*
X29797905Y5308713D01*
X29763880Y5371025D01*
X29761000Y5397809D01*
X29761000Y5467646D01*
X29762749Y5483488D01*
X29762456Y5483515D01*
X29763200Y5491401D01*
X29763202Y5491408D01*
X29761062Y5559500D01*
X29761000Y5563458D01*
X29761000Y5591350D01*
X29761000Y5591356D01*
X29760493Y5595365D01*
X29759562Y5607194D01*
X29758174Y5651389D01*
X29752520Y5670848D01*
X29748512Y5690203D01*
X29745974Y5710297D01*
X29729695Y5751413D01*
X29725856Y5762628D01*
X29713519Y5805093D01*
X29703203Y5822536D01*
X29694505Y5840291D01*
X29687052Y5859117D01*
X29661063Y5894888D01*
X29654552Y5904800D01*
X29632042Y5942862D01*
X29617714Y5957190D01*
X29604884Y5972211D01*
X29592972Y5988607D01*
X29592969Y5988609D01*
X29592969Y5988610D01*
X29558900Y6016795D01*
X29550122Y6024783D01*
X29482121Y6092784D01*
X29448095Y6155096D01*
X29445908Y6168694D01*
X29428542Y6333928D01*
X29369527Y6515556D01*
X29274040Y6680944D01*
X29274038Y6680946D01*
X29274034Y6680952D01*
X29146255Y6822865D01*
X28991752Y6935118D01*
X28817288Y7012794D01*
X28630487Y7052500D01*
X28439513Y7052500D01*
X28252711Y7012794D01*
X28078247Y6935118D01*
X27923744Y6822865D01*
X27795965Y6680952D01*
X27795958Y6680942D01*
X27700476Y6515562D01*
X27700473Y6515556D01*
X27685999Y6471014D01*
X27641457Y6333928D01*
X27621496Y6144000D01*
X27641457Y5954073D01*
X27659128Y5899690D01*
X27700473Y5772444D01*
X27700476Y5772439D01*
X27795958Y5607059D01*
X27795965Y5607049D01*
X27923744Y5465136D01*
X27923747Y5465134D01*
X28053167Y5371104D01*
X28096521Y5314883D01*
X28102596Y5244147D01*
X28069465Y5181355D01*
X28039505Y5158589D01*
X28036065Y5156711D01*
X27865246Y5041098D01*
X27865240Y5041093D01*
X27719407Y4895260D01*
X27719402Y4895254D01*
X27603795Y4724443D01*
X27603793Y4724440D01*
X27522601Y4534840D01*
X27478759Y4333299D01*
X27476000Y4286974D01*
X27476000Y998027D01*
X27478759Y951702D01*
X27522601Y750161D01*
X27522602Y750159D01*
X27603795Y560557D01*
X27719184Y390069D01*
X27719402Y389747D01*
X27719407Y389741D01*
X27865240Y243908D01*
X27865246Y243903D01*
X27865247Y243902D01*
X27884536Y230847D01*
X27929739Y176100D01*
X27938167Y105605D01*
X27907146Y41745D01*
X27846523Y4793D01*
X27813912Y500D01*
X26631088Y500D01*
X26562967Y20502D01*
X26516474Y74158D01*
X26506370Y144432D01*
X26535864Y209012D01*
X26560464Y230847D01*
X26579753Y243902D01*
X26725598Y389747D01*
X26841205Y560557D01*
X26922398Y750159D01*
X26966240Y951700D01*
X26969000Y998030D01*
X26969000Y4286970D01*
X26966240Y4333300D01*
X26922398Y4534841D01*
X26841205Y4724443D01*
X26725598Y4895253D01*
X26725597Y4895254D01*
X26725592Y4895260D01*
X26579759Y5041093D01*
X26575125Y5044919D01*
X26576168Y5046184D01*
X26535943Y5094902D01*
X26527515Y5165397D01*
X26542652Y5207504D01*
X26560201Y5237899D01*
X26575527Y5264444D01*
X26634542Y5446072D01*
X26654504Y5636000D01*
X26634542Y5825928D01*
X26575527Y6007556D01*
X26480040Y6172944D01*
X26480038Y6172946D01*
X26480034Y6172952D01*
X26352255Y6314865D01*
X26197752Y6427118D01*
X26023288Y6504794D01*
X25836487Y6544500D01*
X25645513Y6544500D01*
X25458711Y6504794D01*
X25284247Y6427118D01*
X25129744Y6314865D01*
X25001965Y6172952D01*
X25001958Y6172942D01*
X24906476Y6007562D01*
X24906473Y6007555D01*
X24847457Y5825928D01*
X24827496Y5636000D01*
X24847457Y5446070D01*
X24848830Y5439615D01*
X24846661Y5439155D01*
X24848387Y5378451D01*
X24811716Y5317658D01*
X24747999Y5286342D01*
X24726531Y5284500D01*
X24663526Y5284500D01*
X24617201Y5281741D01*
X24415660Y5237899D01*
X24226060Y5156707D01*
X24226057Y5156705D01*
X24055246Y5041098D01*
X24055240Y5041093D01*
X23909407Y4895260D01*
X23909402Y4895254D01*
X23793795Y4724443D01*
X23793793Y4724440D01*
X23712601Y4534840D01*
X23668759Y4333299D01*
X23666000Y4286974D01*
X23666000Y998027D01*
X23668759Y951702D01*
X23712601Y750161D01*
X23712602Y750159D01*
X23793795Y560557D01*
X23909184Y390069D01*
X23909402Y389747D01*
X23909407Y389741D01*
X24055240Y243908D01*
X24055246Y243903D01*
X24055247Y243902D01*
X24074536Y230847D01*
X24119739Y176100D01*
X24128167Y105605D01*
X24097146Y41745D01*
X24036523Y4793D01*
X24003912Y500D01*
X22821088Y500D01*
X22752967Y20502D01*
X22706474Y74158D01*
X22696370Y144432D01*
X22725864Y209012D01*
X22750464Y230847D01*
X22769753Y243902D01*
X22915598Y389747D01*
X23031205Y560557D01*
X23112398Y750159D01*
X23156240Y951700D01*
X23159000Y998030D01*
X23159000Y4286970D01*
X23156240Y4333300D01*
X23112398Y4534841D01*
X23031205Y4724443D01*
X22915598Y4895253D01*
X22915597Y4895254D01*
X22915592Y4895260D01*
X22769759Y5041093D01*
X22769753Y5041098D01*
X22690257Y5094902D01*
X22598943Y5156705D01*
X22598940Y5156707D01*
X22598939Y5156707D01*
X22409339Y5237899D01*
X22207798Y5281741D01*
X22161473Y5284500D01*
X22161470Y5284500D01*
X20853530Y5284500D01*
X20853526Y5284500D01*
X20807201Y5281741D01*
X20605660Y5237899D01*
X20416060Y5156707D01*
X20416057Y5156705D01*
X20245246Y5041098D01*
X20245240Y5041093D01*
X20099407Y4895260D01*
X20099402Y4895254D01*
X19983795Y4724443D01*
X19983793Y4724440D01*
X19902601Y4534840D01*
X19858759Y4333299D01*
X19856000Y4286974D01*
X19856000Y998027D01*
X19858759Y951702D01*
X19902601Y750161D01*
X19902602Y750159D01*
X19983795Y560557D01*
X20099184Y390069D01*
X20099402Y389747D01*
X20099407Y389741D01*
X20245240Y243908D01*
X20245246Y243903D01*
X20245247Y243902D01*
X20264536Y230847D01*
X20309739Y176100D01*
X20318167Y105605D01*
X20287146Y41745D01*
X20226523Y4793D01*
X20193912Y500D01*
X19011088Y500D01*
X18942967Y20502D01*
X18896474Y74158D01*
X18886370Y144432D01*
X18915864Y209012D01*
X18940464Y230847D01*
X18959753Y243902D01*
X19105598Y389747D01*
X19221205Y560557D01*
X19302398Y750159D01*
X19346240Y951700D01*
X19349000Y998030D01*
X19349000Y4286970D01*
X19346240Y4333300D01*
X19302398Y4534841D01*
X19221205Y4724443D01*
X19105598Y4895253D01*
X19105597Y4895254D01*
X19105592Y4895260D01*
X18959759Y5041093D01*
X18959753Y5041098D01*
X18880257Y5094902D01*
X18788943Y5156705D01*
X18788940Y5156707D01*
X18788939Y5156707D01*
X18599339Y5237899D01*
X18397798Y5281741D01*
X18351473Y5284500D01*
X18351470Y5284500D01*
X17043530Y5284500D01*
X17043526Y5284500D01*
X16997201Y5281741D01*
X16795660Y5237899D01*
X16606060Y5156707D01*
X16606057Y5156705D01*
X16435246Y5041098D01*
X16435240Y5041093D01*
X16289407Y4895260D01*
X16289402Y4895254D01*
X16173795Y4724443D01*
X16173793Y4724440D01*
X16092601Y4534840D01*
X16048759Y4333299D01*
X16046000Y4286974D01*
X16046000Y998027D01*
X16048759Y951702D01*
X16092601Y750161D01*
X16092602Y750159D01*
X16173795Y560557D01*
X16289184Y390069D01*
X16289402Y389747D01*
X16289407Y389741D01*
X16435240Y243908D01*
X16435246Y243903D01*
X16435247Y243902D01*
X16454536Y230847D01*
X16499739Y176100D01*
X16508167Y105605D01*
X16477146Y41745D01*
X16416523Y4793D01*
X16383912Y500D01*
X15201088Y500D01*
X15132967Y20502D01*
X15086474Y74158D01*
X15076370Y144432D01*
X15105864Y209012D01*
X15130464Y230847D01*
X15149753Y243902D01*
X15295598Y389747D01*
X15411205Y560557D01*
X15492398Y750159D01*
X15536240Y951700D01*
X15539000Y998030D01*
X15539000Y4286970D01*
X15536240Y4333300D01*
X15492398Y4534841D01*
X15411205Y4724443D01*
X15295598Y4895253D01*
X15295597Y4895254D01*
X15295592Y4895260D01*
X15149759Y5041093D01*
X15149753Y5041098D01*
X15070257Y5094902D01*
X14978943Y5156705D01*
X14978940Y5156707D01*
X14978939Y5156707D01*
X14789339Y5237899D01*
X14587798Y5281741D01*
X14541473Y5284500D01*
X14541470Y5284500D01*
X13233530Y5284500D01*
X13233526Y5284500D01*
X13187201Y5281741D01*
X12985660Y5237899D01*
X12796060Y5156707D01*
X12796057Y5156705D01*
X12625246Y5041098D01*
X12625240Y5041093D01*
X12479407Y4895260D01*
X12479402Y4895254D01*
X12363795Y4724443D01*
X12363793Y4724440D01*
X12282601Y4534840D01*
X12238759Y4333299D01*
X12236000Y4286974D01*
X12236000Y998027D01*
X12238759Y951702D01*
X12282601Y750161D01*
X12282602Y750159D01*
X12363795Y560557D01*
X12479184Y390069D01*
X12479402Y389747D01*
X12479407Y389741D01*
X12625240Y243908D01*
X12625246Y243903D01*
X12625247Y243902D01*
X12644536Y230847D01*
X12689739Y176100D01*
X12698167Y105605D01*
X12667146Y41745D01*
X12606523Y4793D01*
X12573912Y500D01*
X11391088Y500D01*
X11322967Y20502D01*
X11276474Y74158D01*
X11266370Y144432D01*
X11295864Y209012D01*
X11320464Y230847D01*
X11339753Y243902D01*
X11485598Y389747D01*
X11601205Y560557D01*
X11682398Y750159D01*
X11726240Y951700D01*
X11729000Y998030D01*
X11729000Y4286970D01*
X11726240Y4333300D01*
X11682398Y4534841D01*
X11601205Y4724443D01*
X11485598Y4895253D01*
X11485597Y4895254D01*
X11485592Y4895260D01*
X11339759Y5041093D01*
X11339753Y5041098D01*
X11260257Y5094902D01*
X11168943Y5156705D01*
X11168940Y5156707D01*
X11168939Y5156707D01*
X10979339Y5237899D01*
X10777798Y5281741D01*
X10731473Y5284500D01*
X10731470Y5284500D01*
X10657594Y5284500D01*
X10589473Y5304502D01*
X10568499Y5321405D01*
X10567718Y5322186D01*
X10554884Y5337211D01*
X10542972Y5353607D01*
X10542969Y5353609D01*
X10542969Y5353610D01*
X10508894Y5381800D01*
X10500116Y5389788D01*
X9865247Y6024657D01*
X9855280Y6037098D01*
X9855053Y6036909D01*
X9849999Y6043019D01*
X9800348Y6089644D01*
X9797504Y6092401D01*
X9777777Y6112129D01*
X9777771Y6112134D01*
X9774567Y6114620D01*
X9765556Y6122317D01*
X9733325Y6152583D01*
X9733319Y6152587D01*
X9715563Y6162349D01*
X9699047Y6173198D01*
X9683041Y6185614D01*
X9642464Y6203173D01*
X9631807Y6208395D01*
X9593063Y6229694D01*
X9593060Y6229695D01*
X9573436Y6234734D01*
X9554736Y6241136D01*
X9536145Y6249181D01*
X9536143Y6249182D01*
X9536141Y6249182D01*
X9492474Y6256099D01*
X9480855Y6258505D01*
X9438030Y6269500D01*
X9417776Y6269500D01*
X9398066Y6271051D01*
X9378057Y6274220D01*
X9334039Y6270059D01*
X9322181Y6269500D01*
X8796200Y6269500D01*
X8728079Y6289502D01*
X8702563Y6311190D01*
X8699252Y6314867D01*
X8544752Y6427118D01*
X8370288Y6504794D01*
X8183487Y6544500D01*
X7992513Y6544500D01*
X7805711Y6504794D01*
X7631247Y6427118D01*
X7476744Y6314865D01*
X7348965Y6172952D01*
X7348958Y6172942D01*
X7253476Y6007562D01*
X7253473Y6007555D01*
X7194457Y5825928D01*
X7174496Y5636000D01*
X7194457Y5446073D01*
X7201520Y5424335D01*
X7203546Y5353367D01*
X7166882Y5292570D01*
X7103169Y5261246D01*
X7054903Y5262280D01*
X6967738Y5281241D01*
X6921426Y5284000D01*
X6521500Y5284000D01*
X6521500Y2896500D01*
X7918500Y2896500D01*
X7918500Y4286907D01*
X7918499Y4286927D01*
X7915740Y4333239D01*
X7871918Y4534691D01*
X7864288Y4552509D01*
X7855859Y4623003D01*
X7886881Y4686864D01*
X7947503Y4723816D01*
X7985910Y4726839D01*
X7985910Y4727500D01*
X8183491Y4727500D01*
X8354640Y4763880D01*
X8425431Y4758479D01*
X8482064Y4715663D01*
X8506558Y4649025D01*
X8496665Y4591035D01*
X8472602Y4534842D01*
X8428759Y4333299D01*
X8426000Y4286974D01*
X8426000Y998027D01*
X8428759Y951702D01*
X8472601Y750161D01*
X8472602Y750159D01*
X8553795Y560557D01*
X8669184Y390069D01*
X8669402Y389747D01*
X8669407Y389741D01*
X8815240Y243908D01*
X8815246Y243903D01*
X8815247Y243902D01*
X8834536Y230847D01*
X8879739Y176100D01*
X8888167Y105605D01*
X8857146Y41745D01*
X8796523Y4793D01*
X8763912Y500D01*
X7580195Y500D01*
X7512074Y20502D01*
X7465581Y74158D01*
X7455477Y144432D01*
X7484971Y209012D01*
X7509572Y230848D01*
X7529433Y244291D01*
X7529437Y244294D01*
X7675206Y390063D01*
X7675211Y390069D01*
X7790763Y560799D01*
X7790765Y560802D01*
X7871918Y750310D01*
X7915740Y951762D01*
X7918499Y998074D01*
X7918500Y998094D01*
X7918500Y2388500D01*
X4616500Y2388500D01*
X4616500Y998074D01*
X4619259Y951762D01*
X4663081Y750310D01*
X4744234Y560802D01*
X4744236Y560799D01*
X4859788Y390069D01*
X4859793Y390063D01*
X5005562Y244294D01*
X5005566Y244291D01*
X5025428Y230848D01*
X5070631Y176101D01*
X5079061Y105607D01*
X5048040Y41746D01*
X4987418Y4794D01*
X4954805Y500D01*
X3771088Y500D01*
X3702967Y20502D01*
X3656474Y74158D01*
X3646370Y144432D01*
X3675864Y209012D01*
X3700464Y230847D01*
X3719753Y243902D01*
X3865598Y389747D01*
X3981205Y560557D01*
X4062398Y750159D01*
X4106240Y951700D01*
X4109000Y998030D01*
X4109000Y2896500D01*
X4616500Y2896500D01*
X6013500Y2896500D01*
X6013500Y5284000D01*
X5613573Y5284000D01*
X5567261Y5281241D01*
X5365809Y5237419D01*
X5176301Y5156266D01*
X5176298Y5156264D01*
X5005568Y5040712D01*
X5005562Y5040707D01*
X4859793Y4894938D01*
X4859788Y4894932D01*
X4744236Y4724202D01*
X4744234Y4724199D01*
X4663081Y4534691D01*
X4619259Y4333239D01*
X4616500Y4286927D01*
X4616500Y2896500D01*
X4109000Y2896500D01*
X4109000Y4286970D01*
X4106240Y4333300D01*
X4062398Y4534841D01*
X3981205Y4724443D01*
X3865598Y4895253D01*
X3865597Y4895254D01*
X3865592Y4895260D01*
X3719759Y5041093D01*
X3719753Y5041098D01*
X3640257Y5094902D01*
X3548943Y5156705D01*
X3548940Y5156707D01*
X3548939Y5156707D01*
X3359339Y5237899D01*
X3205599Y5271342D01*
X3190216Y5274689D01*
X3127905Y5308713D01*
X3093880Y5371025D01*
X3091000Y5397809D01*
X3091000Y5669196D01*
X3111002Y5737317D01*
X3164658Y5783810D01*
X3165681Y5784272D01*
X3337752Y5860882D01*
X3492253Y5973134D01*
X3523252Y6007562D01*
X3620034Y6115049D01*
X3620035Y6115051D01*
X3620040Y6115056D01*
X3715527Y6280444D01*
X3774542Y6462072D01*
X3794504Y6652000D01*
X3774542Y6841928D01*
X3715527Y7023556D01*
X3620040Y7188944D01*
X3620038Y7188946D01*
X3620034Y7188952D01*
X3531751Y7287000D01*
X14794496Y7287000D01*
X14814457Y7097073D01*
X14838343Y7023562D01*
X14873473Y6915444D01*
X14901841Y6866309D01*
X14968958Y6750059D01*
X14968965Y6750049D01*
X15096744Y6608136D01*
X15096747Y6608134D01*
X15251248Y6495882D01*
X15425712Y6418206D01*
X15612513Y6378500D01*
X15803487Y6378500D01*
X15990288Y6418206D01*
X16164752Y6495882D01*
X16319253Y6608134D01*
X16373914Y6668841D01*
X16447034Y6750049D01*
X16447035Y6750051D01*
X16447040Y6750056D01*
X16542527Y6915444D01*
X16601542Y7097072D01*
X16621504Y7287000D01*
X16601542Y7476928D01*
X16542527Y7658556D01*
X16447040Y7823944D01*
X16447038Y7823946D01*
X16447034Y7823952D01*
X16319255Y7965865D01*
X16164752Y8078118D01*
X15990288Y8155794D01*
X15803487Y8195500D01*
X15612513Y8195500D01*
X15425711Y8155794D01*
X15251247Y8078118D01*
X15096744Y7965865D01*
X14968965Y7823952D01*
X14968958Y7823942D01*
X14873476Y7658562D01*
X14873473Y7658556D01*
X14858999Y7614014D01*
X14814457Y7476928D01*
X14794496Y7287000D01*
X3531751Y7287000D01*
X3492255Y7330865D01*
X3337752Y7443118D01*
X3163288Y7520794D01*
X2976487Y7560500D01*
X2785513Y7560500D01*
X2598711Y7520794D01*
X2424247Y7443118D01*
X2269744Y7330865D01*
X2141965Y7188952D01*
X2141958Y7188942D01*
X2049327Y7028500D01*
X2046473Y7023556D01*
X2034963Y6988133D01*
X1987457Y6841928D01*
X1969576Y6671794D01*
X1944552Y6610975D01*
X1945573Y6610233D01*
X1940911Y6603818D01*
X1931151Y6586065D01*
X1920303Y6569550D01*
X1907886Y6553542D01*
X1890324Y6512960D01*
X1885104Y6502305D01*
X1863805Y6463561D01*
X1863803Y6463556D01*
X1858767Y6443941D01*
X1852364Y6425238D01*
X1844319Y6406648D01*
X1837401Y6362975D01*
X1834995Y6351358D01*
X1824000Y6308532D01*
X1824000Y6288277D01*
X1822449Y6268567D01*
X1819379Y6249182D01*
X1819280Y6248557D01*
X1823347Y6205533D01*
X1823441Y6204539D01*
X1824000Y6192681D01*
X1824000Y5397809D01*
X1803998Y5329688D01*
X1750342Y5283195D01*
X1724784Y5274689D01*
X1709401Y5271342D01*
X1555660Y5237899D01*
X1366060Y5156707D01*
X1366057Y5156705D01*
X1195246Y5041098D01*
X1195240Y5041093D01*
X1049407Y4895260D01*
X1049402Y4895254D01*
X933795Y4724443D01*
X933793Y4724440D01*
X852601Y4534840D01*
X808759Y4333299D01*
X806000Y4286974D01*
X806000Y998027D01*
X808759Y951702D01*
X852601Y750161D01*
X852602Y750159D01*
X933795Y560557D01*
X1049184Y390069D01*
X1049402Y389747D01*
X1049407Y389741D01*
X1195240Y243908D01*
X1195246Y243903D01*
X1195247Y243902D01*
X1214536Y230847D01*
X1259739Y176100D01*
X1268167Y105605D01*
X1237146Y41745D01*
X1176523Y4793D01*
X1143912Y500D01*
X126500Y500D01*
X58379Y20502D01*
X11886Y74158D01*
X500Y126500D01*
X500Y6920012D01*
X20502Y6988133D01*
X72475Y7033842D01*
X6233559Y9957747D01*
X6303675Y9968882D01*
X6368682Y9940341D01*
X6407940Y9881186D01*
X6412890Y9830752D01*
X6412496Y9827002D01*
X6432457Y9637073D01*
X6454676Y9568692D01*
X6491473Y9455444D01*
X6491476Y9455439D01*
X6586958Y9290059D01*
X6586965Y9290049D01*
X6714744Y9148136D01*
X6714747Y9148134D01*
X6869248Y9035882D01*
X7043712Y8958206D01*
X7230513Y8918500D01*
X7421487Y8918500D01*
X7608288Y8958206D01*
X7782752Y9035882D01*
X7937253Y9148134D01*
X7937255Y9148136D01*
X8065034Y9290049D01*
X8065035Y9290051D01*
X8065040Y9290056D01*
X8160527Y9455444D01*
X8219542Y9637072D01*
X8239504Y9827000D01*
X8219542Y10016928D01*
X8160527Y10198556D01*
X8065040Y10363944D01*
X8065038Y10363946D01*
X8065034Y10363952D01*
X7937257Y10505863D01*
X7892164Y10538625D01*
X7848811Y10594848D01*
X7842736Y10665584D01*
X7875868Y10728376D01*
X7912200Y10754391D01*
X13505164Y13408679D01*
X13575280Y13419814D01*
X13640287Y13391273D01*
X13679545Y13332118D01*
X13680589Y13261129D01*
X13668303Y13231846D01*
X13603830Y13120175D01*
X13603473Y13119556D01*
X13592696Y13086388D01*
X13544457Y12937928D01*
X13524496Y12748000D01*
X13544457Y12558073D01*
X13574526Y12465530D01*
X13603473Y12376444D01*
X13603476Y12376439D01*
X13698958Y12211059D01*
X13698965Y12211049D01*
X13826744Y12069136D01*
X13826747Y12069134D01*
X13981248Y11956882D01*
X14155712Y11879206D01*
X14342513Y11839500D01*
X14533487Y11839500D01*
X14720288Y11879206D01*
X14894752Y11956882D01*
X15049253Y12069134D01*
X15149168Y12180101D01*
X15177034Y12211049D01*
X15177035Y12211051D01*
X15177040Y12211056D01*
X15272527Y12376444D01*
X15331542Y12558072D01*
X15351504Y12748000D01*
X15331542Y12937928D01*
X15272527Y13119556D01*
X15177040Y13284944D01*
X15177038Y13284946D01*
X15177034Y13284952D01*
X15049255Y13426865D01*
X14894752Y13539118D01*
X14809815Y13576934D01*
X14720288Y13616794D01*
X14720287Y13616795D01*
X14720283Y13616796D01*
X14548168Y13653381D01*
X14485694Y13687109D01*
X14451373Y13749259D01*
X14456101Y13820098D01*
X14498377Y13877135D01*
X14520334Y13890455D01*
X16286341Y14728559D01*
X16356455Y14739694D01*
X16421462Y14711153D01*
X16460720Y14651998D01*
X16461764Y14581009D01*
X16458761Y14571633D01*
X16400531Y14411646D01*
X16379948Y14235534D01*
X16400532Y14059418D01*
X16400533Y14059416D01*
X16434814Y13960791D01*
X16631443Y13539118D01*
X17745392Y11150247D01*
X17798913Y11060584D01*
X17920592Y10931612D01*
X18068734Y10834176D01*
X18068735Y10834176D01*
X18068736Y10834175D01*
X18118653Y10816007D01*
X18235353Y10773532D01*
X18411467Y10752948D01*
X18483863Y10761410D01*
X18553843Y10749452D01*
X18606251Y10701557D01*
X18624445Y10632931D01*
X18602649Y10565363D01*
X18551739Y10522067D01*
X16777247Y9694608D01*
X16687582Y9641086D01*
X16558612Y9519408D01*
X16461175Y9371265D01*
X16461174Y9371264D01*
X16400532Y9204648D01*
X16379948Y9028534D01*
X16400532Y8852418D01*
X16400533Y8852416D01*
X16434814Y8753791D01*
X16552926Y8500500D01*
X17745392Y5943247D01*
X17798913Y5853584D01*
X17920592Y5724612D01*
X18068734Y5627176D01*
X18068735Y5627176D01*
X18068736Y5627175D01*
X18118653Y5609007D01*
X18235353Y5566532D01*
X18411467Y5545948D01*
X18587580Y5566532D01*
X18686213Y5600816D01*
X21496753Y6911392D01*
X21586416Y6964913D01*
X21715388Y7086592D01*
X21812824Y7234734D01*
X21873468Y7401353D01*
X21894052Y7577467D01*
X21873468Y7753580D01*
X21839184Y7852213D01*
X20528608Y10662753D01*
X20475087Y10752416D01*
X20353408Y10881388D01*
X20205266Y10978824D01*
X20205264Y10978825D01*
X20205263Y10978826D01*
X20038647Y11039468D01*
X19862534Y11060052D01*
X19862531Y11060052D01*
X19790136Y11051591D01*
X19720154Y11063550D01*
X19667747Y11111446D01*
X19649554Y11180072D01*
X19671351Y11247640D01*
X19722256Y11290931D01*
X21046079Y11908240D01*
X21116268Y11918900D01*
X21181080Y11889920D01*
X21219937Y11830500D01*
X21220500Y11759506D01*
X21204598Y11724806D01*
X21160174Y11657264D01*
X21099532Y11490648D01*
X21078948Y11314534D01*
X21078948Y11314533D01*
X21099532Y11138419D01*
X21099533Y11138416D01*
X21133814Y11039791D01*
X21355043Y10565363D01*
X22444392Y8229247D01*
X22497913Y8139584D01*
X22619592Y8010612D01*
X22767734Y7913176D01*
X22767735Y7913176D01*
X22767736Y7913175D01*
X22817653Y7895007D01*
X22934353Y7852532D01*
X23110467Y7831948D01*
X23286580Y7852532D01*
X23385213Y7886816D01*
X26195753Y9197392D01*
X26285416Y9250913D01*
X26414388Y9372592D01*
X26511824Y9520734D01*
X26572468Y9687353D01*
X26593052Y9863467D01*
X26572468Y10039580D01*
X26538184Y10138213D01*
X25227608Y12948753D01*
X25174087Y13038416D01*
X25052408Y13167388D01*
X24904266Y13264824D01*
X24904264Y13264825D01*
X24904263Y13264826D01*
X24737647Y13325468D01*
X24561534Y13346052D01*
X24561531Y13346052D01*
X24489136Y13337591D01*
X24419154Y13349550D01*
X24366747Y13397446D01*
X24348554Y13466072D01*
X24370351Y13533640D01*
X24421256Y13576931D01*
X25938795Y14284571D01*
X26008983Y14295231D01*
X26073795Y14266251D01*
X26112652Y14206831D01*
X26113215Y14135837D01*
X26078508Y14078727D01*
X25957001Y13964090D01*
X25956997Y13964085D01*
X25859628Y13816044D01*
X25859625Y13816038D01*
X25799023Y13649533D01*
X25799022Y13649531D01*
X25778451Y13473534D01*
X25799022Y13297535D01*
X25799023Y13297532D01*
X25833280Y13198976D01*
X25833284Y13198966D01*
X26381210Y12023932D01*
X27764025Y12668750D01*
X27774650Y12574455D01*
X27832331Y12409612D01*
X27925246Y12261738D01*
X27978664Y12208320D01*
X26595901Y11563526D01*
X27143829Y10388492D01*
X27143834Y10388484D01*
X27197313Y10298887D01*
X27197315Y10298885D01*
X27318915Y10169998D01*
X27466956Y10072629D01*
X27466962Y10072626D01*
X27633467Y10012024D01*
X27633469Y10012023D01*
X27809466Y9991452D01*
X27985465Y10012023D01*
X27985468Y10012024D01*
X28084024Y10046281D01*
X28084034Y10046285D01*
X29259069Y10594213D01*
X28614252Y11977026D01*
X28708545Y11987650D01*
X28873388Y12045331D01*
X29021262Y12138246D01*
X29074680Y12191665D01*
X29719473Y10808904D01*
X30894508Y11356830D01*
X30894516Y11356835D01*
X30984113Y11410314D01*
X30984115Y11410316D01*
X31113002Y11531916D01*
X31210371Y11679957D01*
X31210374Y11679963D01*
X31270976Y11846468D01*
X31270977Y11846470D01*
X31291549Y12022467D01*
X31270977Y12198466D01*
X31270976Y12198469D01*
X31236719Y12297025D01*
X31236715Y12297035D01*
X30688787Y13472071D01*
X29305974Y12827255D01*
X29295350Y12921545D01*
X29237669Y13086388D01*
X29144754Y13234262D01*
X29091333Y13287683D01*
X30474097Y13932476D01*
X29926170Y15107509D01*
X29926165Y15107517D01*
X29872686Y15197114D01*
X29872684Y15197116D01*
X29751084Y15326003D01*
X29603043Y15423372D01*
X29603037Y15423375D01*
X29436532Y15483977D01*
X29436530Y15483978D01*
X29260533Y15504549D01*
X29084534Y15483978D01*
X29084531Y15483977D01*
X28985975Y15449720D01*
X28985965Y15449716D01*
X27810929Y14901789D01*
X28455746Y13518975D01*
X28361455Y13508350D01*
X28196612Y13450669D01*
X28048738Y13357754D01*
X27995318Y13304335D01*
X27350524Y14687099D01*
X26432491Y14259012D01*
X26362299Y14248351D01*
X26297487Y14277331D01*
X26258630Y14336751D01*
X26258067Y14407745D01*
X26292775Y14464856D01*
X26414388Y14579592D01*
X26511824Y14727734D01*
X26572468Y14894353D01*
X26593052Y15070467D01*
X26572468Y15246580D01*
X26538184Y15345213D01*
X25227608Y18155753D01*
X25174087Y18245416D01*
X25052408Y18374388D01*
X24954971Y18438475D01*
X24904265Y18471825D01*
X24774066Y18519213D01*
X24716895Y18561307D01*
X24691557Y18627629D01*
X24706098Y18697120D01*
X24755900Y18747719D01*
X24763124Y18751439D01*
X25537450Y19118916D01*
X25607567Y19130051D01*
X25672574Y19101510D01*
G37*
%TD.AperFunction*%
%TD*%
%TA.AperFunction,NonConductor*%
G36*
X35970121Y9171998D02*
G01*
X36016614Y9118342D01*
X36028000Y9066000D01*
X36028000Y6778000D01*
X36007998Y6709879D01*
X35954342Y6663386D01*
X35902000Y6652000D01*
X35138000Y6652000D01*
X35069879Y6672002D01*
X35023386Y6725658D01*
X35012000Y6778000D01*
X35012000Y7668000D01*
X34122000Y7668000D01*
X34053879Y7688002D01*
X34007386Y7741658D01*
X33996000Y7794000D01*
X33996000Y9066000D01*
X34016002Y9134121D01*
X34069658Y9180614D01*
X34122000Y9192000D01*
X35902000Y9192000D01*
X35970121Y9171998D01*
G37*
%TD.AperFunction*%
M02*
