%TF.GenerationSoftware,KiCad,Pcbnew,7.0.10*%
%TF.CreationDate,2024-02-23T21:50:14+01:00*%
%TF.ProjectId,ScartPCB,53636172-7450-4434-922e-6b696361645f,0*%
%TF.SameCoordinates,PX76bb820PY7641700*%
%TF.FileFunction,Legend,Top*%
%TF.FilePolarity,Positive*%
%FSLAX46Y46*%
G04 Gerber Fmt 4.6, Leading zero omitted, Abs format (unit mm)*
G04 Created by KiCad (PCBNEW 7.0.10) date 2024-02-23 21:50:14*
%MOMM*%
%LPD*%
G01*
G04 APERTURE LIST*
%ADD10C,0.100000*%
%ADD11C,0.150000*%
%ADD12C,0.120000*%
G04 APERTURE END LIST*
D10*
X38542571Y5271105D02*
X38085428Y5271105D01*
X38314000Y5271105D02*
X38314000Y6071105D01*
X38314000Y6071105D02*
X38237809Y5956820D01*
X38237809Y5956820D02*
X38161619Y5880629D01*
X38161619Y5880629D02*
X38085428Y5842534D01*
X1213895Y5356619D02*
X1213895Y4899476D01*
X1213895Y5128048D02*
X413895Y5128048D01*
X413895Y5128048D02*
X528180Y5051857D01*
X528180Y5051857D02*
X604371Y4975667D01*
X604371Y4975667D02*
X642466Y4899476D01*
X1213895Y5737572D02*
X1213895Y5889953D01*
X1213895Y5889953D02*
X1175800Y5966143D01*
X1175800Y5966143D02*
X1137704Y6004239D01*
X1137704Y6004239D02*
X1023419Y6080429D01*
X1023419Y6080429D02*
X871038Y6118524D01*
X871038Y6118524D02*
X566276Y6118524D01*
X566276Y6118524D02*
X490085Y6080429D01*
X490085Y6080429D02*
X451990Y6042334D01*
X451990Y6042334D02*
X413895Y5966143D01*
X413895Y5966143D02*
X413895Y5813762D01*
X413895Y5813762D02*
X451990Y5737572D01*
X451990Y5737572D02*
X490085Y5699477D01*
X490085Y5699477D02*
X566276Y5661381D01*
X566276Y5661381D02*
X756752Y5661381D01*
X756752Y5661381D02*
X832942Y5699477D01*
X832942Y5699477D02*
X871038Y5737572D01*
X871038Y5737572D02*
X909133Y5813762D01*
X909133Y5813762D02*
X909133Y5966143D01*
X909133Y5966143D02*
X871038Y6042334D01*
X871038Y6042334D02*
X832942Y6080429D01*
X832942Y6080429D02*
X756752Y6118524D01*
X25734024Y18327645D02*
X25280870Y18116336D01*
X25280870Y18116336D02*
X25176152Y18104284D01*
X25176152Y18104284D02*
X25087557Y18136530D01*
X25087557Y18136530D02*
X25015085Y18213074D01*
X25015085Y18213074D02*
X24986910Y18273494D01*
X25800389Y18027578D02*
X25844687Y18011455D01*
X25844687Y18011455D02*
X25903071Y17965122D01*
X25903071Y17965122D02*
X25973508Y17814071D01*
X25973508Y17814071D02*
X25971472Y17739563D01*
X25971472Y17739563D02*
X25955349Y17695265D01*
X25955349Y17695265D02*
X25909016Y17636881D01*
X25909016Y17636881D02*
X25848595Y17608706D01*
X25848595Y17608706D02*
X25743877Y17596654D01*
X25743877Y17596654D02*
X25212307Y17790130D01*
X25212307Y17790130D02*
X25395441Y17397397D01*
D11*
X27229738Y15514605D02*
X26726389Y15805307D01*
X26711848Y15273109D02*
X26289230Y16179417D01*
X26289230Y16179417D02*
X26634490Y16340414D01*
X26634490Y16340414D02*
X26740930Y16337506D01*
X26740930Y16337506D02*
X26804212Y16314473D01*
X26804212Y16314473D02*
X26887619Y16248283D01*
X26887619Y16248283D02*
X26947993Y16118810D01*
X26947993Y16118810D02*
X26945085Y16012370D01*
X26945085Y16012370D02*
X26922052Y15949088D01*
X26922052Y15949088D02*
X26855861Y15865681D01*
X26855861Y15865681D02*
X26510601Y15704684D01*
D10*
X34314633Y6281334D02*
X33981300Y6048001D01*
X34314633Y5881334D02*
X33614633Y5881334D01*
X33614633Y5881334D02*
X33614633Y6148001D01*
X33614633Y6148001D02*
X33647966Y6214667D01*
X33647966Y6214667D02*
X33681300Y6248001D01*
X33681300Y6248001D02*
X33747966Y6281334D01*
X33747966Y6281334D02*
X33847966Y6281334D01*
X33847966Y6281334D02*
X33914633Y6248001D01*
X33914633Y6248001D02*
X33947966Y6214667D01*
X33947966Y6214667D02*
X33981300Y6148001D01*
X33981300Y6148001D02*
X33981300Y5881334D01*
X33614633Y6881334D02*
X33614633Y6748001D01*
X33614633Y6748001D02*
X33647966Y6681334D01*
X33647966Y6681334D02*
X33681300Y6648001D01*
X33681300Y6648001D02*
X33781300Y6581334D01*
X33781300Y6581334D02*
X33914633Y6548001D01*
X33914633Y6548001D02*
X34181300Y6548001D01*
X34181300Y6548001D02*
X34247966Y6581334D01*
X34247966Y6581334D02*
X34281300Y6614667D01*
X34281300Y6614667D02*
X34314633Y6681334D01*
X34314633Y6681334D02*
X34314633Y6814667D01*
X34314633Y6814667D02*
X34281300Y6881334D01*
X34281300Y6881334D02*
X34247966Y6914667D01*
X34247966Y6914667D02*
X34181300Y6948001D01*
X34181300Y6948001D02*
X34014633Y6948001D01*
X34014633Y6948001D02*
X33947966Y6914667D01*
X33947966Y6914667D02*
X33914633Y6881334D01*
X33914633Y6881334D02*
X33881300Y6814667D01*
X33881300Y6814667D02*
X33881300Y6681334D01*
X33881300Y6681334D02*
X33914633Y6614667D01*
X33914633Y6614667D02*
X33947966Y6581334D01*
X33947966Y6581334D02*
X34014633Y6548001D01*
X31655333Y10141700D02*
X31688666Y10175034D01*
X31688666Y10175034D02*
X31755333Y10208367D01*
X31755333Y10208367D02*
X31922000Y10208367D01*
X31922000Y10208367D02*
X31988666Y10175034D01*
X31988666Y10175034D02*
X32022000Y10141700D01*
X32022000Y10141700D02*
X32055333Y10075034D01*
X32055333Y10075034D02*
X32055333Y10008367D01*
X32055333Y10008367D02*
X32022000Y9908367D01*
X32022000Y9908367D02*
X31622000Y9508367D01*
X31622000Y9508367D02*
X32055333Y9508367D01*
X32355333Y9508367D02*
X32355333Y10208367D01*
X32422000Y9775034D02*
X32622000Y9508367D01*
X32622000Y9975034D02*
X32355333Y9708367D01*
X32888667Y10141700D02*
X32922000Y10175034D01*
X32922000Y10175034D02*
X32988667Y10208367D01*
X32988667Y10208367D02*
X33155334Y10208367D01*
X33155334Y10208367D02*
X33222000Y10175034D01*
X33222000Y10175034D02*
X33255334Y10141700D01*
X33255334Y10141700D02*
X33288667Y10075034D01*
X33288667Y10075034D02*
X33288667Y10008367D01*
X33288667Y10008367D02*
X33255334Y9908367D01*
X33255334Y9908367D02*
X32855334Y9508367D01*
X32855334Y9508367D02*
X33288667Y9508367D01*
X24352355Y8550025D02*
X24563664Y8096871D01*
X24563664Y8096871D02*
X24575716Y7992153D01*
X24575716Y7992153D02*
X24543470Y7903558D01*
X24543470Y7903558D02*
X24466926Y7831086D01*
X24466926Y7831086D02*
X24406506Y7802911D01*
X24956560Y8831771D02*
X24654457Y8690898D01*
X24654457Y8690898D02*
X24765120Y8374708D01*
X24765120Y8374708D02*
X24781243Y8419005D01*
X24781243Y8419005D02*
X24827576Y8477390D01*
X24827576Y8477390D02*
X24978627Y8547827D01*
X24978627Y8547827D02*
X25053135Y8545791D01*
X25053135Y8545791D02*
X25097433Y8529668D01*
X25097433Y8529668D02*
X25155818Y8483335D01*
X25155818Y8483335D02*
X25226254Y8332283D01*
X25226254Y8332283D02*
X25224218Y8257776D01*
X25224218Y8257776D02*
X25208095Y8213478D01*
X25208095Y8213478D02*
X25161762Y8155093D01*
X25161762Y8155093D02*
X25010711Y8084657D01*
X25010711Y8084657D02*
X24936203Y8086693D01*
X24936203Y8086693D02*
X24891905Y8102816D01*
X20777244Y10555102D02*
X20789296Y10450384D01*
X20789296Y10450384D02*
X20859732Y10299333D01*
X20859732Y10299333D02*
X20918117Y10252999D01*
X20918117Y10252999D02*
X20962415Y10236876D01*
X20962415Y10236876D02*
X21036922Y10234841D01*
X21036922Y10234841D02*
X21097343Y10263015D01*
X21097343Y10263015D02*
X21143676Y10321400D01*
X21143676Y10321400D02*
X21159799Y10365698D01*
X21159799Y10365698D02*
X21161835Y10440205D01*
X21161835Y10440205D02*
X21135696Y10575134D01*
X21135696Y10575134D02*
X21137732Y10649641D01*
X21137732Y10649641D02*
X21153855Y10693939D01*
X21153855Y10693939D02*
X21200188Y10752324D01*
X21200188Y10752324D02*
X21260608Y10780498D01*
X21260608Y10780498D02*
X21335116Y10778463D01*
X21335116Y10778463D02*
X21379414Y10762340D01*
X21379414Y10762340D02*
X21437799Y10716006D01*
X21437799Y10716006D02*
X21508235Y10564955D01*
X21508235Y10564955D02*
X21520287Y10460237D01*
X21401319Y9926631D02*
X21099216Y9785758D01*
X21635021Y10293063D02*
X21401319Y9926631D01*
X21401319Y9926631D02*
X21832242Y9870119D01*
X21296438Y9362814D02*
X21930853Y9658647D01*
X21930853Y9658647D02*
X21465485Y9000291D01*
X21465485Y9000291D02*
X22099901Y9296124D01*
X21835826Y8363840D02*
X21791528Y8379963D01*
X21791528Y8379963D02*
X21719056Y8456507D01*
X21719056Y8456507D02*
X21690882Y8516927D01*
X21690882Y8516927D02*
X21678830Y8621645D01*
X21678830Y8621645D02*
X21711076Y8710240D01*
X21711076Y8710240D02*
X21757409Y8768625D01*
X21757409Y8768625D02*
X21864163Y8855185D01*
X21864163Y8855185D02*
X21954794Y8897446D01*
X21954794Y8897446D02*
X22089722Y8923585D01*
X22089722Y8923585D02*
X22164230Y8921550D01*
X22164230Y8921550D02*
X22252825Y8889304D01*
X22252825Y8889304D02*
X22325297Y8812760D01*
X22325297Y8812760D02*
X22353472Y8752340D01*
X22353472Y8752340D02*
X22365523Y8647622D01*
X22365523Y8647622D02*
X22349400Y8603324D01*
X29234633Y8567334D02*
X28901300Y8334001D01*
X29234633Y8167334D02*
X28534633Y8167334D01*
X28534633Y8167334D02*
X28534633Y8434001D01*
X28534633Y8434001D02*
X28567966Y8500667D01*
X28567966Y8500667D02*
X28601300Y8534001D01*
X28601300Y8534001D02*
X28667966Y8567334D01*
X28667966Y8567334D02*
X28767966Y8567334D01*
X28767966Y8567334D02*
X28834633Y8534001D01*
X28834633Y8534001D02*
X28867966Y8500667D01*
X28867966Y8500667D02*
X28901300Y8434001D01*
X28901300Y8434001D02*
X28901300Y8167334D01*
X28534633Y9200667D02*
X28534633Y8867334D01*
X28534633Y8867334D02*
X28867966Y8834001D01*
X28867966Y8834001D02*
X28834633Y8867334D01*
X28834633Y8867334D02*
X28801300Y8934001D01*
X28801300Y8934001D02*
X28801300Y9100667D01*
X28801300Y9100667D02*
X28834633Y9167334D01*
X28834633Y9167334D02*
X28867966Y9200667D01*
X28867966Y9200667D02*
X28934633Y9234001D01*
X28934633Y9234001D02*
X29101300Y9234001D01*
X29101300Y9234001D02*
X29167966Y9200667D01*
X29167966Y9200667D02*
X29201300Y9167334D01*
X29201300Y9167334D02*
X29234633Y9100667D01*
X29234633Y9100667D02*
X29234633Y8934001D01*
X29234633Y8934001D02*
X29201300Y8867334D01*
X29201300Y8867334D02*
X29167966Y8834001D01*
X29496333Y10141700D02*
X29529666Y10175034D01*
X29529666Y10175034D02*
X29596333Y10208367D01*
X29596333Y10208367D02*
X29763000Y10208367D01*
X29763000Y10208367D02*
X29829666Y10175034D01*
X29829666Y10175034D02*
X29863000Y10141700D01*
X29863000Y10141700D02*
X29896333Y10075034D01*
X29896333Y10075034D02*
X29896333Y10008367D01*
X29896333Y10008367D02*
X29863000Y9908367D01*
X29863000Y9908367D02*
X29463000Y9508367D01*
X29463000Y9508367D02*
X29896333Y9508367D01*
X30196333Y9508367D02*
X30196333Y10208367D01*
X30263000Y9775034D02*
X30463000Y9508367D01*
X30463000Y9975034D02*
X30196333Y9708367D01*
X30729667Y10141700D02*
X30763000Y10175034D01*
X30763000Y10175034D02*
X30829667Y10208367D01*
X30829667Y10208367D02*
X30996334Y10208367D01*
X30996334Y10208367D02*
X31063000Y10175034D01*
X31063000Y10175034D02*
X31096334Y10141700D01*
X31096334Y10141700D02*
X31129667Y10075034D01*
X31129667Y10075034D02*
X31129667Y10008367D01*
X31129667Y10008367D02*
X31096334Y9908367D01*
X31096334Y9908367D02*
X30696334Y9508367D01*
X30696334Y9508367D02*
X31129667Y9508367D01*
X21162024Y16041645D02*
X20708870Y15830336D01*
X20708870Y15830336D02*
X20604152Y15818284D01*
X20604152Y15818284D02*
X20515557Y15850530D01*
X20515557Y15850530D02*
X20443085Y15927074D01*
X20443085Y15927074D02*
X20414910Y15987494D01*
X21274722Y15799963D02*
X21457857Y15407230D01*
X21457857Y15407230D02*
X21117564Y15506003D01*
X21117564Y15506003D02*
X21159826Y15415373D01*
X21159826Y15415373D02*
X21157790Y15340865D01*
X21157790Y15340865D02*
X21141667Y15296567D01*
X21141667Y15296567D02*
X21095334Y15238182D01*
X21095334Y15238182D02*
X20944282Y15167746D01*
X20944282Y15167746D02*
X20869775Y15169782D01*
X20869775Y15169782D02*
X20825477Y15185905D01*
X20825477Y15185905D02*
X20767092Y15232238D01*
X20767092Y15232238D02*
X20682569Y15413499D01*
X20682569Y15413499D02*
X20684604Y15488007D01*
X20684604Y15488007D02*
X20700727Y15532305D01*
D11*
X22085087Y14198630D02*
X21978647Y14201539D01*
X21978647Y14201539D02*
X21849175Y14141165D01*
X21849175Y14141165D02*
X21739827Y14037633D01*
X21739827Y14037633D02*
X21693761Y13911069D01*
X21693761Y13911069D02*
X21690853Y13804629D01*
X21690853Y13804629D02*
X21728194Y13611874D01*
X21728194Y13611874D02*
X21788568Y13482402D01*
X21788568Y13482402D02*
X21912225Y13329896D01*
X21912225Y13329896D02*
X21995631Y13263706D01*
X21995631Y13263706D02*
X22122196Y13217640D01*
X22122196Y13217640D02*
X22271793Y13234857D01*
X22271793Y13234857D02*
X22358108Y13275106D01*
X22358108Y13275106D02*
X22467456Y13378638D01*
X22467456Y13378638D02*
X22490489Y13441920D01*
X22490489Y13441920D02*
X22349616Y13744022D01*
X22349616Y13744022D02*
X22176986Y13663524D01*
D10*
X10627372Y10869810D02*
X10275028Y11073302D01*
X10264849Y10700763D02*
X9969016Y11335178D01*
X9969016Y11335178D02*
X10210698Y11447877D01*
X10210698Y11447877D02*
X10285206Y11445841D01*
X10285206Y11445841D02*
X10329504Y11429718D01*
X10329504Y11429718D02*
X10387888Y11383385D01*
X10387888Y11383385D02*
X10430150Y11292754D01*
X10430150Y11292754D02*
X10428115Y11218246D01*
X10428115Y11218246D02*
X10411992Y11173949D01*
X10411992Y11173949D02*
X10365658Y11115564D01*
X10365658Y11115564D02*
X10123976Y11002866D01*
X10601396Y11556503D02*
X10617519Y11600801D01*
X10617519Y11600801D02*
X10663852Y11659186D01*
X10663852Y11659186D02*
X10814904Y11729622D01*
X10814904Y11729622D02*
X10889411Y11727586D01*
X10889411Y11727586D02*
X10933709Y11711463D01*
X10933709Y11711463D02*
X10992094Y11665130D01*
X10992094Y11665130D02*
X11020268Y11604710D01*
X11020268Y11604710D02*
X11032320Y11499992D01*
X11032320Y11499992D02*
X10838844Y10968421D01*
X10838844Y10968421D02*
X11231577Y11151556D01*
X12215164Y6452859D02*
X11852641Y6283811D01*
X12033903Y6368335D02*
X11738070Y7002751D01*
X11738070Y7002751D02*
X11719911Y6883945D01*
X11719911Y6883945D02*
X11687665Y6795350D01*
X11687665Y6795350D02*
X11641332Y6736965D01*
X12493327Y7354933D02*
X12191224Y7214060D01*
X12191224Y7214060D02*
X12301886Y6897870D01*
X12301886Y6897870D02*
X12318009Y6942168D01*
X12318009Y6942168D02*
X12364343Y7000552D01*
X12364343Y7000552D02*
X12515394Y7070989D01*
X12515394Y7070989D02*
X12589902Y7068953D01*
X12589902Y7068953D02*
X12634199Y7052830D01*
X12634199Y7052830D02*
X12692584Y7006497D01*
X12692584Y7006497D02*
X12763021Y6855445D01*
X12763021Y6855445D02*
X12760985Y6780938D01*
X12760985Y6780938D02*
X12744862Y6736640D01*
X12744862Y6736640D02*
X12698529Y6678255D01*
X12698529Y6678255D02*
X12547477Y6607819D01*
X12547477Y6607819D02*
X12472969Y6609855D01*
X12472969Y6609855D02*
X12428672Y6625978D01*
X12916271Y7552155D02*
X12976691Y7580329D01*
X12976691Y7580329D02*
X13051199Y7578293D01*
X13051199Y7578293D02*
X13095496Y7562170D01*
X13095496Y7562170D02*
X13153881Y7515837D01*
X13153881Y7515837D02*
X13240441Y7409083D01*
X13240441Y7409083D02*
X13310877Y7258032D01*
X13310877Y7258032D02*
X13337016Y7123104D01*
X13337016Y7123104D02*
X13334980Y7048596D01*
X13334980Y7048596D02*
X13318857Y7004299D01*
X13318857Y7004299D02*
X13272524Y6945914D01*
X13272524Y6945914D02*
X13212103Y6917739D01*
X13212103Y6917739D02*
X13137596Y6919775D01*
X13137596Y6919775D02*
X13093298Y6935898D01*
X13093298Y6935898D02*
X13034913Y6982231D01*
X13034913Y6982231D02*
X12948354Y7088985D01*
X12948354Y7088985D02*
X12877917Y7240036D01*
X12877917Y7240036D02*
X12851779Y7374964D01*
X12851779Y7374964D02*
X12853814Y7449472D01*
X12853814Y7449472D02*
X12869937Y7493770D01*
X12869937Y7493770D02*
X12916271Y7552155D01*
X19780355Y6391025D02*
X19991664Y5937871D01*
X19991664Y5937871D02*
X20003716Y5833153D01*
X20003716Y5833153D02*
X19971470Y5744558D01*
X19971470Y5744558D02*
X19894926Y5672086D01*
X19894926Y5672086D02*
X19834506Y5643911D01*
X20354350Y6658683D02*
X20233509Y6602334D01*
X20233509Y6602334D02*
X20187176Y6543949D01*
X20187176Y6543949D02*
X20171053Y6499652D01*
X20171053Y6499652D02*
X20152894Y6380846D01*
X20152894Y6380846D02*
X20179033Y6245918D01*
X20179033Y6245918D02*
X20291731Y6004236D01*
X20291731Y6004236D02*
X20350116Y5957903D01*
X20350116Y5957903D02*
X20394413Y5941780D01*
X20394413Y5941780D02*
X20468921Y5939744D01*
X20468921Y5939744D02*
X20589762Y5996093D01*
X20589762Y5996093D02*
X20636095Y6054478D01*
X20636095Y6054478D02*
X20652218Y6098776D01*
X20652218Y6098776D02*
X20654254Y6173283D01*
X20654254Y6173283D02*
X20583818Y6324335D01*
X20583818Y6324335D02*
X20525433Y6370668D01*
X20525433Y6370668D02*
X20481135Y6386791D01*
X20481135Y6386791D02*
X20406627Y6388827D01*
X20406627Y6388827D02*
X20285786Y6332478D01*
X20285786Y6332478D02*
X20239453Y6274093D01*
X20239453Y6274093D02*
X20223330Y6229795D01*
X20223330Y6229795D02*
X20221295Y6155287D01*
X16370169Y8037435D02*
X16511041Y7735333D01*
X16160733Y8013332D02*
X16893759Y8097693D01*
X16893759Y8097693D02*
X16357954Y7590388D01*
X17090981Y7674749D02*
X16577406Y7435266D01*
X16577406Y7435266D02*
X16531073Y7376881D01*
X16531073Y7376881D02*
X16514950Y7332583D01*
X16514950Y7332583D02*
X16512914Y7258076D01*
X16512914Y7258076D02*
X16569264Y7137235D01*
X16569264Y7137235D02*
X16627648Y7090901D01*
X16627648Y7090901D02*
X16671946Y7074778D01*
X16671946Y7074778D02*
X16746454Y7072743D01*
X16746454Y7072743D02*
X17260028Y7312226D01*
X16766485Y6714291D02*
X17400901Y7010124D01*
X17400901Y7010124D02*
X17471337Y6859073D01*
X17471337Y6859073D02*
X17483389Y6754355D01*
X17483389Y6754355D02*
X17451143Y6665760D01*
X17451143Y6665760D02*
X17404809Y6607375D01*
X17404809Y6607375D02*
X17298056Y6520815D01*
X17298056Y6520815D02*
X17207425Y6478554D01*
X17207425Y6478554D02*
X17072497Y6452415D01*
X17072497Y6452415D02*
X16997989Y6454450D01*
X16997989Y6454450D02*
X16909394Y6486696D01*
X16909394Y6486696D02*
X16836922Y6563240D01*
X16836922Y6563240D02*
X16766485Y6714291D01*
X16463024Y13882645D02*
X16009870Y13671336D01*
X16009870Y13671336D02*
X15905152Y13659284D01*
X15905152Y13659284D02*
X15816557Y13691530D01*
X15816557Y13691530D02*
X15744085Y13768074D01*
X15744085Y13768074D02*
X15715910Y13828494D01*
X16519210Y13210039D02*
X16096267Y13012817D01*
X16690456Y13473789D02*
X16166866Y13413531D01*
X16166866Y13413531D02*
X16350000Y13020798D01*
D11*
X17394579Y11697714D02*
X17544176Y11714931D01*
X17544176Y11714931D02*
X17607459Y11691898D01*
X17607459Y11691898D02*
X17690865Y11625707D01*
X17690865Y11625707D02*
X17751239Y11496235D01*
X17751239Y11496235D02*
X17748331Y11389795D01*
X17748331Y11389795D02*
X17725298Y11326513D01*
X17725298Y11326513D02*
X17659108Y11243106D01*
X17659108Y11243106D02*
X17313848Y11082109D01*
X17313848Y11082109D02*
X16891230Y11988417D01*
X16891230Y11988417D02*
X17193332Y12129289D01*
X17193332Y12129289D02*
X17299772Y12126381D01*
X17299772Y12126381D02*
X17363054Y12103348D01*
X17363054Y12103348D02*
X17446461Y12037158D01*
X17446461Y12037158D02*
X17486710Y11950843D01*
X17486710Y11950843D02*
X17483802Y11844403D01*
X17483802Y11844403D02*
X17460769Y11781121D01*
X17460769Y11781121D02*
X17394579Y11697714D01*
X17394579Y11697714D02*
X17092477Y11556841D01*
D10*
X8634194Y9996914D02*
X8281850Y10200406D01*
X8271671Y9827867D02*
X7975838Y10462282D01*
X7975838Y10462282D02*
X8217520Y10574981D01*
X8217520Y10574981D02*
X8292028Y10572945D01*
X8292028Y10572945D02*
X8336326Y10556822D01*
X8336326Y10556822D02*
X8394710Y10510489D01*
X8394710Y10510489D02*
X8436972Y10419858D01*
X8436972Y10419858D02*
X8434937Y10345350D01*
X8434937Y10345350D02*
X8418814Y10301053D01*
X8418814Y10301053D02*
X8372480Y10242668D01*
X8372480Y10242668D02*
X8130798Y10129970D01*
X9238399Y10278660D02*
X8875876Y10109613D01*
X9057138Y10194136D02*
X8761305Y10828552D01*
X8761305Y10828552D02*
X8743146Y10709746D01*
X8743146Y10709746D02*
X8710900Y10621151D01*
X8710900Y10621151D02*
X8664567Y10562766D01*
X10362348Y5483929D02*
X9999825Y5314881D01*
X10181087Y5399405D02*
X9885254Y6033821D01*
X9885254Y6033821D02*
X9867095Y5915015D01*
X9867095Y5915015D02*
X9834849Y5826420D01*
X9834849Y5826420D02*
X9788516Y5768035D01*
X10640511Y6386003D02*
X10338408Y6245130D01*
X10338408Y6245130D02*
X10449070Y5928940D01*
X10449070Y5928940D02*
X10465193Y5973238D01*
X10465193Y5973238D02*
X10511527Y6031622D01*
X10511527Y6031622D02*
X10662578Y6102059D01*
X10662578Y6102059D02*
X10737086Y6100023D01*
X10737086Y6100023D02*
X10781383Y6083900D01*
X10781383Y6083900D02*
X10839768Y6037567D01*
X10839768Y6037567D02*
X10910205Y5886515D01*
X10910205Y5886515D02*
X10908169Y5812008D01*
X10908169Y5812008D02*
X10892046Y5767710D01*
X10892046Y5767710D02*
X10845713Y5709325D01*
X10845713Y5709325D02*
X10694661Y5638889D01*
X10694661Y5638889D02*
X10620153Y5640925D01*
X10620153Y5640925D02*
X10575856Y5657048D01*
X11063455Y6583225D02*
X11123875Y6611399D01*
X11123875Y6611399D02*
X11198383Y6609363D01*
X11198383Y6609363D02*
X11242680Y6593240D01*
X11242680Y6593240D02*
X11301065Y6546907D01*
X11301065Y6546907D02*
X11387625Y6440153D01*
X11387625Y6440153D02*
X11458061Y6289102D01*
X11458061Y6289102D02*
X11484200Y6154174D01*
X11484200Y6154174D02*
X11482164Y6079666D01*
X11482164Y6079666D02*
X11466041Y6035369D01*
X11466041Y6035369D02*
X11419708Y5976984D01*
X11419708Y5976984D02*
X11359287Y5948809D01*
X11359287Y5948809D02*
X11284780Y5950845D01*
X11284780Y5950845D02*
X11240482Y5966968D01*
X11240482Y5966968D02*
X11182097Y6013301D01*
X11182097Y6013301D02*
X11095538Y6120055D01*
X11095538Y6120055D02*
X11025101Y6271106D01*
X11025101Y6271106D02*
X10998963Y6406034D01*
X10998963Y6406034D02*
X11000998Y6480542D01*
X11000998Y6480542D02*
X11017121Y6524840D01*
X11017121Y6524840D02*
X11063455Y6583225D01*
X31083355Y13249025D02*
X31294664Y12795871D01*
X31294664Y12795871D02*
X31306716Y12691153D01*
X31306716Y12691153D02*
X31274470Y12602558D01*
X31274470Y12602558D02*
X31197926Y12530086D01*
X31197926Y12530086D02*
X31137506Y12501911D01*
X31325037Y13361723D02*
X31747981Y13558945D01*
X31747981Y13558945D02*
X31771921Y12797744D01*
X26466029Y12362449D02*
X26468064Y12436957D01*
X26468064Y12436957D02*
X26425803Y12527588D01*
X26425803Y12527588D02*
X26353330Y12604131D01*
X26353330Y12604131D02*
X26264735Y12636377D01*
X26264735Y12636377D02*
X26190228Y12638413D01*
X26190228Y12638413D02*
X26055299Y12612274D01*
X26055299Y12612274D02*
X25964669Y12570012D01*
X25964669Y12570012D02*
X25857915Y12483453D01*
X25857915Y12483453D02*
X25811582Y12425068D01*
X25811582Y12425068D02*
X25779336Y12336473D01*
X25779336Y12336473D02*
X25791387Y12231755D01*
X25791387Y12231755D02*
X25819562Y12171335D01*
X25819562Y12171335D02*
X25892034Y12094791D01*
X25892034Y12094791D02*
X25936331Y12078668D01*
X25936331Y12078668D02*
X26147803Y12177279D01*
X26147803Y12177279D02*
X26091454Y12298120D01*
X26002696Y11778601D02*
X26637112Y12074434D01*
X26637112Y12074434D02*
X26171744Y11416078D01*
X26171744Y11416078D02*
X26806159Y11711911D01*
X26312616Y11113976D02*
X26947032Y11409809D01*
X26947032Y11409809D02*
X27017468Y11258757D01*
X27017468Y11258757D02*
X27029520Y11154039D01*
X27029520Y11154039D02*
X26997274Y11065444D01*
X26997274Y11065444D02*
X26950940Y11007059D01*
X26950940Y11007059D02*
X26844187Y10920500D01*
X26844187Y10920500D02*
X26753556Y10878238D01*
X26753556Y10878238D02*
X26618628Y10852099D01*
X26618628Y10852099D02*
X26544120Y10854135D01*
X26544120Y10854135D02*
X26455525Y10886381D01*
X26455525Y10886381D02*
X26383053Y10962924D01*
X26383053Y10962924D02*
X26312616Y11113976D01*
X6066333Y8746367D02*
X5833000Y9079700D01*
X5666333Y8746367D02*
X5666333Y9446367D01*
X5666333Y9446367D02*
X5933000Y9446367D01*
X5933000Y9446367D02*
X5999667Y9413034D01*
X5999667Y9413034D02*
X6033000Y9379700D01*
X6033000Y9379700D02*
X6066333Y9313034D01*
X6066333Y9313034D02*
X6066333Y9213034D01*
X6066333Y9213034D02*
X6033000Y9146367D01*
X6033000Y9146367D02*
X5999667Y9113034D01*
X5999667Y9113034D02*
X5933000Y9079700D01*
X5933000Y9079700D02*
X5666333Y9079700D01*
X6666333Y9213034D02*
X6666333Y8746367D01*
X6499667Y9479700D02*
X6333000Y8979700D01*
X6333000Y8979700D02*
X6766333Y8979700D01*
X5665000Y6398367D02*
X5331666Y6398367D01*
X5331666Y6398367D02*
X5298333Y6065034D01*
X5298333Y6065034D02*
X5331666Y6098367D01*
X5331666Y6098367D02*
X5398333Y6131700D01*
X5398333Y6131700D02*
X5565000Y6131700D01*
X5565000Y6131700D02*
X5631666Y6098367D01*
X5631666Y6098367D02*
X5665000Y6065034D01*
X5665000Y6065034D02*
X5698333Y5998367D01*
X5698333Y5998367D02*
X5698333Y5831700D01*
X5698333Y5831700D02*
X5665000Y5765034D01*
X5665000Y5765034D02*
X5631666Y5731700D01*
X5631666Y5731700D02*
X5565000Y5698367D01*
X5565000Y5698367D02*
X5398333Y5698367D01*
X5398333Y5698367D02*
X5331666Y5731700D01*
X5331666Y5731700D02*
X5298333Y5765034D01*
X6298333Y6398367D02*
X6165000Y6398367D01*
X6165000Y6398367D02*
X6098333Y6365034D01*
X6098333Y6365034D02*
X6065000Y6331700D01*
X6065000Y6331700D02*
X5998333Y6231700D01*
X5998333Y6231700D02*
X5965000Y6098367D01*
X5965000Y6098367D02*
X5965000Y5831700D01*
X5965000Y5831700D02*
X5998333Y5765034D01*
X5998333Y5765034D02*
X6031667Y5731700D01*
X6031667Y5731700D02*
X6098333Y5698367D01*
X6098333Y5698367D02*
X6231667Y5698367D01*
X6231667Y5698367D02*
X6298333Y5731700D01*
X6298333Y5731700D02*
X6331667Y5765034D01*
X6331667Y5765034D02*
X6365000Y5831700D01*
X6365000Y5831700D02*
X6365000Y5998367D01*
X6365000Y5998367D02*
X6331667Y6065034D01*
X6331667Y6065034D02*
X6298333Y6098367D01*
X6298333Y6098367D02*
X6231667Y6131700D01*
X6231667Y6131700D02*
X6098333Y6131700D01*
X6098333Y6131700D02*
X6031667Y6098367D01*
X6031667Y6098367D02*
X5998333Y6065034D01*
X5998333Y6065034D02*
X5965000Y5998367D01*
X6798334Y6398367D02*
X6865000Y6398367D01*
X6865000Y6398367D02*
X6931667Y6365034D01*
X6931667Y6365034D02*
X6965000Y6331700D01*
X6965000Y6331700D02*
X6998334Y6265034D01*
X6998334Y6265034D02*
X7031667Y6131700D01*
X7031667Y6131700D02*
X7031667Y5965034D01*
X7031667Y5965034D02*
X6998334Y5831700D01*
X6998334Y5831700D02*
X6965000Y5765034D01*
X6965000Y5765034D02*
X6931667Y5731700D01*
X6931667Y5731700D02*
X6865000Y5698367D01*
X6865000Y5698367D02*
X6798334Y5698367D01*
X6798334Y5698367D02*
X6731667Y5731700D01*
X6731667Y5731700D02*
X6698334Y5765034D01*
X6698334Y5765034D02*
X6665000Y5831700D01*
X6665000Y5831700D02*
X6631667Y5965034D01*
X6631667Y5965034D02*
X6631667Y6131700D01*
X6631667Y6131700D02*
X6665000Y6265034D01*
X6665000Y6265034D02*
X6698334Y6331700D01*
X6698334Y6331700D02*
X6731667Y6365034D01*
X6731667Y6365034D02*
X6798334Y6398367D01*
X12636740Y11805880D02*
X12284396Y12009372D01*
X12274217Y11636833D02*
X11978384Y12271248D01*
X11978384Y12271248D02*
X12220066Y12383947D01*
X12220066Y12383947D02*
X12294574Y12381911D01*
X12294574Y12381911D02*
X12338872Y12365788D01*
X12338872Y12365788D02*
X12397256Y12319455D01*
X12397256Y12319455D02*
X12439518Y12228824D01*
X12439518Y12228824D02*
X12437483Y12154316D01*
X12437483Y12154316D02*
X12421360Y12110019D01*
X12421360Y12110019D02*
X12375026Y12051634D01*
X12375026Y12051634D02*
X12133344Y11938936D01*
X12552379Y12538907D02*
X12945113Y12722041D01*
X12945113Y12722041D02*
X12846339Y12381748D01*
X12846339Y12381748D02*
X12936970Y12424010D01*
X12936970Y12424010D02*
X13011478Y12421974D01*
X13011478Y12421974D02*
X13055775Y12405851D01*
X13055775Y12405851D02*
X13114160Y12359518D01*
X13114160Y12359518D02*
X13184596Y12208467D01*
X13184596Y12208467D02*
X13182561Y12133959D01*
X13182561Y12133959D02*
X13166438Y12089662D01*
X13166438Y12089662D02*
X13120104Y12031277D01*
X13120104Y12031277D02*
X12938843Y11946753D01*
X12938843Y11946753D02*
X12864335Y11948789D01*
X12864335Y11948789D02*
X12820037Y11964912D01*
X14299348Y7339964D02*
X13936825Y7170916D01*
X14118087Y7255440D02*
X13822254Y7889856D01*
X13822254Y7889856D02*
X13804095Y7771050D01*
X13804095Y7771050D02*
X13771849Y7682455D01*
X13771849Y7682455D02*
X13725516Y7624070D01*
X14577511Y8242038D02*
X14275408Y8101165D01*
X14275408Y8101165D02*
X14386070Y7784975D01*
X14386070Y7784975D02*
X14402193Y7829273D01*
X14402193Y7829273D02*
X14448527Y7887657D01*
X14448527Y7887657D02*
X14599578Y7958094D01*
X14599578Y7958094D02*
X14674086Y7956058D01*
X14674086Y7956058D02*
X14718383Y7939935D01*
X14718383Y7939935D02*
X14776768Y7893602D01*
X14776768Y7893602D02*
X14847205Y7742550D01*
X14847205Y7742550D02*
X14845169Y7668043D01*
X14845169Y7668043D02*
X14829046Y7623745D01*
X14829046Y7623745D02*
X14782713Y7565360D01*
X14782713Y7565360D02*
X14631661Y7494924D01*
X14631661Y7494924D02*
X14557153Y7496960D01*
X14557153Y7496960D02*
X14512856Y7513083D01*
X15000455Y8439260D02*
X15060875Y8467434D01*
X15060875Y8467434D02*
X15135383Y8465398D01*
X15135383Y8465398D02*
X15179680Y8449275D01*
X15179680Y8449275D02*
X15238065Y8402942D01*
X15238065Y8402942D02*
X15324625Y8296188D01*
X15324625Y8296188D02*
X15395061Y8145137D01*
X15395061Y8145137D02*
X15421200Y8010209D01*
X15421200Y8010209D02*
X15419164Y7935701D01*
X15419164Y7935701D02*
X15403041Y7891404D01*
X15403041Y7891404D02*
X15356708Y7833019D01*
X15356708Y7833019D02*
X15296287Y7804844D01*
X15296287Y7804844D02*
X15221780Y7806880D01*
X15221780Y7806880D02*
X15177482Y7823003D01*
X15177482Y7823003D02*
X15119097Y7869336D01*
X15119097Y7869336D02*
X15032538Y7976090D01*
X15032538Y7976090D02*
X14962101Y8127141D01*
X14962101Y8127141D02*
X14935963Y8262069D01*
X14935963Y8262069D02*
X14937998Y8336577D01*
X14937998Y8336577D02*
X14954121Y8380875D01*
X14954121Y8380875D02*
X15000455Y8439260D01*
D12*
%TO.C,R6*%
X31512000Y5690000D02*
X33432000Y5690000D01*
X33432000Y5690000D02*
X33432000Y8550000D01*
X31512000Y8550000D02*
X31512000Y5690000D01*
%TO.C,R5*%
X29353000Y5690000D02*
X31273000Y5690000D01*
X31273000Y5690000D02*
X31273000Y8550000D01*
X29353000Y8550000D02*
X29353000Y5690000D01*
%TO.C,R2*%
X11530462Y7093449D02*
X13270573Y7904876D01*
X13270573Y7904876D02*
X12061885Y10496916D01*
X10321774Y9685489D02*
X11530462Y7093449D01*
%TO.C,R1*%
X9475830Y6124519D02*
X11215941Y6935946D01*
X11215941Y6935946D02*
X10007253Y9527986D01*
X8267142Y8716559D02*
X9475830Y6124519D01*
%TO.C,R4*%
X4314000Y8501000D02*
X4314000Y6581000D01*
X4314000Y6581000D02*
X7174000Y6581000D01*
X7174000Y8501000D02*
X4314000Y8501000D01*
%TO.C,R3*%
X13539830Y8029519D02*
X15279941Y8840946D01*
X15279941Y8840946D02*
X14071253Y11432986D01*
X12331142Y10621559D02*
X13539830Y8029519D01*
%TD*%
M02*
